<svg xmlns="http://www.w3.org/2000/svg" viewBox="0 0 926.42 846.27"><defs><style>.cls-1{fill:#dfdfdf;}.cls-2{fill:#f0b9ad;}.cls-3{fill:#16164c;}.cls-4{fill:#ffece6;}.cls-5{fill:#c43f2a;}.cls-6{fill:#d3a339;}.cls-7{fill:#272266;}.cls-8{fill:#efd0c5;}.cls-9{fill:#f3f3f3;}.cls-10,.cls-11,.cls-12{fill:none;stroke-linecap:round;stroke-linejoin:round;}.cls-10,.cls-11{stroke:#f3f3f3;}.cls-10,.cls-12{stroke-width:4px;}.cls-11{stroke-width:2px;}.cls-12{stroke:#dfdfdf;}</style></defs><g id="Layer_2" data-name="Layer 2"><g id="Vector"><path class="cls-1" d="M837,434.77l-32,171.8a23.1,23.1,0,0,1-27,18.49h0L644.5,600.16a23.09,23.09,0,0,1-18.49-27h0l63.57-340.87a23.09,23.09,0,0,1,27-18.49l133.52,24.9a23.1,23.1,0,0,1,18.5,27h0L837,434.77"/><path class="cls-2" d="M778.56,620.37,756.66,574S744.32,547.89,734,545.54c-1.2,6-8.86,49.31-9.81,64.64l54.43,10.15Z"/><path class="cls-3" d="M746.67,210.13l76.64,14.3a6.39,6.39,0,0,1,5.13,7.48l-1.8,9.68a6.41,6.41,0,0,1-7.49,5.13l-76.64-14.29a6.41,6.41,0,0,1-5.13-7.49l1.81-9.68A6.43,6.43,0,0,1,746.67,210.13Z"/><path class="cls-2" d="M807.18,618.93l5.46,1L825,553.43l-44.61-16.22-46.53,8.37c1.18,5,6.22,38,24.35,69.38l48,8.94.93-5Z"/><path class="cls-4" d="M728.76,447.7c-3.72-.77-4.79,5-4.79,5-.81-5.72-22-111.2-22-111.2s-8.8,1.93-2.86,22.24c-3.39,1.24-13.13,6.45-11.67,18,1.12,8.69,6.36,12.66,10,13.34-1.75,6-.32,71.26.84,74.6,2.69,7.86,9,17.05,13.54,18.11,7.24,1.72,27-4.52,32.42-8.71S735.77,449.14,728.76,447.7Z"/><path class="cls-5" d="M789.52,423.21c-14.83-19.19-65.34,10.71-65.72,17.46s18.55,34.92,25.79,34.2S801.22,438.27,789.52,423.21Z"/><path class="cls-5" d="M837,434.77c-5.53-14.29-15.59-24.73-32.22-27.83C747.1,396.18,717.43,546.1,721.9,555.58c4,8.38,67.27,22.18,88.71,20.9"/><path class="cls-4" d="M826.81,489.6,820.28,491c.17,2,.48,13.26,1.47,25.79"/><path class="cls-5" d="M837.29,433.45c-3.47-3.73-7.34-5.7-11.41-4.83-23.46,5-18.14,62.49-12.25,65.67,1.89,1,6.59,1.23,12.16.81"/><path class="cls-4" d="M813.45,422.18c-.89,4.78-27.56.89-26.47-4.93l6.07-32.54,26.47,4.94Z"/><ellipse class="cls-4" cx="805.34" cy="372.66" rx="32.81" ry="24.39" transform="translate(60.35 854.77) rotate(-57.74)"/><ellipse class="cls-4" cx="823.92" cy="387.82" rx="7.72" ry="5.39" transform="translate(-39.05 678.55) rotate(-43.82)"/><path class="cls-6" d="M849,376.7c.83-4.42-2.4-10.05-2.13-15.74.12-2.89,3.18-14.41.63-19-5.3-9.47-9.63-8.53-14.49-11.43-8.46-5-10.93-11.18-18.44-12.59-8.52-1.58-12.79,2.19-18.9,1.05-7-1.3-12.09-5.58-21.89-7.41-5.23-1-13.33,4.58-14.45,10.61-2.66,14.26,11,14.68,10.33,18.14-.45,2.41-1.61,4.19-2.22,7.48-.81,4.34,4.35,7.88,7.56,8.48,9.8,1.82,11.31.86,11.31.86a44.8,44.8,0,0,1,9.38-9.27c.47-.32,6,5.32,16.28,7.61,8.47,1.87,14.14,4.63,13.4,8.61-.52,2.81-3.12,10.93-3.47,13.28s.16,4,.69,4.12a8.73,8.73,0,0,1,4.24,0c3.49.65,3,5,3.57,5.11C834,387.27,847.15,386.78,849,376.7Z"/><path class="cls-2" d="M700.39,294.07l20,3.73a11,11,0,0,1,8.76,12.78l-3.74,20a11,11,0,0,1-12.77,8.76l-20-3.74a11,11,0,0,1-8.76-12.77l3.74-20.05A11,11,0,0,1,700.39,294.07Z"/><circle class="cls-5" cx="725.59" cy="302.22" r="8.66"/><path class="cls-3" d="M853.08,226.61,718.16,201.45a33.49,33.49,0,0,0-39,26.76l-64.33,345a33.49,33.49,0,0,0,26.76,39h0l134.93,25.16a33.48,33.48,0,0,0,39-26.76l64.33-345A33.48,33.48,0,0,0,853.08,226.61ZM837,434.77l-32,171.8a23.1,23.1,0,0,1-27,18.49h0L644.5,600.16a23.09,23.09,0,0,1-18.49-27h0l63.57-340.87a23.09,23.09,0,0,1,27-18.49l133.52,24.9a23.1,23.1,0,0,1,18.5,27h0L837,434.77Z"/><path class="cls-7" d="M864.45,281.56l48.72,9.09a16.23,16.23,0,0,1,13,18.92h0a16.24,16.24,0,0,1-18.92,13l-48.72-9.09a16.23,16.23,0,0,1-13-18.92h0A16.21,16.21,0,0,1,864.45,281.56Z"/><polygon class="cls-7" points="862.9 306.58 851.66 290.15 846.5 317.87 862.9 306.58"/><circle class="cls-2" cx="870.29" cy="299.51" r="4.09"/><circle class="cls-2" cx="886.76" cy="302.58" r="4.09"/><circle class="cls-2" cx="903.19" cy="305.64" r="4.09"/><polygon class="cls-8" points="393.65 772.45 394.83 805.36 409.72 802.84 417.43 770.89 393.65 772.45"/><polygon class="cls-3" points="392.28 800.42 388.66 825.98 437.01 846.26 439.52 840.21 409.08 818.72 415.4 801.47 392.28 800.42"/><polygon class="cls-8" points="468.49 762.28 468.97 795.22 483.91 793 492.3 761.22 468.49 762.28"/><polygon class="cls-3" points="465.13 789.32 463.82 816.38 512.09 832.89 514.3 826.71 482.82 806.76 488.49 789.22 465.13 789.32"/><path class="cls-3" d="M433.29,464.2s36.65,108.68,34.55,142.65.35,157.33.35,157.33l24.55,1.09s17.6-134.92,21.7-191.62S509,409.88,509,409.88L412.48,426Z"/><path class="cls-3" d="M362.15,441.21c-3.29,63,25.74,108.66,29,164.58s2.36,170.77,2.36,170.77l24.37,1.57S437.84,648,436.66,585.6s7.88-144.36,7.88-144.36S365.47,378.23,362.15,441.21Z"/><path class="cls-2" d="M435,235.29,407.48,234s-19.46-.15-23.3,17.21-30.35,183.53-30.35,183.53l164.8,2.06L493.48,265.58s-.87-27.57-13.8-28.17Z"/><rect class="cls-9" y="95.17" width="238.44" height="359.66"/><rect class="cls-1" x="237.79" y="95.17" width="55.46" height="359.66"/><rect class="cls-2" x="19.75" y="124.21" width="198.93" height="38.35"/><circle class="cls-9" cx="34.05" cy="138.58" r="6.73"/><line class="cls-10" x1="149.99" y1="138.58" x2="46.43" y2="138.58"/><rect class="cls-2" x="19.75" y="189.03" width="198.93" height="38.35"/><circle class="cls-9" cx="34.05" cy="203.4" r="6.73"/><line class="cls-10" x1="149.99" y1="203.4" x2="46.43" y2="203.4"/><rect class="cls-2" x="19.75" y="253.86" width="198.93" height="38.35"/><circle class="cls-9" cx="34.05" cy="268.21" r="6.73"/><line class="cls-10" x1="149.99" y1="268.21" x2="46.43" y2="268.21"/><rect class="cls-2" x="19.75" y="318.67" width="198.93" height="38.35"/><circle class="cls-9" cx="34.05" cy="333.03" r="6.73"/><line class="cls-10" x1="149.99" y1="333.03" x2="46.43" y2="333.03"/><rect class="cls-2" x="19.75" y="383.49" width="198.93" height="38.35"/><circle class="cls-9" cx="34.05" cy="397.85" r="6.73"/><line class="cls-10" x1="149.99" y1="397.85" x2="46.43" y2="397.85"/><line class="cls-11" x1="280.43" y1="151.8" x2="250.59" y2="151.8"/><line class="cls-11" x1="280.43" y1="159.53" x2="250.59" y2="159.53"/><line class="cls-11" x1="280.43" y1="204.35" x2="250.59" y2="204.35"/><line class="cls-11" x1="280.43" y1="212.07" x2="250.59" y2="212.07"/><line class="cls-11" x1="280.43" y1="268.21" x2="250.59" y2="268.21"/><line class="cls-11" x1="280.43" y1="275.94" x2="250.59" y2="275.94"/><line class="cls-11" x1="280.43" y1="330" x2="250.59" y2="330"/><line class="cls-11" x1="280.43" y1="337.72" x2="250.59" y2="337.72"/><path class="cls-4" d="M279,268.58c-28.44-25.82-56.66-51.18-57.94-51.18a4.57,4.57,0,0,0-4.49,4.21c0,13.16,9.6,13.81,21.52,26.45,5.7,10.22,13.2,22.32,21.57,34.93C265.17,277.25,272.11,272.71,279,268.58Z"/><path class="cls-4" d="M240.73,245.86a22.24,22.24,0,1,0,31.55,29.42Z"/><path class="cls-12" d="M573.25,49.34c6.58,12.51,9.84,25.74,9.84,37.3,0,27.38-4.57,46.15-8,62.57"/><path class="cls-12" d="M423,31.34C443.12,14.51,465.78,2,492.75,2c22.16,0,40.15,6.6,54.07,16.67"/><path class="cls-12" d="M314.4,118.76c21.13,0,40.46-18,61.13-39.87"/><rect class="cls-6" x="382.67" y="37.47" width="29.78" height="29.78"/><circle class="cls-6" cx="560.18" cy="31.75" r="13.08"/><polygon class="cls-6" points="596.47 172.36 567.33 153.38 565.46 188.11 596.47 172.36"/><path class="cls-4" d="M397.42,132.7A43.35,43.35,0,0,0,384,161.62c-1,18.44,1.15,35.62,14.53,42.33s19.84,6.35,21.31,12.75,1,15.08,1,15.08l-.62,7.61,45.24-2.76s-2.06-16.09-.37-23.76,20.2-41.2,20-44.46,17.58-48.63-24.19-60.14S397.42,132.7,397.42,132.7Z"/><path class="cls-4" d="M385.21,162.63l-6.28.39s-3.77.23-3.54,4,4,3.55,4,3.55l6.28-.39Z"/><circle cx="403.83" cy="157.72" r="2.7"/><path class="cls-2" d="M386.84,244.25l24.8,33.47s-51.17,93.72-62.19,87.77-21-15.2-21-15.2L250.54,283.7,268.69,259s52.45,43.24,57.56,47.66c7.56,6.35,10.67,9.19,18.1,7.66S386.84,244.25,386.84,244.25Z"/><path class="cls-8" d="M498.75,452.63l1.61.1a3.6,3.6,0,0,1,3.39,3.78l-3.48,56.84a3.6,3.6,0,0,1-3.78,3.38l-1.61-.1a3.59,3.59,0,0,1-3.38-3.78L495,456A3.46,3.46,0,0,1,498.75,452.63Z"/><path class="cls-8" d="M490.42,447.64l1.54.14a3.51,3.51,0,0,1,3.31,3.82l-3.7,56.76a3.49,3.49,0,0,1-3.81,3.32l-1.54-.14a3.5,3.5,0,0,1-3.31-3.82l3.7-56.76A3.49,3.49,0,0,1,490.42,447.64Z"/><path class="cls-8" d="M482.71,452.07c2.67-4.66,23.13-10.92,23.13-10.92l15.37,14.92-2.49,10.43S480.14,456.77,482.71,452.07Z"/><path class="cls-8" d="M487.49,451.2l1.36.87a3.59,3.59,0,0,1,1,5l-15.63,23.89a3.59,3.59,0,0,1-5,1.05L468,481.1a3.6,3.6,0,0,1-1.06-5l15.6-24A3.63,3.63,0,0,1,487.49,451.2Z"/><path class="cls-8" d="M515.67,456.48c-1.51-1.21-3-2.41-4.43-3.58l-3.41,55.8a3.6,3.6,0,0,0,3.38,3.78l1.61.09a3.59,3.59,0,0,0,3.78-3.38L519.73,458A6.63,6.63,0,0,1,515.67,456.48Z"/><path class="cls-8" d="M506.76,451.49l1.53.13a3.51,3.51,0,0,1,3.31,3.82l-3.69,56.77a3.51,3.51,0,0,1-3.82,3.31l-1.54-.14a3.49,3.49,0,0,1-3.31-3.81l3.7-56.77A3.5,3.5,0,0,1,506.76,451.49Z"/><path class="cls-2" d="M470.79,278.49l24.57-44.36s59.55,97.22,58.27,108.4a105,105,0,0,1-5.52,22.69L519.21,453l-26.82-6.63s23-73.92,20-66.23,8.69-23.47,7.79-33.73S470.79,278.49,470.79,278.49Z"/><path class="cls-7" d="M464.49,99.56c-30.28-11.39-56.9,7.67-64.5,13.15-7.78,5.57-14,10-14.07,16.37-.29,19.74,58.6,37.66,65.74,27.47,2-2.93.52-9.13,5-12.17a7.28,7.28,0,0,1,5.27-1.17c3.62.82,5.32,5.13,5.84,6.45,4,10-7,24.76-11,30.07-12.58,16.56-19.16,15-23.2,25-4.66,11.67-1.11,27.31,8.14,36.88,16.15,16.71,48,13.11,57.11-1.57,7.57-12.2-.76-31.57-2.19-34.88-5-11.62-10-11.95-11-19.68-1.8-14.43,14.93-19.72,17.72-34.85C506.83,132,487.25,108.14,464.49,99.56Z"/><path class="cls-12" d="M647.7,300.26c-24.35-9.83-46.07-23.9-58.8-47.67-10.46-19.54-13.14-38.52-10.83-55.54"/></g></g></svg>