<svg xmlns="http://www.w3.org/2000/svg" viewBox="0 0 996.21 836.19"><defs><style>.cls-1,.cls-7{fill:#272266;}.cls-1{stroke:#272266;}.cls-1,.cls-10,.cls-11{stroke-linecap:round;stroke-linejoin:round;}.cls-1,.cls-10,.cls-3{stroke-width:4px;}.cls-2{fill:#ffece6;}.cls-10,.cls-11,.cls-3{fill:none;}.cls-3{stroke:#dfdfdf;stroke-miterlimit:10;}.cls-4{fill:#16164c;}.cls-5{fill:#ce978e;}.cls-6{fill:#d3a339;}.cls-8{fill:#dfdfdf;}.cls-9{fill:#f3f3f3;}.cls-10,.cls-11{stroke:#f3f3f3;}.cls-11{stroke-width:2px;}.cls-12{fill:#f0b9ad;}.cls-13{fill:#f2f2f2;}</style></defs><g id="Layer_2" data-name="Layer 2"><g id="Vector"><line class="cls-1" x1="708.73" y1="788.26" x2="773.7" y2="678.92"/><polygon class="cls-2" points="715.82 772.1 718.03 804.96 702.96 803.99 692 772.99 715.82 772.1"/><polygon class="cls-2" points="613.78 762.31 595.43 789.66 584.1 779.66 594.39 748.44 613.78 762.31"/><polygon points="722.34 805.24 723.88 831.3 666.26 836.19 665.6 829.66 700.97 817.91 698.65 803.7 722.34 805.24"/><polygon points="598.66 792.51 583.95 814.07 535.37 782.71 538.84 777.13 574.01 789.47 580.87 776.8 598.66 792.51"/><polyline class="cls-3" points="575.68 96.42 575.68 426.27 594.61 426.27"/><line class="cls-1" x1="887.98" y1="788.26" x2="823" y2="678.92"/><line class="cls-1" x1="916.16" y1="788.26" x2="851.18" y2="678.92"/><path class="cls-4" d="M858.11,448.52h96.07L889.66,682.35H726V674H847.37Z"/><path class="cls-5" d="M668.69,602c-13.45,0-80.58,156.29-80.58,162s14.57,12.19,16.72,12.19c3.35-3.11,67.61-96,74.3-102.48S668.69,602,668.69,602Z"/><path class="cls-2" d="M775.51,487.21c-4.42,1.39-26,19.88-29.77,42.09-3.84-.46-26.88-1.42-36.48-1.81-3.14-4.89-9.75-8.28-17.42-8.28-10.69,0-19.36,6.57-19.36,14.67v.53h38.65v-.53a11.55,11.55,0,0,0-1.6-5.82l33.58,5.35L783,537.56l4.11-34.84Z"/><path class="cls-6" d="M812.63,460.46c0-2.81-7-6-12.14-6-13.72,0-36.93,25-36.93,28.14s16.71,17.12,29.55,18S812.63,460.46,812.63,460.46Z"/><path class="cls-6" d="M842.71,442.42c77.55,0,59.83,175.19,50,182.59s-96,8.08-101.61.68S750.68,442.42,842.71,442.42Z"/><path class="cls-2" d="M833.61,507.09c-3.49.84-17.48,9.51-25.87,24.47-8.25-1.54-41.81-9.93-71.6-9.93-2.8,0-10.07-2.3-13-2.3-17.47,0-21.12,9.44-21.12,12.23s.6,2.87,1.14,2.87c60,0,75.09,25.31,108.84,25.31,10.92,0,33.43-7.91,47-28.17C854.24,515.43,833.61,507.09,833.61,507.09Z"/><path class="cls-6" d="M885.59,475c18.74,18.19-28.65,68.54-36.25,67.8s-35-29.59-35.26-38.36S867.48,457.4,885.59,475Z"/><rect class="cls-7" x="507.88" y="536.67" width="423.23" height="13.66"/><path class="cls-5" d="M892.54,633.72c0-4.3.75-9.28-1.93-10.39C827,597.1,733.85,593.7,719.5,593.7s-56.31,1.46-56.31,13.47c0,43.38,24.17,176.93,29.08,181.92,2.33,2.34,22.65.78,25.18-1.77-.17-11,6.22-121.48.39-134.86C771.31,672.05,832,681.34,848,681.34,894.4,681.29,892.54,638.82,892.54,633.72Z"/><line class="cls-1" x1="908.37" y1="754.05" x2="908.37" y2="546.51"/><line class="cls-1" x1="556.72" y1="754.05" x2="556.72" y2="546.51"/><line class="cls-1" x1="878.65" y1="795.64" x2="878.65" y2="546.51"/><line class="cls-1" x1="525.32" y1="795.64" x2="525.32" y2="546.51"/><line class="cls-1" x1="737.64" y1="788.26" x2="802.61" y2="678.92"/><rect class="cls-4" x="663.19" y="534.16" width="70.27" height="2.51"/><rect class="cls-4" x="585.24" y="370.57" width="153.42" height="111.41"/><polygon class="cls-4" points="640.4 461.02 619.24 536.66 656.33 536.66 676.87 461.02 640.4 461.02"/><path class="cls-8" d="M670.3,101.81a44.73,44.73,0,0,0-47.45-73.68,62,62,0,0,0-109,9.67,44.73,44.73,0,0,0-55.41,64Z"/><polyline class="cls-3" points="560.06 93.33 560.06 165.06 339.99 165.06 339.99 233.21"/><rect class="cls-8" x="203.13" y="265.18" width="218.93" height="42.2"/><circle class="cls-9" cx="406.34" cy="280.98" r="7.4"/><line class="cls-10" x1="278.73" y1="280.98" x2="392.71" y2="280.98"/><line class="cls-11" x1="135.17" y1="295.54" x2="168.01" y2="295.54"/><line class="cls-11" x1="135.17" y1="304.04" x2="168.01" y2="304.04"/><line class="cls-11" x1="135.17" y1="353.37" x2="168.01" y2="353.37"/><line class="cls-11" x1="135.17" y1="361.87" x2="168.01" y2="361.87"/><line class="cls-11" x1="135.17" y1="423.65" x2="168.01" y2="423.65"/><line class="cls-11" x1="135.17" y1="432.16" x2="168.01" y2="432.16"/><line class="cls-11" x1="135.17" y1="491.65" x2="168.01" y2="491.65"/><line class="cls-11" x1="135.17" y1="500.16" x2="168.01" y2="500.16"/><path class="cls-5" d="M840.23,339.31c-6.48-9,1.09-17.49-4.76-23.54-6.24-6.47-23.69-5.93-32.33,3.62-8,8.9-4.47,21.25-3.8,23.54,4.13,14.24,18.27,20.59,22.8,22.64,14.81,6.64,28.67,4,40,1.8,8.75-1.68,22.14-5.57,21.87-9.05-.2-2.56-7.69-2.72-22.8-8.15C849.38,346,843.5,343.85,840.23,339.31Z"/><path class="cls-2" d="M800.44,362.72a35.72,35.72,0,0,0-12.12,24.12c-1.14,15.46.52,29.89,12.23,35.7s17.42,5.56,18.64,10.95.62,12.66.62,12.66l-.63,6.38,39.89-1.79s-1.62-13.53,0-19.95,18.28-34.36,18.16-37.07,16-40.61-20.61-50.75S800.44,362.72,800.44,362.72Z"/><path class="cls-2" d="M793.81,384.19l-5.45-1s-3.27-.59-3.89,2.53,2.66,3.7,2.66,3.7l5.45,1Z"/><ellipse cx="802.92" cy="380.16" rx="2.38" ry="2.27"/><path class="cls-12" d="M822.16,334.78c-6.47-9,1.09-17.48-4.76-23.54-6.24-6.47-23.69-5.92-32.33,3.62-8.05,8.91-4.46,21.25-3.8,23.54,4.13,14.25,18.27,20.59,22.8,22.64,14.8,6.65,28.66,4,39.94,1.81,8.76-1.69,22.14-5.58,21.87-9.05-.19-2.57-7.68-2.73-22.8-8.16C831.31,341.43,825.43,339.33,822.16,334.78Z"/><path class="cls-12" d="M823.15,355.6c-.11-2-.56-14.08,8.56-21.7,8.69-7.3,20.18-5.63,27.58-4.53,4.22.62,20.43,3,30.39,16.3,9.17,12.19,7.27,25.81,5.7,37.12-1,7.24-3.17,22.91-16.16,35.31-8,7.63-21.52,15.42-26.63,11.77-5.84-4.16-2.28-24.44.95-33.5a19.87,19.87,0,0,0,1-10c-.23-1.31-1.28-7.43-4.76-8.14-3-.6-6.22,3-7.6,5.42-2.58,4.45-2,10.2-1.9,11.78.28,3,1,4.5,0,5.43-1.77,1.7-6.86-.57-7.6-.9C822.36,395.38,822.73,366.09,823.15,355.6Z"/><path class="cls-12" d="M893.48,369.18c2.21-7.5,20.44-13.73,30.4-6.33,5.91,4.39,8.8,13.44,6.65,19.92-1,2.92-2.61,4.33-2.84,8.14-.2,3.28.61,8.67,3.8,10s5.71-3.05,12.36-4.53C949,395.21,956,395.94,961,400c7.26,5.91,8.33,17.48,3.8,23.54-3.73,5-10,4.57-10.46,8.15s5.07,7.23,9.51,9.06c9.82,3.9,15.43-1.78,22.8,1.81,6.3,3.05,9,10.45,9.51,15.39,1.44,14.55-15.06,24.12-17.12,25.35-9,5.23-24.4,9.21-33.29,2.72-5.21-3.81-3.62-7.9-13.3-19.92-6.14-7.62-9-8.78-11.42-9.05-6-.7-13.09,3.79-13.32,8.14-.26,5.1,9.08,6.09,11.42,13.59,2,6.52-2.2,14.84-7.6,18.1-10.65,6.43-31.14-2.81-39-16.3-9.29-15.95-.91-37.87,8.56-49.79,6.59-8.31,11.7-9.24,16.17-19,1.37-3,6.65-14.56,2.85-27.16C897.37,375.4,892.18,373.62,893.48,369.18Z"/><path class="cls-7" d="M905,371.27c2.09-8.55,1.29-10.55,1-11.32-1.78-3.89-6.57-7.3-10.35-6.43-4.41,1-5.76,7.48-7.49,15.88-1.55,7.45-2.66,12.79.66,15.57,2.54,2.09,6.84,2.14,9.77.67C901.83,384,902.93,379.71,905,371.27Z"/><rect class="cls-4" y="198.04" width="457.74" height="433.53"/><path class="cls-13" d="M226,257.29H89.68a1.66,1.66,0,1,1,0-3.31H226a1.66,1.66,0,0,1,0,3.31Z"/><path class="cls-13" d="M375.22,275.49H160.82a1.66,1.66,0,1,1,0-3.31h214.4a1.66,1.66,0,0,1,0,3.31Z"/><path class="cls-13" d="M226.66,293.68H90.34a1.66,1.66,0,0,1,0-3.31H226.66a1.66,1.66,0,0,1,0,3.31Z"/><path class="cls-13" d="M375.22,294H238.9a1.65,1.65,0,0,1,0-3.3H375.22a1.65,1.65,0,0,1,0,3.3Z"/><path class="cls-13" d="M227,311.88H90.67a1.66,1.66,0,0,1,0-3.31H227a1.66,1.66,0,0,1,0,3.31Z"/><path class="cls-13" d="M227.32,330.08H91a1.66,1.66,0,0,1,0-3.31H227.32a1.66,1.66,0,1,1,0,3.31Z"/><path class="cls-13" d="M289.19,257.62h-39a1.66,1.66,0,0,1,0-3.31h39a1.66,1.66,0,1,1,0,3.31Z"/><path class="cls-13" d="M289.19,311.88h-39a1.66,1.66,0,0,1,0-3.31h39a1.66,1.66,0,1,1,0,3.31Z"/><path class="cls-13" d="M289.19,329.75h-39a1.66,1.66,0,0,1,0-3.31h39.05a1.66,1.66,0,1,1,0,3.31Z"/><path class="cls-13" d="M128.39,275.49h-39a1.66,1.66,0,1,1,0-3.31h39a1.66,1.66,0,1,1,0,3.31Z"/><path class="cls-13" d="M226.16,525.29H89.85a1.66,1.66,0,1,1,0-3.31H226.16a1.66,1.66,0,1,1,0,3.31Z"/><path class="cls-13" d="M225.5,561.69H89.18a1.66,1.66,0,0,1,0-3.31H225.5a1.66,1.66,0,1,1,0,3.31Z"/><path class="cls-13" d="M225.83,579.89H89.51a1.66,1.66,0,0,1,0-3.31H225.83a1.66,1.66,0,1,1,0,3.31Z"/><path class="cls-13" d="M284.07,562H245a1.66,1.66,0,0,1,0-3.31h39a1.66,1.66,0,0,1,0,3.31Z"/><path class="cls-13" d="M284.07,579.89H245a1.66,1.66,0,0,1,0-3.31h39a1.66,1.66,0,0,1,0,3.31Z"/><path class="cls-13" d="M349.58,562h-39a1.66,1.66,0,1,1,0-3.31h39a1.66,1.66,0,0,1,0,3.31Z"/><path class="cls-13" d="M375.39,543.49H161a1.66,1.66,0,0,1,0-3.31H375.39a1.66,1.66,0,0,1,0,3.31Z"/><path class="cls-13" d="M128.56,543.49h-39a1.66,1.66,0,0,1,0-3.31h39.05a1.66,1.66,0,0,1,0,3.31Z"/><path class="cls-13" d="M375.39,598.41H161a1.65,1.65,0,0,1,0-3.3H375.39a1.65,1.65,0,1,1,0,3.3Z"/><path class="cls-13" d="M128.56,598.41h-39a1.65,1.65,0,0,1,0-3.3h39.05a1.65,1.65,0,1,1,0,3.3Z"/><polygon class="cls-6" points="193.24 373.75 140.3 426.03 193.24 478.31 205.15 466.4 165.12 426.36 205.48 386 193.24 373.75"/><polygon class="cls-6" points="271.33 373.75 324.27 426.03 271.33 478.31 259.42 466.4 299.45 426.36 259.08 386 271.33 373.75"/><circle class="cls-6" cx="14.7" cy="209.06" r="6.61"/><circle class="cls-6" cx="32.33" cy="209.06" r="6.61"/><circle class="cls-6" cx="49.97" cy="209.06" r="6.61"/><rect class="cls-8" y="220.09" width="457.74" height="2.2"/></g></g></svg>