<svg height='100px' width='100px'  fill="#000000" xmlns="http://www.w3.org/2000/svg" xmlns:xlink="http://www.w3.org/1999/xlink" version="1.1" x="0px" y="0px" viewBox="0 0 100 100" enable-background="new 0 0 100 100" xml:space="preserve"><path d="M79,4.282"></path><g><path d="M74.177,89.815c0,0-5.895-9.743-5.903-9.759c-0.022-0.044-0.09-21.331-0.09-21.331l-5.417-8.938L58.43,51.97l2.928,4.831   c0.215,0.354,0.102,0.815-0.253,1.03c-0.121,0.073-0.256,0.108-0.388,0.108c-0.254,0-0.501-0.128-0.643-0.361l-5.524-9.116   l-4.201,2.113l3.593,5.93c0.215,0.354,0.102,0.815-0.253,1.03c-0.121,0.073-0.256,0.108-0.388,0.108   c-0.254,0-0.501-0.128-0.643-0.361l-5.518-9.107l-4.694,2.455l3.586,5.873c0.217,0.354,0.104,0.815-0.249,1.031   c-0.122,0.075-0.257,0.11-0.39,0.11c-0.253,0-0.5-0.127-0.641-0.359l-3.926-6.429c-0.046-0.049-0.095-0.095-0.128-0.158   c-0.017-0.032-0.017-0.066-0.028-0.099c0,0-4.386-7.313-4.39-7.363c-0.001-0.019-0.005-34.04-0.005-34.04l-1.441,2.009   c-0.028,0.04-0.072,0.059-0.106,0.091c-0.05,0.123-0.446,0.594-0.604,0.594c-0.228,0-0.532-0.221-0.68-0.416l-1.25-1.653   l-1.142,1.591c-0.092,0.128-0.475,0.431-0.601,0.431c-0.226,0-0.568-0.172-0.717-0.364l-3.02-3.923v38.818l8.979,15.051v5.08   c0,0.414-0.336,0.75-0.75,0.75s-0.75-0.336-0.75-0.75v-4.667l-1.286-2.156l-4.455,2.621v16.23c0,0,13.931,5.992,13.945,6.016   l5.885,9.709c0.215,0.354,12.151-2.384,12.151-2.384S74.318,90.048,74.177,89.815z"></path></g></svg>