<svg xmlns="http://www.w3.org/2000/svg" viewBox="0 0 982.4 808.96"><defs><style>.cls-1{fill:#16164c;}.cls-2{fill:#d3a339;}.cls-11,.cls-3{fill:#fff;}.cls-4{fill:#e1e1e1;}.cls-5{fill:#efd0c5;}.cls-6{fill:#272266;}.cls-7{fill:#fed892;}.cls-8{fill:#c43f2a;}.cls-9{fill:#dfdfdf;}.cls-10{fill:#f2f2f2;}.cls-11{isolation:isolate;font-size:71.05px;font-family:ArialMT, Arial;}.cls-12{fill:#ce978e;}.cls-13{fill:#f0b9ad;}</style></defs><g id="Layer_2" data-name="Layer 2"><g id="Layer_1-2" data-name="Layer 1"><g id="Background"><rect class="cls-1" x="218.35" width="571.92" height="563.75"/><rect class="cls-1" x="218.35" width="571.92" height="42.91"/><circle class="cls-2" cx="248.53" cy="22.01" r="6.76"/><circle class="cls-2" cx="270.3" cy="22.01" r="6.76"/><circle class="cls-2" cx="292.07" cy="22.01" r="6.76"/><rect class="cls-2" x="246.33" y="74.19" width="228.63" height="123.86"/><rect class="cls-2" x="246.33" y="227.45" width="228.63" height="123.86"/><rect class="cls-3" x="530.6" y="227.45" width="228.63" height="267.14"/><rect class="cls-4" x="514.65" y="83.15" width="313.9" height="11.95"/><rect class="cls-4" x="514.65" y="116.87" width="313.9" height="11.95"/><rect class="cls-4" x="514.65" y="150.59" width="313.9" height="11.95"/><rect class="cls-4" x="514.65" y="184.3" width="313.9" height="11.95"/></g><g id="Foreground"><rect class="cls-5" x="677.35" y="649.2" width="15.3" height="23.2"/><rect class="cls-5" x="857.65" y="747.2" width="15.3" height="23.2"/><path class="cls-6" d="M789.65,434.5c-18.5,0-101.1,82.1-108.3,95.9s-5.1,121.9-5.1,121.9l17.8,3.4L723,555c12.6-1.5,65.6-12.9,93-35s-2.6-71.7-2.6-71.7Z"/><path class="cls-5" d="M758.75,323c-9.1,8.1-27.3,28.4-28.8,31-4.6-2.2-52.5-27.4-56.1-29s-11.2-14.3-13.8-14.3c-1.5,0-2.9,2.9-2.9,4.9a11,11,0,0,0,2.6,7.1c-3.4-.5-33.4-2.8-33.4-.8,0,5.2,33.6,12.1,36.2,13.5s57.3,52,76.3,52c7.4,0,40.1-22.2,40.1-24.6,3.1-2.1,7.9-5.2,7.9-5.2V340l-11.4-8.3C775.45,331.6,760.55,321.4,758.75,323Z"/><path class="cls-2" d="M757.55,317.2c2-16.2,39.3-53,56.4-36.6,14.9,14.3-12.1,65.4-19,67.4C787.15,348.8,757.05,328.2,757.55,317.2Z"/><path class="cls-7" d="M871.35,283.5c19-8,45.6,36,42.6,52,0,7-39,22-45,18S852.35,291.5,871.35,283.5Z"/><path class="cls-6" d="M794.75,441.6l62.8,305.5h16.1l5.7-272.5c0-4.7-.4-34.3-.4-38.1C860.75,441.8,822,446,794.75,441.6Z"/><polygon points="857.65 770.4 872.95 770.4 872.95 787 830.75 787 857.65 770.4"/><polygon points="677.35 672.4 692.65 672.4 692.65 689 650.45 689 677.35 672.4"/><rect class="cls-8" x="585.45" y="689" width="182.1" height="106.6"/><path class="cls-2" d="M829.75,260c47,0,63.4,39.1,63.4,51.8s-14.7,90.2-14.1,124.7c.1,5.7-84.3,10.8-95.8,2.5C777.85,435.1,766.25,260,829.75,260Z"/><path class="cls-5" d="M914,335.5c13.3,20.4,12.5,67.4,12.5,74.5s-49.6,70.9-53.9,70.9c-2.6-2.6-9.8-10.5-9.8-12.9,2.3-4.2,31.8-68.7,37.1-73.3-2.4-2.9-23.5-36-24.4-41.5C894,350.1,911.85,342.3,914,335.5Z"/><path class="cls-2" d="M914,335.5c3-16-21.3-62.4-42.6-52-18.5,9.1-8.4,66-2.4,70C876.15,356.6,911.15,346.1,914,335.5Z"/></g><rect class="cls-5" x="132.08" y="757.61" width="16.74" height="11.49"/><rect class="cls-5" x="238.59" y="757.61" width="19.57" height="11.49"/><path class="cls-6" d="M237.87,497.64c.46,8.67,20.88,260,20.88,260H237.87L183.56,568.89s14.12-75.52,15.11-75.32C203.33,494.75,228.87,499.28,237.87,497.64Z"/><path class="cls-6" d="M207.4,495.47,151.12,759.64H131s-1.77-289.52,0-289.52C149.88,478.14,185.6,491.27,207.4,495.47Z"/><path class="cls-5" d="M252.31,351.66c3.22,1.38,20.43,15.63,27.65,25,5.38-4,66.85-55,68.09-57.85,2.43-1.38,7.62,6.44,0,12.81,5.19-.2,35.86-1,35.86,0s6.63,3.81-38.42,11c-6,7.22-60.08,70.85-68.88,70.85s-44.65-34.8-46.16-41S252.31,351.66,252.31,351.66Z"/><path class="cls-8" d="M205.49,323.36c-14.05,13.07,11.69,52.47,19,54.18,9.26,2.23,30.4-15.3,34.94-27.45C261.44,344.38,217.05,312.66,205.49,323.36Z"/><path class="cls-8" d="M180.28,304.32c-78.14,0-60.41,150.83-55.42,161.14s105.06,40.26,112.94,32.18S260.19,304.32,180.28,304.32Z"/><rect class="cls-9" x="86.18" y="442.74" width="63.56" height="84.25" transform="translate(-35.86 10.16) rotate(-4.28)"/><rect class="cls-10" x="92.81" y="448.85" width="63.56" height="84.25" transform="translate(-36.29 10.67) rotate(-4.28)"/><ellipse class="cls-5" cx="120.85" cy="517.73" rx="12.54" ry="17.66"/><path class="cls-5" d="M112.91,369.59c-1.65,3.68-12.48,44.72-10.18,79.78S111,504.21,111,507s20.1,1.64,20.1,0-5.19-51.54-4.08-60.41,16.16-60.15,15.76-66.45S112.91,369.59,112.91,369.59Z"/><path class="cls-8" d="M142.39,325.86c-17.93-5.71-39.14,35.2-37.1,42.29,2.56,8.93,27.58,18.65,40.12,16.68C151.32,383.84,157.1,330.59,142.39,325.86Z"/><polygon points="131.23 766.47 131.23 771.53 111.27 808.96 124.27 808.96 150.27 785.38 150.27 766.47 131.23 766.47"/><polygon points="237.93 765.68 237.93 784.66 293.42 784.66 293.42 777.17 258.22 765.68 237.93 765.68"/><circle class="cls-9" cx="44.85" cy="305.03" r="44.85"/><polygon class="cls-9" points="108.61 272.46 54.7 283.3 67.9 309.5 108.61 272.46"/><polygon class="cls-9" points="238.04 274.17 291.1 288.81 291.1 259.46 238.04 274.17"/><text class="cls-11" transform="translate(30.13 329.28)">?</text><rect class="cls-9" x="258.26" y="236.02" width="102.44" height="71.31"/><circle class="cls-3" cx="286.3" cy="271.68" r="4.92"/><circle class="cls-3" cx="309.42" cy="271.68" r="4.92"/><circle class="cls-3" cx="332.6" cy="271.68" r="4.92"/><path class="cls-5" d="M801.39,187.23a35.6,35.6,0,0,0-11.22,23.4c-1,15,.52,29,11.3,34.69s16.09,5.39,17.2,10.63a53.89,53.89,0,0,1,.59,12.33l-.59,6.2,36.9-1.77s-1.47-13.14,0-19.34,16.91-33.37,16.76-36,14.84-39.42-19-49.24S801.39,187.23,801.39,187.23Z"/><path class="cls-12" d="M838.15,164.5c-6-8.71,1-17-4.43-22.89-5.75-6.27-21.92-5.75-29.89,3.55-7.46,8.63-4.13,20.59-3.54,22.88,3.83,13.8,16.9,20,21.11,22,13.65,6.49,26.5,3.83,36.9,1.77,8.12-1.63,20.45-5.39,20.23-8.79-.22-2.51-7.09-2.65-21.11-7.9C846.64,170.92,841.18,168.92,838.15,164.5Z"/><path class="cls-5" d="M795.27,208.05l-5-1a3,3,0,0,0-3.55,2.51,3.13,3.13,0,0,0,2.44,3.54l5,1Z"/><circle cx="803.68" cy="204.13" r="2.21"/><path class="cls-13" d="M821.47,160.07c-6-8.71,1-17-4.43-22.89-5.76-6.27-21.92-5.75-29.89,3.55-7.46,8.63-4.14,20.59-3.55,22.88,3.84,13.8,16.91,20,21.12,22,13.65,6.49,26.49,3.83,36.9,1.77,8.12-1.63,20.45-5.39,20.23-8.79-.22-2.51-7.09-2.65-21.11-7.89C830,166.56,824.5,164.5,821.47,160.07Z"/><path class="cls-13" d="M822.36,180.29c-.08-2-.52-13.65,7.89-21.11,8-7.09,18.68-5.46,25.47-4.43,3.91.59,18.9,2.95,28.12,15.8,8.49,11.81,6.72,25.1,5.25,36-1,7-3,22.22-14.92,34.25-7.38,7.38-19.93,15-24.65,11.44-5.39-4.06-2.07-23.77.89-32.48a19.62,19.62,0,0,0,.88-9.67c-.22-1.25-1.18-7.23-4.43-7.9-2.73-.59-5.75,3-7,5.25-2.36,4.28-1.92,9.89-1.77,11.44.22,2.95.89,4.35,0,5.24-1.62,1.62-6.35-.59-7-.89C821.62,218.9,822,190.48,822.36,180.29Z"/><path class="cls-13" d="M887.39,193.5c2.06-7.3,18.89-13.36,28.12-6.12,5.46,4.28,8.12,13.06,6.13,19.34-.89,2.88-2.44,4.2-2.66,7.9-.15,3.17.59,8.41,3.54,9.67s5.24-3,11.44-4.43c4.8-1.11,11.22-.37,15.8,3.54,6.72,5.76,7.68,17,3.54,22.88-3.46,4.87-9.3,4.43-9.67,7.9s4.65,7.09,8.79,8.78c9.08,3.84,14.24-1.69,21.11,1.78,5.83,2.95,8.34,10.18,8.78,14.91,1.33,14.09-13.95,23.47-15.79,24.65-8.27,5.09-22.59,8.93-30.78,2.66-4.8-3.69-3.33-7.68-12.33-19.34-5.68-7.38-8.34-8.56-10.48-8.79-5.54-.66-12.11,3.7-12.33,7.9-.22,4.95,8.42,5.91,10.48,13.22,1.92,6.34-2.06,14.39-7,17.56-9.82,6.28-28.79-2.73-36-15.79-8.64-15.5-.81-36.76,7.9-48.35,6.12-8.05,10.85-9,14.91-18.46,1.25-2.95,6.12-14.17,2.65-26.35C891,199.56,886.21,197.79,887.39,193.5Z"/><path class="cls-6" d="M898,195.5c1.92-8.27,1.18-10.26.88-11-1.62-3.77-6-7.09-9.59-6.28-4.06,1-5.32,7.24-6.94,15.43-1.4,7.24-2.44,12.4.59,15.13,2.29,2,6.35,2.07,9,.67C895.14,207.82,896.17,203.69,898,195.5Z"/><path class="cls-5" d="M217.27,230a36.3,36.3,0,0,1,11.22,24.18c.8,15.43-1,29.8-12.16,35.41s-16.6,5.31-17.82,10.66a54.25,54.25,0,0,0-.81,12.62l.52,6.36-37.84-2.31s1.73-13.45.31-19.87-16.9-34.46-16.73-37.19-14.7-40.67,20.24-50.3S217.27,230,217.27,230Z"/><path class="cls-5" d="M227.48,255l5.25.32a3.16,3.16,0,0,1-.38,6.31l-5.26-.32Z"/><circle cx="211.9" cy="250.88" r="2.26"/><path class="cls-6" d="M161.17,202.24c25.32-9.53,47.59,6.41,54,11s11.68,8.38,11.76,13.7c.25,16.51-49,31.5-55,23-1.72-2.45-.43-7.63-4.22-10.17a6,6,0,0,0-4.41-1c-3,.68-4.46,4.29-4.89,5.39-3.31,8.39,5.86,20.71,9.23,25.15,10.53,13.86,16,12.52,19.41,20.92,3.9,9.76.93,22.84-6.81,30.85-13.5,14-40.12,11-47.76-1.32-6.34-10.2.63-26.4,1.82-29.17,4.19-9.72,8.38-10,9.19-16.46C145,262,131,257.61,128.64,245,125.75,229.36,142.13,209.41,161.17,202.24Z"/></g></g></svg>