<svg height='100px' width='100px'  fill="#000000" xmlns="http://www.w3.org/2000/svg" xmlns:xlink="http://www.w3.org/1999/xlink" version="1.1" x="0px" y="0px" viewBox="0 0 48 48" enable-background="new 0 0 48 48" xml:space="preserve"><g><path d="M24,42.542c-13.458,0-24-5.701-24-12.979c0-7.278,10.542-12.979,24-12.979s24,5.701,24,12.979   C48,36.841,37.458,42.542,24,42.542z M24,18.584c-11.925,0-22,5.027-22,10.979s10.075,10.979,22,10.979   c11.925,0,22-5.028,22-10.979S35.925,18.584,24,18.584z"></path><path d="M24,48c-9.247,0-17.772-4.951-21.719-12.614c-0.253-0.491-0.06-1.094,0.431-1.347c0.493-0.257,1.094-0.061,1.347,0.431   C7.667,41.475,15.494,46,24,46c8.422,0,16.216-4.461,19.855-11.365c0.258-0.487,0.861-0.674,1.352-0.418   c0.488,0.258,0.676,0.862,0.418,1.352C41.644,43.12,33.155,48,24,48z"></path><path d="M38.382,39.869c-0.287,0-0.571-0.123-0.77-0.36c-0.354-0.424-0.296-1.055,0.129-1.408c1.047-0.872,2.295-2.286,2.295-4.071   c0-4.35-7.344-8.024-16.036-8.024S7.964,29.68,7.964,34.029c0,1.19,0.543,2.35,1.614,3.444c0.386,0.395,0.379,1.028-0.016,1.414   s-1.029,0.379-1.414-0.016c-1.429-1.461-2.184-3.136-2.184-4.843c0-5.621,7.922-10.024,18.036-10.024   c10.113,0,18.036,4.403,18.036,10.024c0,2.026-1.043,3.966-3.016,5.608C38.834,39.793,38.607,39.869,38.382,39.869z"></path><ellipse cx="32.732" cy="33.948" rx="1.925" ry="0.979"></ellipse><ellipse cx="26.87" cy="31.462" rx="2.915" ry="1.483"></ellipse><g><path d="M16.629,13.657c-0.552,0-1-0.448-1-1V5.154c0-0.552,0.448-1,1-1s1,0.448,1,1v7.503    C17.629,13.209,17.181,13.657,16.629,13.657z"></path><path d="M24,13.657c-0.552,0-1-0.448-1-1V1c0-0.552,0.448-1,1-1c0.553,0,1,0.448,1,1v11.657C25,13.209,24.553,13.657,24,13.657z"></path><path d="M31.371,13.657c-0.553,0-1-0.448-1-1V5.154c0-0.552,0.447-1,1-1s1,0.448,1,1v7.503    C32.371,13.209,31.924,13.657,31.371,13.657z"></path></g></g></svg>