<svg xmlns="http://www.w3.org/2000/svg" viewBox="0 0 695.15 235.65"><defs><style>.cls-1{fill:#32366a;}.cls-1,.cls-2{stroke:#32366a;stroke-miterlimit:10;stroke-width:4px;}.cls-2{fill:none;}</style></defs><g id="Layer_2" data-name="Layer 2"><g id="Layer_1-2" data-name="Layer 1"><g id="Layer_1-2-2" data-name="Layer 1-2-2"><path class="cls-1" d="M11.32,3.58h41C82.23,3.58,102,23.32,102,53.84c0,30.07-19.15,52.81-50.71,52.81h-40ZM33.61,88.7H50.37c19.75,0,28.57-14.81,28.57-34.86,0-16.9-8.23-32.31-28.42-32.31H33.61Z"/><path class="cls-1" d="M138.93,82.86,131,106.65H109L144,3.58h28l36.66,103.07h-23.5l-8.53-23.79Zm32.91-18.25c-7.33-21.84-12-35.75-14.51-45h-.15c-2.54,10.18-7.63,26.33-13.46,45Z"/><path class="cls-1" d="M221.81,106.65V3.58h27.68c12.86,23,36.65,64.92,41.44,76.14h.29C290,69,290,51,290,34V3.58h20.19V106.65H284c-11.07-20.2-37.4-68.07-42.63-80h-.3c.75,9,1,30.22,1,48.62v31.42Z"/><path class="cls-1" d="M405.82,62.22H356.45V88.4h51.46v18.25H334.76V3.58h73.15V21.83H356.45v22h49.37Z"/><path class="cls-1" d="M443.66,76.43c2.4,10.32,9.73,15,21.7,15S482.41,86.6,482.41,79c0-8.52-4.94-12.11-22.59-16.15-28.12-6.59-35-16.91-35-30.82,0-18,13.46-30.07,37.84-30.07C490,2,501,16.74,502.46,31.85H480c-1.2-6.43-4.64-13.31-18-13.31-9.12,0-14.51,3.74-14.51,11.07s4.34,10.17,21.1,13.91c29.92,7.18,36.5,18.25,36.5,32.91,0,18.7-14.21,31.71-41.44,31.71-26.18,0-40.09-12.86-42.49-31.71Z"/><path class="cls-1" d="M596.25,73.59c0,23.78-7.78,34.55-30.36,34.55-3.74,0-10.33-.29-13.92-1.34V89.15a93.61,93.61,0,0,0,10.18.59C572.32,89.74,574,82.86,574,75V3.58h22.29Z"/><path class="cls-1" d="M691.1,62.22H641.73V88.4h51.35v18.25H620V3.58h73.15V21.83H641.73v22H691.1Z"/><path class="cls-1" d="M11.32,232.15V129H39c12.86,23,36.65,65,41.44,76.18h.3c-1.2-10.77-1.2-28.72-1.2-45.62V129h20.2V232.15H73.56C62.49,212,36.16,164,30.92,152h-.3c.75,9,1.05,30.22,1.05,48.62v31.41Z"/><path class="cls-1" d="M222.56,180.24c0,28.72-17.21,53.41-50.72,53.41-32.46,0-49.36-23.49-49.36-53.11,0-29.92,18.7-53,50.71-53C203.41,127.58,222.56,148.68,222.56,180.24Zm-77.05-.2c0,20.2,8.83,35.46,27.08,35.46,19.9,0,26.93-16.61,26.93-35,0-19.6-8.08-34.86-27.23-34.86C153.59,145.68,145.51,160,145.51,180Z"/><path class="cls-1" d="M267.89,232.15,231.54,129h23.93l15.26,47.57c4.79,14.36,8.23,26.63,10.62,37.25h.3c2.1-9.72,6.13-22.29,11.07-37L308.88,129h22.74l-37.4,103.07Z"/><path class="cls-1" d="M386.67,129h41c29.92,0,49.67,19.75,49.67,50.26,0,30.07-19.15,52.81-50.72,52.81H386.67ZM409,214.2h16.75c19.75,0,28.58-14.81,28.58-34.86,0-16.9-8.23-32.31-28.42-32.31H409Z"/><path class="cls-1" d="M517.57,208.37l-7.93,23.78h-22l35-103.07h28l36.65,103.07h-23.5l-8.52-23.78ZM550.48,190c-7.33-21.84-12-35.75-14.51-45h-.15c-2.54,10.17-7.63,26.33-13.46,45Z"/><path class="cls-1" d="M603.74,232.15V129h27.68c12.86,23,36.65,64.92,41.43,76.14h.3C672,194.45,672,176.5,672,159.6V129h20.19V232.15H666c-11.07-20.19-37.4-68.06-42.63-80H623c.75,9,1,30.22,1,48.62v31.41Z"/><path class="cls-2" d="M3,3.58H44c29.92,0,49.66,19.74,49.66,50.26,0,30.07-19.14,52.81-50.71,52.81H3ZM25.31,88.7H42.06c19.75,0,28.58-14.81,28.58-34.86,0-16.9-8.23-32.31-28.43-32.31H25.31Z"/><path class="cls-2" d="M130.63,82.86l-7.93,23.79h-22l35-103.07h28l36.65,103.07h-23.5l-8.52-23.79Zm32.91-18.25c-7.33-21.84-12-35.75-14.51-45h-.15c-2.55,10.18-7.63,26.33-13.47,45Z"/><path class="cls-2" d="M213.51,106.65V3.58h27.67c12.87,23,36.65,64.92,41.44,76.14h.3c-1.2-10.77-1.2-28.72-1.2-45.63V3.58h20.2V106.65H275.74c-11.07-20.2-37.4-68.07-42.64-80h-.3c.75,9,1,30.22,1,48.62v31.42Z"/><path class="cls-2" d="M397.51,62.22H348.14V88.4H402.6l-2.69,18.25H326.45V3.58h73.16V21.83H348.14v22h49.37Z"/><path class="cls-2" d="M435.36,76.43c2.39,10.32,9.72,15,21.69,15S474.11,86.6,474.11,79c0-8.52-4.94-12.11-22.59-16.15-28.13-6.59-35-16.91-35-30.82,0-17.91,13.48-30,37.84-30,27.37,0,38.3,14.66,39.79,29.77H471.71c-1.2-6.43-4.64-13.31-17.95-13.31-9.13,0-14.51,3.74-14.51,11.07s4.34,10.17,21.09,13.91c29.92,7.18,36.5,18.25,36.5,32.91,0,18.7-14.21,31.71-41.43,31.71-26.18,0-40.1-12.86-42.49-31.71Z"/><path class="cls-2" d="M588,73.59c0,23.78-7.78,34.55-30.37,34.55-3.74,0-10.32-.29-13.91-1.34V89.15a93.43,93.43,0,0,0,10.17.59c10.17,0,11.82-6.88,11.82-14.66V3.58H588Z"/><path class="cls-2" d="M682.79,62.22H633.43V88.4h54.45l-2.69,18.25H611.74V3.58h73.15V21.83H633.43v22h49.36Z"/><path class="cls-2" d="M2,232.15V129H29.68c12.86,23,36.65,65,41.43,76.18h.3c-1.19-10.77-1.19-28.72-1.19-45.62V129H90.41V232.15H64.23C53.16,212,26.83,164,21.6,152h-.3c.75,9,1.05,30.22,1.05,48.62v31.41Z"/><path class="cls-2" d="M213.23,180.24c0,28.72-17.2,53.41-50.71,53.41-32.46,0-49.37-23.49-49.37-53.11,0-29.92,18.7-53,50.71-53C194.08,127.58,213.23,148.68,213.23,180.24Zm-77-.15c0,20.2,8.83,35.46,27.08,35.46,19.89,0,26.92-16.61,26.92-35,0-19.6-8.07-34.86-27.22-34.86-18.74,0-26.82,14.39-26.82,34.39Z"/><path class="cls-2" d="M258.56,232.15,222.21,129h23.94l15.26,47.57c4.78,14.36,8.22,26.63,10.62,37.25h.3c2.09-9.72,6.13-22.29,11.07-37L299.55,129h22.74l-37.4,103.07Z"/><path class="cls-2" d="M377.35,129h41c29.91,0,49.65,19.79,49.65,50.3,0,30.07-19.15,52.81-50.71,52.81H377.35Zm22.29,85.12h16.75c19.75,0,28.57-14.81,28.57-34.86,0-16.9-8.22-32.31-28.42-32.31h-16.9Z"/><path class="cls-2" d="M508.25,208.37l-7.93,23.78h-22l35-103.07h28L578,232.15H554.47l-8.53-23.78ZM541.16,190c-7.33-21.84-12-35.75-14.51-45h-.15c-2.55,10.17-7.63,26.33-13.47,45Z"/><path class="cls-2" d="M594.42,232.15V129h27.67c12.91,23,36.65,65,41.44,76.18h.3c-1.2-10.77-1.2-28.72-1.2-45.62V129h20.2V232.15H656.65C645.58,212,619.25,164,614,152h-.3c.75,9,1,30.22,1,48.62v31.41Z"/></g></g></g></svg>