<svg height='100px' width='100px'  fill="#000000" xmlns:dc="http://purl.org/dc/elements/1.1/" xmlns:cc="http://creativecommons.org/ns#" xmlns:rdf="http://www.w3.org/1999/02/22-rdf-syntax-ns#" xmlns:svg="http://www.w3.org/2000/svg" xmlns="http://www.w3.org/2000/svg" xmlns:sodipodi="http://sodipodi.sourceforge.net/DTD/sodipodi-0.dtd" xmlns:inkscape="http://www.inkscape.org/namespaces/inkscape" version="1.1" x="0px" y="0px" viewBox="0 0 100 100"><g transform="translate(0,-952.36218)"><path style="text-indent:0;text-transform:none;direction:ltr;block-progression:tb;baseline-shift:baseline;color:#000000;enable-background:accumulate;" d="m 20,958.36223 c -1.1861,0.0107 -1.9754,1.09908 -2,2 l 0,83.99997 c 10e-5,1.0472 0.9528,1.9999 2,2 l 60,0 c 1.0471,-10e-5 1.9999,-0.9528 2,-2 l 0,-69.99997 c 0,-0.53246 -0.2151,-1.06311 -0.5938,-1.4375 l -14,-14 C 67.0341,958.56474 66.5177,958.3582 66,958.36223 l -46,0 z m 2,4 42,0 0,12 a 2.0002002,2.0002002 0 0 0 2,2 l 12,0 0,65.99997 -56,0 0,-79.99997 z m 46,2.8125 7.1875,7.1875 -7.1875,0 0,-7.1875 z m -18,26.1875 c -9.9175,0 -18,8.0826 -18,17.99997 0,9.9175 8.0825,18 18,18 9.9174,0 18,-8.0825 18,-18 0,-9.91737 -8.0826,-17.99997 -18,-17.99997 z m 0,4 c 3.119,0 5.9902,1.00685 8.3125,2.71875 L 38.7188,1017.6747 C 37.0068,1015.3524 36,1012.4812 36,1009.3622 c 0,-7.7557 6.2443,-13.99997 14,-13.99997 z m 11.2812,5.68747 c 1.712,2.3223 2.7188,5.1935 2.7188,8.3125 0,7.7557 -6.2443,14 -14,14 -3.119,0 -5.9902,-1.0067 -8.3125,-2.7187 l 19.5937,-19.5938 z" fill="#000000" fill-opacity="1" stroke="none" marker="none" visibility="visible" display="inline" overflow="visible"></path></g></svg>