<svg height='100px' width='100px'  fill="#000000" xmlns="http://www.w3.org/2000/svg" xmlns:xlink="http://www.w3.org/1999/xlink" version="1.1" x="0px" y="0px" viewBox="0 0 91 91" enable-background="new 0 0 91 91" xml:space="preserve"><g><path d="M60.29,20.44h2.342c3.245,0,5.887-2.638,5.887-5.885V5.941c0-3.243-2.642-5.884-5.887-5.884H39.825   c-3.246,0-5.886,2.641-5.886,5.884v8.614c0,3.247,2.641,5.885,5.886,5.885h10.852l5.36,4.879c0.321,0.296,0.729,0.439,1.133,0.439   c0.455,0,0.911-0.184,1.241-0.55c0.626-0.686,0.576-1.748-0.111-2.374l-5.841-5.319c-0.308-0.281-0.713-0.437-1.13-0.437H39.825   c-1.393,0-2.525-1.132-2.525-2.524V5.941c0-1.391,1.132-2.521,2.525-2.521h22.807c1.391,0,2.523,1.131,2.523,2.521v8.614   c0,1.392-1.133,2.524-2.523,2.524H60.29c-0.929,0-1.681,0.751-1.681,1.681C58.609,19.689,59.361,20.44,60.29,20.44z"></path><path d="M61.324,10.435c0-0.929-0.751-1.68-1.681-1.68h-1.68c-0.93,0-1.682,0.751-1.682,1.68c0,0.93,0.752,1.681,1.682,1.681h1.68   C60.573,12.116,61.324,11.365,61.324,10.435z"></path><path d="M50.209,8.755c-0.929,0-1.682,0.751-1.682,1.68c0,0.93,0.753,1.681,1.682,1.681h2.586c0.927,0,1.681-0.75,1.681-1.681   c0-0.929-0.754-1.68-1.681-1.68H50.209z"></path><path d="M43.356,8.755c-0.927,0-1.68,0.751-1.68,1.68c0,0.93,0.753,1.681,1.68,1.681h1.683c0.928,0,1.681-0.75,1.681-1.681   c0-0.929-0.753-1.68-1.681-1.68H43.356z"></path><path d="M53.657,34.152c0-0.929-0.752-1.68-1.681-1.68H40.211c-0.929,0-1.681,0.751-1.681,1.68c0,0.93,0.751,1.681,1.681,1.681   h11.766C52.905,35.833,53.657,35.082,53.657,34.152z"></path><path d="M40.211,39.196c-0.929,0-1.681,0.75-1.681,1.681c0,0.929,0.751,1.68,1.681,1.68h5.042c0.93,0,1.682-0.751,1.682-1.68   c0-0.93-0.752-1.681-1.682-1.681H40.211z"></path><path d="M5.718,13.458c-0.753,0.54-0.928,1.591-0.386,2.345l3.015,4.203c0.328,0.458,0.843,0.702,1.368,0.702   c0.337,0,0.682-0.103,0.977-0.316c0.756-0.54,0.928-1.59,0.386-2.345l-3.012-4.202C7.523,13.091,6.474,12.914,5.718,13.458z"></path><path d="M13.318,10.62v6.725c0,0.929,0.75,1.681,1.681,1.681c0.929,0,1.68-0.751,1.68-1.681V10.62c0-0.927-0.751-1.68-1.68-1.68   C14.068,8.94,13.318,9.693,13.318,10.62z"></path><path d="M24.849,20.506c0.252,0.135,0.525,0.201,0.794,0.201c0.599,0,1.177-0.321,1.481-0.887l2.259-4.202   c0.439-0.817,0.134-1.836-0.685-2.276c-0.813-0.441-1.836-0.133-2.276,0.683l-2.259,4.202   C23.725,19.047,24.03,20.067,24.849,20.506z"></path><circle cx="68.609" cy="37.69" r="1.89"></circle><circle cx="25.011" cy="37.69" r="1.89"></circle><path d="M4.854,74.526L1.602,87.533c-0.226,0.9,0.322,1.812,1.223,2.037c0.135,0.034,0.275,0.052,0.408,0.052   c0.753,0,1.438-0.51,1.629-1.274L7.95,75.989c0.215,0.051,0.406,0.125,0.636,0.164c0.088,0.014,13.136,0.021,13.136,0.021   l0.008,10.76c0.131,1.369,1.338,3.952,4.947,3.952c3.315,0,4.774-2.436,5.083-3.722c0.033-0.13,0.047-12.528,0.047-12.528   c0.277-1.767-0.021-4.57-1.963-6.866h29.353c-1.965,2.288-2.371,5.08-2.176,6.825v12.177c0,0.132,0.014,0.263,0.045,0.393   c0.309,1.286,1.768,3.722,5.084,3.722c3.609,0,4.813-2.583,4.955-4.114V76.174c0,0,11.989-0.027,12.127-0.035l3.053,12.209   c0.188,0.765,0.874,1.274,1.628,1.274c0.135,0,0.272-0.018,0.407-0.052c0.903-0.226,1.45-1.137,1.223-2.037l-2.84-11.359   c0,0,1.313-0.011,1.421-0.033c4.006-0.796,5.195-4.637,5.259-6.489l1.463-19.404c0.069-0.926-0.624-1.733-1.552-1.802   c-0.9-0.063-1.731,0.624-1.801,1.55l-1.466,19.472c-0.002,0.024-0.137,2.47-2.086,3.215c0.586-1.435,0.621-2.794,0.619-3.002   l0.017-13.123c0-0.106-0.011-0.217-0.031-0.32c-0.036-0.202-0.849-4.208-3.511-7.022c3.466-2.516,5.617-6.551,5.617-10.943   c0-7.468-6.074-13.542-13.544-13.542c-7.469,0-13.543,6.074-13.543,13.542c0,5.523,3.341,10.411,8.312,12.489l-1.48,6.925h-9.613   c-0.372,0-0.732,0.123-1.028,0.349c-0.233,0.182-2.286,1.85-2.286,4.695c0,0.623,0.089,1.176,0.223,1.68h-16.42   c0.14-0.506,0.228-1.063,0.228-1.68c0-2.801-1.601-4.372-2.544-4.858c-0.238-0.122-0.502-0.186-0.769-0.186h-7.883l-1.176-6.678   c5.312-1.919,8.929-6.987,8.929-12.736c0-7.468-6.075-13.542-13.544-13.542c-7.468,0-13.546,6.074-13.546,13.542   c0,3.824,1.633,7.375,4.337,9.898c-2.811,3.048-3.21,8.038-3.231,8.388l0.017,13.115c-0.002,0.216,0.035,1.61,0.641,3.064   c-2.856-0.674-3.303-3.13-3.338-3.371L3.549,49.962c-0.089-0.924-0.905-1.63-1.833-1.515c-0.923,0.089-1.603,0.909-1.514,1.832   l1.847,19.441C2.197,70.977,2.995,73.045,4.854,74.526z M57.475,61.046h10.281c0.791,0,1.477-0.554,1.643-1.33l1.876-8.773   c0.213-0.205,0.387-0.457,0.468-0.766c0.234-0.899-0.307-1.815-1.205-2.05c-1.791-0.463-3.351-1.406-4.599-2.646   c1.101-0.09,2.273-0.448,3.443-1.287c0.754-0.542,0.928-1.59,0.387-2.346c-0.543-0.755-1.593-0.927-2.349-0.385   c-1.783,1.28-3.401,0.484-3.933,0.147c-0.257-0.736-0.394-1.516-0.476-2.312c0.563-0.327,0.962-0.911,0.962-1.609   c0-0.638-0.341-1.176-0.83-1.519c0.974-4.608,5.07-8.082,9.964-8.082c5.614,0,10.184,4.568,10.184,10.181   c0,4.021-2.374,7.675-6.049,9.309c-0.85,0.378-1.228,1.37-0.854,2.221c0.245,0.549,0.756,0.873,1.308,0.954   c2.396,1.688,3.344,5.235,3.519,5.981l-0.017,12.946c0.002,0.357-0.15,1.839-0.91,2.604c-0.227,0.226-0.622,0.527-1.461,0.527   H65.424c-0.93,0-1.68,0.751-1.68,1.681l0.008,12.116c-0.011,0.092-0.132,0.913-1.603,0.913c-1.192,0-1.627-0.673-1.769-1.014   c0,0-0.004-12.156-0.012-12.218c-0.061-0.521-0.401-5.066,5.213-6.521h7.28c0.656,0,1.253-0.384,1.526-0.981l3.159-6.901   c0.386-0.844,0.017-1.843-0.828-2.229c-0.85-0.388-1.843-0.015-2.227,0.828l-2.71,5.922H57.352   c-0.223-0.261-0.522-0.773-0.522-1.68C56.829,61.989,57.192,61.396,57.475,61.046z M10.328,38.271   c0-5.613,4.567-10.181,10.183-10.181c4.894,0,8.992,3.474,9.962,8.082c-0.487,0.343-0.827,0.88-0.827,1.519   c0,0.698,0.398,1.282,0.962,1.609c-0.082,0.793-0.219,1.573-0.476,2.31c-0.482,0.306-2.124,1.151-3.936-0.145   c-0.753-0.542-1.803-0.37-2.345,0.385c-0.542,0.756-0.368,1.804,0.386,2.346c1.169,0.839,2.343,1.196,3.442,1.287   c-1.231,1.227-2.768,2.155-4.53,2.624c-0.082,0.002-0.162-0.019-0.245-0.004c-0.913,0.16-1.524,1.032-1.362,1.946l1.695,9.611   c0.142,0.803,0.839,1.388,1.654,1.388h8.714c0.229,0.259,0.531,0.771,0.531,1.683c0,0.876-0.315,1.408-0.547,1.68h-6.827h-5.899   l-2.71-5.922c-0.386-0.843-1.381-1.216-2.227-0.828c-0.845,0.386-1.214,1.385-0.829,2.229l3.159,6.901   c0.273,0.598,0.871,0.981,1.527,0.981h3.662c5.669,1.467,5.109,5.923,5.025,6.42c-0.019,0.102-0.028,12.312-0.028,12.312   c-0.152,0.365-0.591,1.021-1.767,1.021c-1.188,0-1.512-0.529-1.594-0.893V74.493c0-0.93-0.751-1.681-1.68-1.681H13.82   c-2.232,0-2.366-2.616-2.372-3.137l-0.021-13.001c0.097-1.316,0.774-4.83,2.669-6.512c0.304,0.163,0.595,0.349,0.914,0.489   c0.851,0.381,1.845-0.006,2.22-0.853c0.375-0.851-0.006-1.843-0.854-2.221C12.702,45.946,10.328,42.292,10.328,38.271z"></path></g></svg>