<svg height='100px' width='100px'  fill="#ffffff" xmlns="http://www.w3.org/2000/svg" viewBox="0 0 48 48" x="0px" y="0px"><title>04-vote</title><g data-name="04-vote"><path d="M26,36H24V25a3,3,0,0,1,6,0v8H28V25a1,1,0,0,0-2,0Z"></path><path d="M34,33H32V23a1,1,0,0,0-2,0V33H28V23a3,3,0,0,1,6,0Z"></path><path d="M38,33H36V25a1,1,0,0,0-2,0v8H32V25a3,3,0,0,1,6,0Z"></path><path d="M28,47H26V44.41l-4.71-4.71A1,1,0,0,1,21,39V34a3.89,3.89,0,0,1,4-4v2a1.88,1.88,0,0,0-2,2v4.59l4.71,4.71A1,1,0,0,1,28,44Z"></path><path d="M40,47H38V44a1,1,0,0,1,.29-.71L40,41.59V26a1,1,0,0,0-2,0v7H36V26a3,3,0,0,1,6,0V42a1,1,0,0,1-.29.71L40,44.41Z"></path><path d="M19,18H17V5a1,1,0,0,0-2,0V15H13V5a3,3,0,0,1,6,0Z"></path><path d="M15,15H13V3a1,1,0,0,0-2,0V15H9V3a3,3,0,0,1,6,0Z"></path><path d="M11,15H9V5A1,1,0,0,0,7,5V15H5V5a3,3,0,0,1,6,0Z"></path><path d="M16.71,26.71l-1.41-1.41L20,20.59V16a1.88,1.88,0,0,0-2-2V12a3.89,3.89,0,0,1,4,4v5a1,1,0,0,1-.29.71Z"></path><path d="M3.29,26.71l-2-2A1,1,0,0,1,1,24V6A3,3,0,0,1,7,6v9H5V6A1,1,0,0,0,3,6V23.59l1.71,1.71Z"></path><path d="M18,33H2a1,1,0,0,1-1-1V26a1,1,0,0,1,1-1H18a1,1,0,0,1,1,1v6A1,1,0,0,1,18,33ZM3,31H17V27H3Z"></path><rect x="2" y="32" width="2" height="15"></rect><rect x="16" y="32" width="2" height="15"></rect><path d="M39,22a1,1,0,0,1-1-1V18H24a1,1,0,0,1-1-1V1a1,1,0,0,1,1-1H46a1,1,0,0,1,1,1V17a1,1,0,0,1-1,1H43.41l-3.71,3.71A1,1,0,0,1,39,22ZM25,16H39a1,1,0,0,1,1,1v1.59l2.29-2.29A1,1,0,0,1,43,16h2V2H25Z"></path><path d="M33,13a1,1,0,0,1-.71-.29l-2-2,1.41-1.41L33,10.59l5.29-5.29,1.41,1.41-6,6A1,1,0,0,1,33,13Z"></path></g></svg>