<svg xmlns="http://www.w3.org/2000/svg" viewBox="0 0 1011.59 920.09"><defs><style>.cls-1{fill:#7882c0;}.cls-2{fill:#efcb34;}.cls-3{fill:#fff;}.cls-4{fill:#e6e6e5;}.cls-5{fill:#f0cb35;}.cls-6,.cls-8{fill:#010101;isolation:isolate;}.cls-6{opacity:0.2;}.cls-7{fill:#585b8a;}.cls-8{opacity:0.1;}.cls-9{fill:#302e41;}.cls-10{fill:#f9b7b9;}</style></defs><g id="Layer_2" data-name="Layer 2"><g id="Layer_1-2" data-name="Layer 1"><rect class="cls-1" x="115.82" width="895.77" height="920.09"/><rect class="cls-2" y="123.17" width="907.05" height="699.17"/><rect class="cls-3" x="55.09" y="63.35" width="794.91" height="807.17"/><polygon class="cls-4" points="792.12 754.22 420.52 676.8 420.52 315.88 792.12 121.94 792.12 754.22"/><polygon class="cls-5" points="791.22 159.84 419.62 337.7 419.62 316.78 791.22 123.17 791.22 159.84"/><path class="cls-4" d="M436.76,319.49c0,4.81-1.62,9.5-3.61,10.45s-3.56-2.13-3.56-6.88,1.59-9.41,3.56-10.42S436.76,314.68,436.76,319.49Z"/><path class="cls-4" d="M451.19,312.29c0,4.68-1.62,9.25-3.61,10.2s-3.56-2-3.56-6.66,1.59-9.17,3.56-10.17S451.19,307.61,451.19,312.29Z"/><path class="cls-4" d="M465.62,305.07c0,4.68-1.62,9.25-3.61,10.2s-3.56-2-3.56-6.65,1.59-9.17,3.56-10.18S465.62,300.39,465.62,305.07Z"/><polygon class="cls-6" points="695.65 403.4 466.56 455.81 466.56 388.97 695.65 307.98 695.65 403.4"/><polygon class="cls-3" points="691.1 398.86 462.01 451.27 462.01 384.42 691.1 303.43 691.1 398.86"/><path class="cls-6" d="M504.43,409.79c0,10.77-4.08,20.54-9,21.81s-8.75-6.22-8.75-16.66,3.88-20.15,8.75-21.73S504.43,399,504.43,409.79Z"/><path class="cls-5" d="M501.7,407.06c0,10.77-4.08,20.55-9,21.81s-8.74-6.22-8.74-16.66,3.88-20.15,8.74-21.72S501.7,396.3,501.7,407.06Z"/><polygon class="cls-4" points="636.09 368.87 526.05 400.64 526.05 389.4 636.09 355.56 636.09 368.87"/><polygon class="cls-4" points="610.83 401.04 545.89 417.43 545.89 405.81 610.83 388.2 610.83 401.04"/><polygon class="cls-6" points="695.66 642.41 466.56 623.21 466.56 489.08 695.66 450.84 695.66 642.41"/><polygon class="cls-3" points="690.2 637.87 461.11 618.66 461.11 484.54 690.2 446.29 690.2 637.87"/><polygon class="cls-6" points="499.01 522.43 488.28 523.43 488.28 511.71 499.01 510.49 499.01 522.43"/><polygon class="cls-5" points="497.19 520.62 486.47 521.62 486.47 509.89 497.19 508.67 497.19 520.62"/><polygon class="cls-4" points="636.09 507.4 508.01 519.38 508.01 508.48 636.09 494.09 636.09 507.4"/><polygon class="cls-4" points="636.09 550.86 508.01 555 508.01 544.09 636.09 537.55 636.09 550.86"/><polygon class="cls-4" points="636.09 595.41 508.01 591.52 508.01 580.61 636.09 582.1 636.09 595.41"/><polygon class="cls-7" points="229.87 451.19 205.35 451.19 205.35 439.19 225.86 439.19 230.37 441.69 229.87 451.19"/><path class="cls-7" d="M112.81,595.76s-5.5,7-4.5,7.5,23,5.5,35,2.5,37-2.5,38.51-6,20-47,20-47l-6-33-6.5-8.5-15-13-30,56Z"/><path class="cls-8" d="M112.81,595.76s-5.5,7-4.5,7.5,23,5.5,35,2.5,37-2.5,38.51-6,20-47,20-47l-6-33-6.5-8.5-15-13-30,56Z"/><path class="cls-9" d="M176.34,583.75s-7,25,0,59.53.5,42,2,43.52,2,1,2,2.5,1.5,8.5,0,11-1.5,82,3,84,17.51,7,20,0,.5-57.52,1.5-60,1-8.51,1-10,3-18.51,3.5-23,2-13.5,2-13.5-1-35.52,2-46,4-11.5,4-11.5l24,62.53s-2,6.5,0,8.5-.5,1.5,1.5,5,4,4.51,4,6.51-2,2-1,3.5,2.51,7,2.51,7l-2.51,6s1.5,12.51,3.51,20,2,38,4.5,38.52,22,6,22-5.5-1.5-61.53-1.5-61.53-3-7.5-3-9.5-.5-3,.5-4,2-3,.5-4.5-1-3.5-1-5.5a44.88,44.88,0,0,0-1-8c-.5-2-10-64.53-10-64.53s2-7.51,0-8-2-4.5-2-6.5,5-27-1-27S176.34,583.75,176.34,583.75Z"/><path class="cls-10" d="M110.31,553.74l-7,3.5s-25,13.51-14,21,22-10.51,22-10.51l10.51-8Z"/><path class="cls-10" d="M207.86,416.67s-2,23-12.51,28-3.5,42.52-3.5,42.52l14.51,14,25.51-7.5,3-17,2.5-17.51-6-9s-7.51-2-4.5-22S207.86,416.67,207.86,416.67Z"/><path class="cls-5" d="M192.85,452.69s11.5,38,19.51,38,12.5-9,13.5-20,7.51-23,7.51-23l15.51,14s12.5,110.55,11.5,113.55-40,6.5-55.53,11-31,1-31-1.5c0-2.23,7.94-21.51,1.9-35.6a58.36,58.36,0,0,1-4.43-15.76c-.94-7.41-1.81-16.39-1-19.17,1.5-5,9.5-58,9.5-58Z"/><path class="cls-7" d="M201.32,438.89s-9,4.8-13,6.8-28.52,8-29,11,3.51,45,1.5,49.53-22,44.52-22,44.52l-1,8.5s-33,39.52-29,44,19-14,19-14,33.51-53.52,34.52-55.52,21.51-39,24.51-40,10-43,11-45S202.79,438.09,201.32,438.89Z"/><path class="cls-7" d="M161.83,456.19h-3s-11,42-14,47.52-3.5,14.51-4,16-2.51,1-3,4.5-5.5,8-9.5,10-22,19-21.51,19.51,6,18,9.5,18,17.51-17,19-17,8-6,9-6.5,26.51-47.53,25.51-59S161.83,456.19,161.83,456.19Z"/><path class="cls-10" d="M286.65,585.79l6.16,4.83s21.81,18.24,9.52,23.39-19.46-14.7-19.46-14.7l-8.69-9.94Z"/><path class="cls-7" d="M226.25,439.48s6.62,3.21,9.62,5.71,26,9,26,11-2.5,33-2.5,33l3.5,55s5,62,6,63.53,2.51,9.51,0,9.51-15-14-14.5-21,4-23,.5-27-20-71-20-75-7-44-6.5-45S226.25,439.48,226.25,439.48Z"/><path class="cls-7" d="M254.38,455.69l7.5.5,18.51,75.54s1.5,9.5,2,10.5,8,44.52,5,46-13,7-13.5,3.51-5.51-23-10.51-27.52-10-82-10-82Z"/><circle class="cls-10" cx="224.36" cy="409.67" r="20.51"/><path class="cls-9" d="M210.05,411.17c1.31-.67,3,0,4.23,1.42a20,20,0,0,1,29.09-13.53V397a17.31,17.31,0,0,0-17.32-17.32h-4.16a32.54,32.54,0,0,0-32.54,32.54h0V418a29.18,29.18,0,0,0,16,26l18.73-9.92a20,20,0,0,1-10-14.87c-1.59.69-3.71-.43-4.81-2.58S208.45,412,210.05,411.17Z"/></g></g></svg>