<svg xmlns="http://www.w3.org/2000/svg" viewBox="0 0 1004.24 920.09"><defs><style>.cls-1{fill:#efcb34;}.cls-2{fill:#7882c0;}.cls-3{fill:#fff;}.cls-4{fill:#e6e6e5;}.cls-5{fill:#403e56;}.cls-6{fill:#f0cb35;}.cls-7{fill:#302e41;}</style></defs><g id="Layer_2" data-name="Layer 2"><g id="Layer_1-2" data-name="Layer 1"><rect class="cls-1" x="108.47" width="895.77" height="920.09"/><rect class="cls-2" x="69.26" y="207.08" width="813.75" height="713.01"/><rect class="cls-3" y="118.92" width="769.71" height="707.07"/><ellipse class="cls-4" cx="634.26" cy="741.08" rx="70" ry="5.34"/><ellipse class="cls-4" cx="293.26" cy="741.08" rx="70" ry="5.34"/><path class="cls-4" d="M603.76,676.08h-476a7.51,7.51,0,0,1-7.5-7.5v-457a7.52,7.52,0,0,1,7.5-7.5h476a7.5,7.5,0,0,1,7.5,7.5v457A7.5,7.5,0,0,1,603.76,676.08Zm-476-469a4.52,4.52,0,0,0-4.5,4.5v457a4.51,4.51,0,0,0,4.5,4.5h476a4.49,4.49,0,0,0,4.5-4.5v-457a4.51,4.51,0,0,0-4.5-4.5Z"/><path class="cls-4" d="M155.26,244.08a3,3,0,0,0-3,3v124a3,3,0,0,0,3,3h124a3,3,0,0,0,3-3v-124a3,3,0,0,0-3-3Z"/><path id="b9d15c13-74bb-46fd-a6fd-5a7002be597d" class="cls-4" d="M350.3,333.83a3.63,3.63,0,0,0,0,7.25H521.18a3.63,3.63,0,1,0,.14-7.25h-171Z"/><path id="fb98932a-aea9-43a1-946e-96a095a0002f" class="cls-4" d="M350.3,300.83a3.63,3.63,0,0,0,0,7.25h48.88a3.63,3.63,0,1,0,.14-7.25h-49Z"/><path id="a8382d7c-76a2-4f66-b41d-b5784413a475" class="cls-4" d="M350.3,367.83a3.63,3.63,0,0,0,0,7.25H521.18a3.63,3.63,0,0,0,.12-7.25h-171Z"/><path id="a69b3c31-ebec-4776-89b9-9c88b713759e" class="cls-4" d="M553.57,498.8H318.74c-4.58,0-8.29-2.65-8.3-5.9v-51c0-3.25,3.72-5.9,8.3-5.9H553.57c4.58,0,8.29,2.65,8.3,5.9v51C561.86,496.15,558.15,498.79,553.57,498.8Z"/><path id="ac481be8-039b-4a38-bb10-2d9a81406e5c" class="cls-4" d="M394.57,622.8H159.74c-4.58,0-8.29-2.65-8.3-5.9v-51c0-3.25,3.72-5.9,8.3-5.9H394.57c4.58,0,8.29,2.65,8.3,5.9v51C402.86,620.15,399.15,622.79,394.57,622.8Z"/><path id="e05581d0-cd6a-412e-af3c-57495fab8d46" class="cls-5" d="M323.73,650.91H88.89c-4.57,0-8.28-2.64-8.29-5.9V594c0-3.26,3.72-5.9,8.29-5.9H323.73c4.58,0,8.29,2.64,8.29,5.9v51C332,648.27,328.31,650.91,323.73,650.91ZM88.89,590.43c-2.74,0-5,1.59-5,3.54v51c0,2,2.23,3.54,5,3.54H323.73c2.75,0,5-1.59,5-3.54V594c0-2-2.23-3.54-5-3.54Z"/><circle class="cls-6" cx="408.26" cy="492.08" r="19"/><circle class="cls-6" cx="123.26" cy="619.08" r="19"/><path id="f4993879-8a0d-4ea4-907e-e549be7081a0" class="cls-5" d="M449.3,478.46a3.63,3.63,0,0,0,0,7.25H585.18a3.63,3.63,0,0,0,.12-7.25h-136Z"/><path id="a649136c-96b9-48c7-9686-75389104c34a" class="cls-5" d="M449.3,498.46a3.63,3.63,0,0,0,0,7.25H585.18a3.63,3.63,0,0,0,.12-7.25h-136Z"/><path id="bf4cb793-0df2-4753-9628-c376ea3545d1" class="cls-5" d="M164.3,605.46a3.63,3.63,0,0,0,0,7.25H300.18a3.63,3.63,0,1,0,.12-7.25h-136Z"/><path id="bf2170fd-291c-4664-b596-01f8e04656d6" class="cls-5" d="M164.3,625.46a3.63,3.63,0,0,0,0,7.25H300.18a3.63,3.63,0,1,0,.12-7.25h-136Z"/><circle class="cls-7" cx="636.24" cy="680.01" r="43.07"/><rect class="cls-7" x="642.78" y="713.81" width="13.08" height="23.44"/><rect class="cls-7" x="616.61" y="713.81" width="13.08" height="23.44"/><ellipse class="cls-7" cx="644.96" cy="737.53" rx="10.9" ry="4.09"/><ellipse class="cls-7" cx="618.79" cy="736.98" rx="10.9" ry="4.09"/><circle class="cls-3" cx="635.15" cy="669.11" r="14.72"/><circle class="cls-5" cx="635.15" cy="669.11" r="4.91"/><path class="cls-4" d="M678,640c3.48-15.57-7.63-31.31-24.82-35.15s-34,5.68-37.43,21.25,7.92,21.32,25.11,25.16S674.54,655.54,678,640Z"/><path class="cls-7" d="M177.57,394a42.61,42.61,0,0,1-4.43,19c-.33.68-.68,1.34-1,2H96.92c-.37-.66-.72-1.32-1-2a43.07,43.07,0,1,1,81.7-19Z"/><circle class="cls-3" cx="135.6" cy="383.14" r="14.72"/><circle class="cls-5" cx="135.6" cy="383.14" r="4.91"/><path class="cls-6" d="M92.73,354c-3.47-15.58,7.64-31.31,24.83-35.15s33.95,5.67,37.42,21.25-7.91,21.31-25.1,25.15S96.21,369.56,92.73,354Z"/><path class="cls-5" d="M196.26,281.08h-124a5,5,0,0,0-5,5v124a5,5,0,0,0,5,5h124a5,5,0,0,0,5-5v-124A5,5,0,0,0,196.26,281.08Zm3,129a3,3,0,0,1-3,3h-124a3,3,0,0,1-3-3v-124a3,3,0,0,1,3-3h124a3,3,0,0,1,3,3Z"/><ellipse class="cls-7" cx="326.06" cy="647.49" rx="21.53" ry="6.76" transform="translate(-395.17 720.89) rotate(-69.08)"/><circle class="cls-7" cx="286.25" cy="680.01" r="43.07" transform="translate(-430.84 853.64) rotate(-80.78)"/><rect class="cls-7" x="266.62" y="713.81" width="13.08" height="23.44"/><rect class="cls-7" x="292.79" y="713.81" width="13.08" height="23.44"/><ellipse class="cls-7" cx="277.53" cy="737.53" rx="10.9" ry="4.09"/><ellipse class="cls-7" cx="303.69" cy="736.98" rx="10.9" ry="4.09"/><path class="cls-6" d="M244.47,640c-3.48-15.57,7.64-31.31,24.83-35.15s33.94,5.68,37.42,21.25-7.91,21.32-25.1,25.16S248,655.54,244.47,640Z"/><ellipse class="cls-7" cx="237.74" cy="660.03" rx="6.76" ry="21.53" transform="translate(-460.49 591.99) rotate(-64.63)"/><circle class="cls-7" cx="649.23" cy="548.73" r="42.01"/><rect class="cls-7" x="655.82" y="581.64" width="12.76" height="22.87" transform="translate(-2.75 3.08) rotate(-0.27)"/><rect class="cls-7" x="630.29" y="581.76" width="12.76" height="22.87" transform="translate(-2.75 2.97) rotate(-0.27)"/><ellipse class="cls-7" cx="634.08" cy="607.03" rx="10.64" ry="3.99" transform="translate(-219.52 402.33) rotate(-30.27)"/><ellipse class="cls-7" cx="659.08" cy="606.91" rx="10.64" ry="3.99" transform="translate(-216.06 414.91) rotate(-30.27)"/><circle class="cls-3" cx="648.12" cy="538.09" r="14.36"/><circle class="cls-5" cx="643.2" cy="532" r="4.79"/><path class="cls-6" d="M689.8,509.47c3.33-15.21-7.59-30.51-24.38-34.18S632.34,481,629,496.19s7.81,20.76,24.6,24.43S686.48,524.67,689.8,509.47Z"/><ellipse class="cls-7" cx="605.36" cy="527.46" rx="6.59" ry="21.01" transform="matrix(0.39, -0.92, 0.92, 0.39, -116.12, 879.8)"/><ellipse class="cls-7" cx="691.19" cy="562.27" rx="6.59" ry="21.01" transform="translate(-95.76 980.13) rotate(-67.1)"/><path class="cls-3" d="M657.72,567a9.57,9.57,0,1,1-19.14.14v0c0-5.28,4.25-6.4,9.54-6.42S657.7,561.75,657.72,567Z"/><path id="acccf4df-3a09-4c7b-a8c8-af469fe66e6d" class="cls-5" d="M614.67,523.75H379.83c-4.58,0-8.29-2.64-8.29-5.9v-51c0-3.26,3.71-5.9,8.29-5.9H614.67c4.58,0,8.29,2.64,8.29,5.9v51C623,521.1,619.25,523.74,614.67,523.75ZM379.83,463.26c-2.75,0-5,1.59-5,3.54v51.05c0,1.95,2.23,3.53,5,3.54H614.67c2.75,0,5-1.59,5-3.54v-51c0-2-2.22-3.54-5-3.54Z"/></g></g></svg>