<svg xmlns="http://www.w3.org/2000/svg" viewBox="0 0 1115.24 877.45"><defs><style>.cls-1{fill:#7882c0;}.cls-2{fill:#efcb34;}.cls-3{fill:#fff;}.cls-4{fill:#e6e6e5;}.cls-5{fill:#f0cb35;}.cls-6{fill:#403e56;}</style></defs><g id="Layer_2" data-name="Layer 2"><g id="Layer_1-2" data-name="Layer 1"><rect class="cls-1" x="148.67" y="153.9" width="966.57" height="723.56"/><rect class="cls-2" width="970.28" height="718.2"/><rect class="cls-3" x="72.31" y="71.11" width="968.02" height="734.7"/><circle class="cls-4" cx="171.47" cy="248.89" r="13.63"/><circle class="cls-4" cx="212.36" cy="248.89" r="13.63"/><circle class="cls-4" cx="253.25" cy="248.89" r="13.63"/><circle class="cls-4" cx="294.14" cy="248.89" r="13.63"/><circle class="cls-4" cx="335.03" cy="248.89" r="13.63"/><circle class="cls-4" cx="375.92" cy="248.89" r="13.63"/><circle class="cls-4" cx="416.82" cy="248.89" r="13.63"/><path class="cls-4" d="M448.31,265.49H140a5.55,5.55,0,0,1-5.55-5.54V237.84A5.55,5.55,0,0,1,140,232.3H448.31a5.54,5.54,0,0,1,5.55,5.54V260A5.54,5.54,0,0,1,448.31,265.49ZM140,234.51a3.34,3.34,0,0,0-3.33,3.33V260a3.33,3.33,0,0,0,3.33,3.32H448.31a3.33,3.33,0,0,0,3.33-3.32V237.84a3.34,3.34,0,0,0-3.33-3.33Z"/><path class="cls-4" d="M206,141.35a3.19,3.19,0,0,1,3.18,3.19V213.6a3.18,3.18,0,0,1-3.18,3.19H138.3a3.18,3.18,0,0,1-3.18-3.19V144.54a3.19,3.19,0,0,1,3.18-3.19H206m0-3.18H138.3a6.37,6.37,0,0,0-6.37,6.37V213.6A6.38,6.38,0,0,0,138.3,220H206a6.38,6.38,0,0,0,6.37-6.38V144.54a6.37,6.37,0,0,0-6.37-6.37Z"/><path class="cls-5" d="M195.4,159.51H150.27a1.6,1.6,0,1,1,0-3.19H195.4a1.6,1.6,0,1,1,0,3.19Z"/><path class="cls-5" d="M195.4,170.79H150.27a1.59,1.59,0,1,1,0-3.18H195.4a1.59,1.59,0,1,1,0,3.18Z"/><path class="cls-5" d="M195.4,182.08H150.27a1.6,1.6,0,1,1,0-3.19H195.4a1.6,1.6,0,1,1,0,3.19Z"/><path class="cls-5" d="M195.4,193.36H150.27a1.6,1.6,0,1,1,0-3.19H195.4a1.6,1.6,0,1,1,0,3.19Z"/><path class="cls-5" d="M195.4,204.65H150.27a1.6,1.6,0,0,1-1.6-1.6,1.59,1.59,0,0,1,1.59-1.59H195.4a1.6,1.6,0,0,1,1.6,1.59,1.62,1.62,0,0,1-1.6,1.6Z"/><path class="cls-4" d="M437,141.35a3.19,3.19,0,0,1,3.18,3.19V213.6a3.18,3.18,0,0,1-3.18,3.19H369.37a3.19,3.19,0,0,1-3.19-3.19V144.54a3.2,3.2,0,0,1,3.19-3.19H437m0-3.18H369.37a6.38,6.38,0,0,0-6.38,6.37h0V213.6a6.38,6.38,0,0,0,6.38,6.38H437a6.38,6.38,0,0,0,6.37-6.38h0V144.54a6.37,6.37,0,0,0-6.37-6.37Z"/><path class="cls-5" d="M426.47,159.51H381.33a1.6,1.6,0,1,1,0-3.19h45.16a1.6,1.6,0,0,1,0,3.19Z"/><path class="cls-5" d="M426.47,170.79H381.33a1.59,1.59,0,1,1,0-3.18h45.16a1.59,1.59,0,0,1,0,3.18Z"/><path class="cls-5" d="M426.47,182.08H381.33a1.6,1.6,0,1,1,0-3.19h45.16a1.6,1.6,0,0,1,0,3.19Z"/><path class="cls-5" d="M426.47,193.36H381.33a1.6,1.6,0,1,1,0-3.19h45.16a1.6,1.6,0,0,1,0,3.19Z"/><path class="cls-5" d="M426.47,204.65H381.33a1.6,1.6,0,0,1-1.6-1.6,1.59,1.59,0,0,1,1.59-1.59h45.15a1.59,1.59,0,0,1,1.59,1.59,1.61,1.61,0,0,1-1.59,1.6Z"/><path class="cls-5" d="M667,274.15a3.18,3.18,0,0,1,3.18,3.18V346.4a3.18,3.18,0,0,1-3.18,3.18H599.3a3.18,3.18,0,0,1-3.18-3.18V277.33a3.18,3.18,0,0,1,3.18-3.18H667m0-3.19H599.3a6.37,6.37,0,0,0-6.37,6.37V346.4a6.37,6.37,0,0,0,6.37,6.37H667a6.37,6.37,0,0,0,6.37-6.37V277.33A6.37,6.37,0,0,0,667,271Z"/><path class="cls-5" d="M656.4,292.3H611.27a1.6,1.6,0,1,1,0-3.19H656.4a1.6,1.6,0,0,1,0,3.19Z"/><path class="cls-5" d="M656.4,303.58H611.27a1.59,1.59,0,1,1,0-3.18H656.4a1.59,1.59,0,1,1,0,3.18Z"/><path class="cls-5" d="M656.4,314.87H611.27a1.6,1.6,0,0,1,0-3.19H656.4a1.6,1.6,0,0,1,0,3.19Z"/><path class="cls-5" d="M656.4,326.15H611.27a1.59,1.59,0,1,1,0-3.18H656.4a1.59,1.59,0,1,1,0,3.18Z"/><path class="cls-5" d="M656.4,337.44H611.27a1.6,1.6,0,1,1,0-3.19H656.4a1.6,1.6,0,0,1,0,3.19Z"/><path class="cls-4" d="M322.37,220H253a7.09,7.09,0,0,1-7.08-7.08V163.22a7.08,7.08,0,0,1,7.08-7.08h69.42a7.08,7.08,0,0,1,7.08,7.08V212.9A7.09,7.09,0,0,1,322.37,220ZM253,159.33a3.9,3.9,0,0,0-3.9,3.89V212.9a3.9,3.9,0,0,0,3.9,3.89h69.42a3.9,3.9,0,0,0,3.9-3.89V163.22a3.9,3.9,0,0,0-3.9-3.89Z"/><path class="cls-5" d="M310.23,178.37H265.09a1.6,1.6,0,0,1,0-3.19h45.14a1.6,1.6,0,0,1,0,3.19Z"/><path class="cls-5" d="M310.23,189.65H265.09a1.59,1.59,0,0,1,0-3.18h45.14a1.59,1.59,0,0,1,0,3.18Z"/><path class="cls-5" d="M310.23,200.94H265.09a1.6,1.6,0,0,1,0-3.19h45.14a1.6,1.6,0,0,1,0,3.19Z"/><path class="cls-4" d="M552.73,247.51l-66.68-19.34a7.08,7.08,0,0,1-4.82-8.77l13.83-47.71a7.08,7.08,0,0,1,8.78-4.83l66.67,19.33a7.08,7.08,0,0,1,4.83,8.78L561.5,242.68A7.09,7.09,0,0,1,552.73,247.51ZM503,169.92a3.9,3.9,0,0,0-4.83,2.65l-13.83,47.71a3.9,3.9,0,0,0,2.65,4.83l66.68,19.33a3.89,3.89,0,0,0,4.82-2.65l13.84-47.71a3.9,3.9,0,0,0-2.66-4.83Z"/><path class="cls-5" d="M552.66,204.16l-43.35-12.57a1.59,1.59,0,1,1,.88-3.06l43.36,12.57a1.59,1.59,0,0,1-.89,3.06Z"/><path class="cls-5" d="M549.51,215l-43.35-12.57a1.6,1.6,0,0,1,.89-3.07l43.35,12.58a1.59,1.59,0,1,1-.89,3.06Z"/><path class="cls-5" d="M546.37,225.83,503,213.26a1.59,1.59,0,1,1,.89-3.06l43.35,12.57a1.59,1.59,0,1,1-.89,3.06Z"/><rect class="cls-4" x="288.04" y="745.94" width="699.31" height="3"/><polygon class="cls-4" points="694.07 741.25 580.35 741.25 584.21 691.14 690.22 691.14 694.07 741.25"/><rect class="cls-4" x="574.57" y="735.47" width="127.21" height="11.56"/><path class="cls-6" d="M855,368.3H420.37a11.56,11.56,0,0,0-11.56,11.56h0v265H866.57v-265A11.55,11.55,0,0,0,855,368.3Z"/><path class="cls-4" d="M408.81,644.88v43.37a11.56,11.56,0,0,0,11.56,11.56H855a11.55,11.55,0,0,0,11.56-11.56h0V644.88Z"/><rect class="cls-4" x="431.94" y="392.39" width="412.47" height="231.29"/><circle class="cls-6" cx="638.17" cy="671.87" r="11.56"/><circle class="cls-3" cx="444.8" cy="399.96" r="2.19"/><circle class="cls-3" cx="453.13" cy="399.96" r="2.19"/><circle class="cls-3" cx="461.46" cy="399.96" r="2.19"/><rect class="cls-3" x="442.61" y="407.42" width="389.92" height="194.25"/><path class="cls-4" d="M468.52,437a1.37,1.37,0,0,0-1.37,1.37V508a1.37,1.37,0,0,0,1.37,1.38H549a1.38,1.38,0,0,0,1.38-1.38V438.34A1.37,1.37,0,0,0,549,437Z"/><path class="cls-4" d="M597.72,437.19a1.38,1.38,0,0,0-1.38,1.38V508a1.38,1.38,0,0,0,1.38,1.38h80.21a1.38,1.38,0,0,0,1.38-1.38V438.57a1.38,1.38,0,0,0-1.38-1.38Z"/><path class="cls-4" d="M725.56,436.46a1.38,1.38,0,0,0-1.38,1.38V508a1.38,1.38,0,0,0,1.38,1.38h81A1.38,1.38,0,0,0,808,508V437.84a1.38,1.38,0,0,0-1.38-1.38Z"/><path class="cls-4" d="M470,543.89a2.85,2.85,0,0,0,0,5.7h75.65a2.85,2.85,0,0,0,0-5.7Z"/><path class="cls-5" d="M470,557.44a2.85,2.85,0,1,0,0,5.7h34.06a2.85,2.85,0,0,0,0-5.7Z"/><path class="cls-4" d="M600.58,543.89a2.85,2.85,0,0,0,0,5.7h75.65a2.85,2.85,0,1,0,0-5.7Z"/><path class="cls-5" d="M600.58,557.44a2.85,2.85,0,1,0,0,5.7h34.06a2.85,2.85,0,1,0,0-5.7Z"/><path class="cls-4" d="M727.9,543.89a2.85,2.85,0,0,0,0,5.7h75.65a2.85,2.85,0,1,0,0-5.7Z"/><path class="cls-4" d="M470,529.89a2.85,2.85,0,0,0,0,5.7h75.65a2.85,2.85,0,0,0,0-5.7Z"/><path class="cls-4" d="M600.58,529.89a2.85,2.85,0,0,0,0,5.7h75.65a2.85,2.85,0,1,0,0-5.7Z"/><path class="cls-4" d="M727.9,529.89a2.85,2.85,0,0,0,0,5.7h75.65a2.85,2.85,0,1,0,0-5.7Z"/><path class="cls-5" d="M727.9,557.44a2.85,2.85,0,1,0,0,5.7H762a2.85,2.85,0,0,0,0-5.7Z"/></g></g></svg>