<svg xmlns="http://www.w3.org/2000/svg" xmlns:xlink="http://www.w3.org/1999/xlink" viewBox="0 0 969.57 828.8"><defs><style>.cls-1{fill:#7882c0;}.cls-2{fill:#efcb34;}.cls-3{fill:#fff;}.cls-4,.cls-8{fill:#f0cb35;}.cls-10,.cls-4,.cls-5{opacity:0.1;}.cls-10,.cls-17,.cls-21,.cls-34,.cls-4{isolation:isolate;}.cls-10,.cls-17,.cls-34,.cls-6{fill:#010101;}.cls-34,.cls-7{opacity:0.2;}.cls-9{fill:#fcd2c7;}.cls-11{fill:#636696;}.cls-12{fill:#f9cde0;}.cls-13{fill:#995d7e;}.cls-14{fill:url(#linear-gradient);}.cls-15{fill:#cd818d;}.cls-16{fill:#454154;}.cls-17,.cls-30{opacity:0.05;}.cls-18{fill:#f2738f;}.cls-19,.cls-21{fill:#585a89;}.cls-20{fill:#dce5f1;}.cls-21{opacity:0.5;}.cls-22{fill:#69657f;}.cls-23{fill:#5a5369;}.cls-24{fill:#e4abb4;}.cls-25{fill:#ffd139;}.cls-26{fill:#67627d;}.cls-27{fill:#9d9cb5;}.cls-28{fill:url(#linear-gradient-2);}.cls-29{fill:#2e293d;}.cls-31{fill:#facdd3;}.cls-32{fill:#666792;}.cls-33{fill:#a9a8a8;}</style><linearGradient id="linear-gradient" x1="869.49" y1="387.02" x2="869.49" y2="637.57" gradientTransform="matrix(1, 0, 0, -1, -138.09, 812.75)" gradientUnits="userSpaceOnUse"><stop offset="0" stop-color="#818181" stop-opacity="0.25"/><stop offset="0.54" stop-color="#818181" stop-opacity="0.12"/><stop offset="1" stop-color="#818181" stop-opacity="0.1"/></linearGradient><linearGradient id="linear-gradient-2" x1="634.93" y1="167.32" x2="634.93" y2="451.87" gradientTransform="matrix(1, 0, 0, -1, -61.06, 812.75)" xlink:href="#linear-gradient"/></defs><g id="Layer_2" data-name="Layer 2"><g id="Layer_1-2" data-name="Layer 1"><rect class="cls-1" width="883.02" height="759.1"/><rect class="cls-2" x="73.79" y="134.93" width="895.77" height="693.86"/><rect class="cls-3" x="160.74" y="87.16" width="769.71" height="636.47"/><path class="cls-4" d="M621.67,217.43c-29.19,24.78-67.06,23.18-100.24,10.28s-63.66-35.84-96-52.16A269.29,269.29,0,0,0,341.1,148.9c-41.2-5.72-87.21,1.26-115.92,41.3-32,44.62-29.52,125.08,5,166,17.59,20.83,40.62,31.05,60.71,47.34s38.68,43.27,37,74.67c-1.58,29-20,51.36-39.05,65.35-14.72,10.81-32.86,22.62-34.63,45-1.72,21.67,13.53,38.66,28.09,48.32,47.51,31.5,106,31.2,153.38-.8,16.88-11.42,32.38-26.6,50.09-35.49,46.49-23.36,97.71.15,146.94,8.75a244.47,244.47,0,0,0,125-11c24.37-8.73,48.85-22.09,66-46.94,12.35-17.92,20.05-40.61,27.27-63q11.55-35.83,22.21-72.18c4.26-14.55,8.46-29.38,9.56-44.94,2-28.2-6.41-56.08-17.86-79.88-27.19-56.51-73-96.24-122.56-106.33s-102,9.61-140.5,52.75"/><ellipse class="cls-4" cx="511.67" cy="483.28" rx="143.27" ry="6.54"/><path class="cls-3" d="M506.86,456.28C435.24,456.28,377,398,377,326.39A130,130,0,0,1,506.86,196.5c71.64,0,129.87,58.27,129.87,129.89S578.46,456.28,506.86,456.28Zm0-258.52c-70.92,0-128.62,57.71-128.62,128.63a128.63,128.63,0,0,0,257.25,0C635.49,255.47,577.77,197.76,506.86,197.76Z"/><path class="cls-3" d="M506.86,427.13A100.74,100.74,0,1,1,607.6,326.39,100.86,100.86,0,0,1,506.86,427.13Zm0-200.22a99.48,99.48,0,1,0,99.48,99.48,99.6,99.6,0,0,0-99.48-99.48Z"/><path class="cls-3" d="M506.86,395.82a69.43,69.43,0,1,1,69.43-69.43A69.43,69.43,0,0,1,506.86,395.82Zm0-137.6A68.17,68.17,0,1,0,575,326.39a68.17,68.17,0,0,0-68.17-68.17Z"/><ellipse class="cls-4" cx="821.23" cy="401.62" rx="9.01" ry="2.98"/><ellipse class="cls-4" cx="315.36" cy="558.57" rx="53.05" ry="8.7"/><g class="cls-5"><path class="cls-6" d="M408.35,317.39H246.52a8.5,8.5,0,0,0-8.46,8.46V428.11a8.48,8.48,0,0,0,8.46,8.45h127S376.76,454,366,455.9c0,0,24.2,1.74,20-19.34h22.42a8.47,8.47,0,0,0,8.46-8.45V325.85A8.49,8.49,0,0,0,408.35,317.39Z"/><g class="cls-7"><rect class="cls-6" x="261.88" y="344.54" width="131.1" height="7.99" rx="3.58"/><rect class="cls-6" x="261.88" y="380.25" width="131.1" height="7.99" rx="3.58"/><rect class="cls-6" x="261.88" y="398.1" width="109.94" height="7.99" rx="3.58"/><rect class="cls-6" x="261.88" y="362.39" width="56.85" height="7.99" rx="3.58"/></g></g><path class="cls-3" d="M409.77,316.69H247.93a8.48,8.48,0,0,0-8.46,8.46V427.4a8.49,8.49,0,0,0,8.46,8.46h127s3.3,17.46-7.52,19.33c0,0,24.2,1.74,20-19.33h22.44a8.49,8.49,0,0,0,8.45-8.46V325.15A8.47,8.47,0,0,0,409.77,316.69Z"/><g class="cls-7"><rect class="cls-8" x="263.3" y="343.83" width="131.1" height="7.99" rx="3.58"/><rect class="cls-8" x="263.3" y="379.54" width="131.1" height="7.99" rx="3.58"/><rect class="cls-8" x="263.3" y="397.4" width="109.94" height="7.99" rx="3.58"/><rect class="cls-8" x="263.3" y="361.69" width="56.85" height="7.99" rx="3.58"/></g><path class="cls-9" d="M349.7,315.07l-9,19.07s-1.33,3.58-2.18,4.24-4.62,12-4.62,12l-9.61,14.86h0l-.64,1-3.78-1-2.65-9.89.17-2.87v-.36s5.95-6.22,7.27-6.7c0,0,1,.12,3-4.7s3.79-5.87,3.79-5.87l1-3.5,11.15-17.74s9.34-13.4,11.89-7.45S349.7,315.07,349.7,315.07Z"/><path class="cls-9" d="M312.45,450.55a2.13,2.13,0,0,1-.3.92c-1,1.51-6.88,32.37-6.88,32.37.46,2.08-.85,6.24-1.71,8.12s-2.74,11.71-2.74,11.71-.47,21.14-1.69,24.44.39,10.39.39,10.39c-.12,3.25,1.84,6.69,3,8.45.09.11.16.23.23.32.38.54.63.85.63.85a5,5,0,0,0,1.32,1.64l.26.2a14.89,14.89,0,0,0,5.29,2.23l.19,0c.75.17,1.26.23,1.26.23l.46,2.53-5,1-9.54.64s-11.23.85-8.68-4.16a7.71,7.71,0,0,0,.46-1.06h0c.09-.24.18-.49.26-.74,1.53-4.81.5-10.66.5-10.66L288,523c-3.58-15.85,2.83-33.51,2.83-33.51s-.56-1.41.67-5,0-11.42,0-11.42S290.84,463,290,458a30.07,30.07,0,0,1-.34-6.36,31,31,0,0,1,.34-3.72l21.52-2.85S312.69,448.55,312.45,450.55Z"/><path class="cls-10" d="M312.14,555l-5,1-9.53.63s-11.24.85-8.69-4.16a6.66,6.66,0,0,0,.46-1.06h0a6.49,6.49,0,0,0,.26-.74,17.21,17.21,0,0,1,5.68,1.15c3.2,1.26,5.62-2,5.62-2l1.55-3,.23-.43c.37.55.63.86.63.86a5.06,5.06,0,0,0,1.58,1.83l-.26.55-1.51,3.16s1.93.19,4.57.63a2.05,2.05,0,0,0,2.49-1.36l.18,0c.76.17,1.27.24,1.27.24Z"/><path class="cls-11" d="M316.77,557.38c-.38,1.69-10.9,2.22-10.9,2.22s-5.86-.57-7.5.8-6.48,1-6.67,1-2.73-.1-3.73-4.67,1.3-5.23,1.41-5.27h0a17.34,17.34,0,0,1,6,1.15c3.2,1.27,5.61-2,5.61-2l1.78-3.4c.38.54.63.85.63.85a4.93,4.93,0,0,0,1.58,1.84l-1.77,3.73s1.93.19,4.58.63a2.19,2.19,0,0,0,2.67-2.08V552l3.67,1A3.8,3.8,0,0,1,316.77,557.38Z"/><path class="cls-9" d="M336.59,473.05c-.25,1.51-.51,5.41-.51,5.41.88,3.27-1.38,11-1.38,11l-1.13,4.42c.5,5.68-3.11,19.51-3.11,19.51s-2.43,12.84-3.69,18.38a15.36,15.36,0,0,0,.63,9.26,2,2,0,0,0,.1.22,1.09,1.09,0,0,0,.08.31c0,.1.08.3.13.45a7,7,0,0,0,1.26,2.11,6.34,6.34,0,0,0,.68.69l0,0a13.7,13.7,0,0,0,4,2.47h0l.63.25a17.82,17.82,0,0,0,2,.63h0l.23,0-.51,3-6.67-1.71-8.93-2.89L316,544.13l.14-.7v-.07c0-.2.08-.43.14-.7.75-3.85,2.46-14.77,1.6-22.78-1.07-9.95,3.07-23.67,4.08-26.94a16.24,16.24,0,0,0,.76-5.79c-1.64-2.39-2-11.95-2-11.95s-3-6.17-5.52-12.72a34.39,34.39,0,0,1-1.8-6.61,23.12,23.12,0,0,1-.36-4.84s20.27-18.5,22.49-.59l.22,1.76C337.7,468.57,336.83,471.59,336.59,473.05Z"/><path class="cls-10" d="M336.59,548.31l-.51,3-6.66-1.71-8.94-2.89-4.41-2.53s.05-.24.13-.7v-.07c0-.2.08-.43.14-.7l.63-.06h0a8.35,8.35,0,0,1,3.74.5c1.45.55,3.36,1.18,3.75.91a4.78,4.78,0,0,1,2.14-.38l.93-2,.13-.31a6.84,6.84,0,0,0,1.26,2.11,6.21,6.21,0,0,0,.72.73l0,.72,0,1a12.93,12.93,0,0,0,3.2,1.48,2,2,0,0,0,.9,0h0l.63.25a18.49,18.49,0,0,0,2,.63h0A1.22,1.22,0,0,0,336.59,548.31Z"/><path class="cls-11" d="M333.28,554.64c-1.86-.53-6.35-1.39-7.07-.72s-6.94,0-6.94,0a3.83,3.83,0,0,1-3.22-1.9c-1.26-2-.24-8.52-.24-8.52l.46,0,.77-.07h0a8.22,8.22,0,0,1,3.74.5c1.45.54,3.36,1.17,3.75.91a4.76,4.76,0,0,1,2.14-.38l1.06-2.34a7,7,0,0,0,1.26,2.11,7.08,7.08,0,0,0,.72.73l-.09,1.74a12.9,12.9,0,0,0,3.2,1.47,1.26,1.26,0,0,0,1.54-.48,1.23,1.23,0,0,0,.12-.26h0a11.33,11.33,0,0,0,2.63.87h0a4.83,4.83,0,0,1,5.14,3.7C343.24,554.84,335.11,555.17,333.28,554.64Z"/><path class="cls-10" d="M312.45,450.55l-1.14.35a16.48,16.48,0,0,1-2.79.59c-5.95.84-15.78.33-18.89.13a33.17,33.17,0,0,1,.34-3.72l21.53-2.85S312.69,448.55,312.45,450.55Z"/><path class="cls-11" d="M331.21,445.33s-7.9,1.22-14.32,2.63c-2.15.46-4.13,1-5.6,1.43a17.63,17.63,0,0,1-2.78.59c-7.16,1-19.87.07-19.87.07-3.49-11.32,4.24-25.58,4.24-25.58-.18-1.14,1.61-4.62,1.61-4.62l0-.11,1.1-4H325l.36,1.73.74,3.54,4.61,21.88Z"/><path class="cls-10" d="M335.76,452.19l-.18.08-3.43,1.52c-3.72,1.72-14.85,2-18.74,2.07a23,23,0,0,1-.36-4.83s20.27-18.51,22.49-.59C335.62,451.08,335.69,451.62,335.76,452.19Z"/><path class="cls-11" d="M336.3,450.44l-.72.32-3.43,1.53c-3.79,1.74-15.27,2-18.94,2.07h-1c-1.7-.06-3.4-1.65-3.4-2.07,0-.22-.18-1.34-.33-2.3-.12-.77-.24-1.43-.24-1.43s-7.57-3.27-11.42-5.92c-2.88-2-2.15-15.91-1.59-22.92.19-2.42.36-4,.36-4l29.72,1.74,4.17.24,2.38.53.63.13s1.71,12.46,2.53,13.49.29,4.54.19,6.52a12.65,12.65,0,0,1-.28,2.53s1.22,3.49.93,5.45A10.93,10.93,0,0,0,336.3,450.44Z"/><circle class="cls-9" cx="304.5" cy="334.8" r="12.18"/><path class="cls-9" d="M298.57,339.88s.84,11.53-1.51,14.17a103.86,103.86,0,0,1-8.5,7.65l1.9,7.83,10.66,1.23,12.46-13.31L310.75,354s-2.17-7.37-.38-11S298.57,339.88,298.57,339.88Z"/><path class="cls-10" d="M324.32,365.23h0l-.64,1-3.78-1-2.65-9.89.17-2.87.77-1.12s4.16.1,4,3.88C322,358.51,323.87,364,324.32,365.23Z"/><path class="cls-10" d="M332.53,419.85s-3,.67-6.45,1.12-7.41.67-9-.27c-2.73-1.62-17.54-1.16-21.79-1a5.1,5.1,0,0,0-.73,0l1.1-4H325l.36,1.73,4.16.24,2.39.53C332.29,419.18,332.53,419.85,332.53,419.85Z"/><path class="cls-12" d="M317.43,352.07s4.15.1,4,3.87,2.27,10.29,2.27,10.29l-1,2.17s-1.32,5.28-.28,6.61,4.81,1.32,2.64,12.18c0,0-.46,8.11.67,10.76s1.13,9,2.82,11.61a63.27,63.27,0,0,1,4,8.78s-12.27,2.73-15.48.84-22.94-.93-22.94-.93.1-3.3,0-3.68a3.17,3.17,0,0,1,.48-2.41c.63-.89,1.69-2.4,1.13-3.72s1.42-3.27.37-5.32-2.3-2.45-2-3.57a4.8,4.8,0,0,0-1.15-3.57c-.75-.94-5.86-10.92-5.86-10.92l-.85-4.68s-6.57-4.81-6.45-7.08,2.49-5.4,2.49-5.4l6.31-6.21s3.49,3.79,6.89,2.46,10.72-7.65,10.72-7.65,2.62-1.41,2.81-2.45,1.79-.09,1.79-.09,2.36-1.29,2.83-.84a8.4,8.4,0,0,0,2.53.84Z"/><path class="cls-9" d="M281.75,371.73l-2,1.58a26.89,26.89,0,0,0-2.52,10.28,140.4,140.4,0,0,1-2.53,16l-4,7.09s-6.53,13.67-7.38,17.3-4.72,9.78-4.72,9.78-13.12,11.79-4,13.88,9.43-9.38,9.43-9.38,2.14-2.37,2.49-4,11.95-22.13,11.95-22.13,4.07-5.53,3.22-8.45c0,0,5.28-12.43,5.28-15.55a54.4,54.4,0,0,0-.85-7.73l.85-6.51Z"/><path class="cls-10" d="M308.93,397.76s-9.25,4.84-11,5.09,7.83-1,7.83-1Z"/><path class="cls-10" d="M316.48,401.53s-12.27,4.16-17.67,3.4C298.83,404.93,312.23,407.48,316.48,401.53Z"/><path class="cls-10" d="M317.24,402.89s-11.05,6.94-17.56,5.81c0,0,15.2,3,17.56,1.42l-6.8-1.89S318,404.24,317.24,402.89Z"/><path class="cls-10" d="M304.51,313.37c-3.19-.63-6.73-.25-9.29,1.76-1.89,1.49-3.15,3.79-5.28,4.87a30.74,30.74,0,0,1-3.45,1.22A10,10,0,0,0,280.41,332c.33,1.89,1.21,3.6,1.64,5.44.77,3.3.09,6.75-.74,10a105.79,105.79,0,0,1-10.51,26,2.73,2.73,0,0,0-.53,1.75,2.51,2.51,0,0,0,.63,1.11c4.36,5.05,11.47,6.78,18.13,7,2.46.09,5.05,0,7.18-1.19a11,11,0,0,0,3.51-3.21,17.1,17.1,0,0,0,3.27-11c-.19-3.16-1.27-6.37-.45-9.43a2.53,2.53,0,0,1,.57-1.16c.72-.73,1.89-.54,2.93-.66,2.77-.32,4.56-3.24,4.89-6s-.37-5.56-.38-8.34A17.39,17.39,0,0,1,313.84,332c.92-1.26,2.1-2.52,2.41-4.11.39-2-.77-3.45-1.76-5.05-1.55-2.45-2.31-5.3-4.66-7.17A12.6,12.6,0,0,0,304.51,313.37Z"/><path class="cls-13" d="M303.76,312.62c-3.19-.63-6.74-.26-9.29,1.76-1.9,1.48-3.16,3.78-5.29,4.87a29.84,29.84,0,0,1-3.44,1.21,10,10,0,0,0-6.09,10.73c.34,1.9,1.21,3.6,1.65,5.45.77,3.29.09,6.74-.75,10a105.44,105.44,0,0,1-10.49,26,2.65,2.65,0,0,0-.51,1.74,2.32,2.32,0,0,0,.63,1.12c4.37,5,11.46,6.77,18.13,7,2.45.09,5,0,7.18-1.19a10.79,10.79,0,0,0,3.5-3.22,17,17,0,0,0,3.25-11c-.18-3.16-1.26-6.37-.44-9.44a2.53,2.53,0,0,1,.56-1.15c.72-.73,1.9-.54,2.94-.63,2.77-.32,4.55-3.25,4.88-6s-.36-5.55-.38-8.34a17.48,17.48,0,0,1,3.29-10.31c.92-1.26,2.09-2.52,2.4-4.11.39-2-.76-3.45-1.75-5.05-1.55-2.45-2.31-5.31-4.67-7.17A12.38,12.38,0,0,0,303.76,312.62Z"/><path class="cls-10" d="M299.68,430.64s2.42,11.32,6.45,14.41Z"/><g class="cls-5"><path class="cls-6" d="M280.37,333.72c-.12-.44-.27-.89-.42-1.32C280.07,332.84,280.22,333.28,280.37,333.72Z"/><path class="cls-6" d="M314.81,323.83a4.25,4.25,0,0,1-.05,1.07c-.32,1.6-1.49,2.84-2.41,4.11a17.38,17.38,0,0,0-3.29,10.27c0,2.79.7,5.58.37,8.35s-2.11,5.68-4.88,6c-1,.12-2.22-.07-2.93.64a2.45,2.45,0,0,0-.57,1.15c-.8,3.07.26,6.27.44,9.44a17.05,17.05,0,0,1-3.24,11,10.92,10.92,0,0,1-3.51,3.22c-2.16,1.17-4.72,1.26-7.19,1.19-6.55-.22-13.52-1.9-17.9-6.76a1.75,1.75,0,0,0-.1.91,2.34,2.34,0,0,0,.63,1.11c4.37,5.05,11.46,6.78,18.13,7,2.45.09,5,0,7.18-1.18a11.12,11.12,0,0,0,3.5-3.22,17,17,0,0,0,3.25-11c-.18-3.15-1.26-6.37-.44-9.43a2.52,2.52,0,0,1,.56-1.16c.72-.73,1.9-.54,2.94-.63,2.77-.32,4.55-3.24,4.88-6s-.36-5.55-.38-8.34a17.52,17.52,0,0,1,3.29-10.27c.92-1.26,2.09-2.52,2.4-4.11A4.68,4.68,0,0,0,314.81,323.83Z"/></g><path class="cls-8" d="M531.69,629.37s-24-1.45-21.18,15.38a4.09,4.09,0,0,0,2.13,4.32s0-1.26,2.46-.82a10.86,10.86,0,0,0,2.61.12,5.44,5.44,0,0,0,3.19-1.31h0s6.75-2.79,9.37-13.83c0,0,2-2.4,1.9-3l-4,1.73s1.38,2.92.29,5.35c0,0-.13-5.24-.91-5.12-.16,0-2.1,1-2.1,1s2.37,5.1.58,8.79c0,0,.68-6.27-1.33-8.42l-2.85,1.66s2.78,5.27.89,9.56c0,0,.49-6.58-1.49-9.15l-2.59,2s2.62,5.18,1,8.74c0,0-.21-7.66-1.58-8.21a15.53,15.53,0,0,0-2.6,2.81s1.78,3.79.67,5.75c0,0-.68-5.1-1.26-5.12,0,0-2.25,3.38-2.49,5.68a12.36,12.36,0,0,1,1.94-6,6.73,6.73,0,0,0-3.44,1.79s.34-2.39,4-2.6a16.76,16.76,0,0,1,2.36-2.72s-3.64-.31-5.84.67c0,0,1.94-2.26,6.51-1.26l2.52-2.08s-4.78-.63-6.82.07c0,0,2.34-2,7.51-.55l2.78-1.66a25.08,25.08,0,0,0-6.51-.56s2.56-1.39,7.32.12l2-.9s-3-.59-3.86-.68-.93-.33-.93-.33a10.29,10.29,0,0,1,5.62.63S531.76,629.63,531.69,629.37Z"/><ellipse class="cls-4" cx="515.14" cy="650.54" rx="17" ry="2.87"/><path class="cls-8" d="M719.85,608.79s-24-1.44-21.18,15.38a4.12,4.12,0,0,0,2.13,4.33s.05-1.26,2.47-.83a10.87,10.87,0,0,0,2.61.13,5.39,5.39,0,0,0,3.19-1.32h0s6.75-2.78,9.37-13.82c0,0,1.94-2.41,1.89-3l-4.07,1.77s1.38,2.92.29,5.35c0,0-.13-5.25-.91-5.12-.15,0-2.1,1-2.1,1s2.38,5.09.58,8.8c0,0,.68-6.28-1.33-8.43l-2.85,1.67s2.78,5.25.89,9.55c0,0,.49-6.59-1.49-9.15l-2.58,2s2.61,5.19,1,8.75c0,0-.21-7.67-1.57-8.24a15.88,15.88,0,0,0-2.61,2.81s1.79,3.79.68,5.74c0,0-.68-5.1-1.26-5.12,0,0-2.26,3.38-2.49,5.68a12.33,12.33,0,0,1,1.94-6,6.8,6.8,0,0,0-3.45,1.79s.36-2.39,4-2.6a16.76,16.76,0,0,1,2.36-2.72s-3.63-.31-5.84.67c0,0,1.94-2.26,6.5-1.23l2.53-2.08s-4.79-.63-6.82.07c0,0,2.34-2,7.51-.54l2.77-1.66a24.91,24.91,0,0,0-6.51-.57s2.56-1.38,7.33.12l2-.89s-3-.59-3.87-.68-.92-.34-.92-.34a10.34,10.34,0,0,1,5.61.63S719.93,609.06,719.85,608.79Z"/><ellipse class="cls-4" cx="703.31" cy="629.96" rx="17" ry="2.87"/><ellipse class="cls-4" cx="737.98" cy="422.87" rx="48.95" ry="8.03"/><path class="cls-14" d="M795,264.55a26.29,26.29,0,0,0,0-13.42v-6.31s2.28-12.38-7.89-20.32l-6.76-5.95s-3.78-3.24-4.88-3.45a4.35,4.35,0,0,0-.63-.1l-.2-.11a21.57,21.57,0,0,1-1.48-3.11,2.9,2.9,0,0,0,2.41-.82,3.38,3.38,0,0,0,.57-1h0c.39-.88.45-1.94.79-2.87a6.77,6.77,0,0,1,1.26-2.07c-.07.12-.14.22-.2.34.95-1.19,2.2-2.21,3.09-3.47a6.71,6.71,0,0,0,.49-.77l-.13.16c1.26-2,1.62-4.42,2-6.74a6.11,6.11,0,0,0,0-2.41,7.76,7.76,0,0,0-.68-1.53c-1.46-3-1.43-6.83-3.78-9.25-1.77-1.81-4.42-2.36-7-2.67s-5.15-.49-7.31-1.81a8.37,8.37,0,0,0-2-1.09,1.63,1.63,0,0,0-2,.73,1.26,1.26,0,0,1-.25.52.85.85,0,0,1-.76,0l-3.34-.89,0,.17h-.08l.12.53a.29.29,0,0,1,.31.18l-.54.83a8.29,8.29,0,0,1-3-.63v.16h0c-.07.95,1,1.56,1.33,2.45a1.77,1.77,0,0,1,0,1.2,2.67,2.67,0,0,1-.63,1c-1.19,1.17-2.7.94-4.07,1.68a.88.88,0,0,0-.5.55.48.48,0,0,0-.05.31.72.72,0,0,0,.28.34,6.28,6.28,0,0,0,1.3.81l-.39.38a15,15,0,0,0,5.18,24.43c.05.26.08.53.12.81v.08l0,.36-4.51,1.89a3.61,3.61,0,0,1-3.24-2.08c-1-2.17-4.75,0-4.75,0s-11.32-.85-15.5,1.23c0,0-6.75-2.83-7.7-3s-2.38-.95-3-.76-1.52-1.26-2-1.13-.64-.94-2.19-1.32-2.09.09-3.79-1.61-15.59-8.41-15.59-8.41l-6.28-5.1-6.66-5.29-.12.22c0-.16-.08-.33-.12-.5a64.18,64.18,0,0,0-2.47-7.76c-.43-1-.63-2.32-1.19-1.63-.36.41-1-.49-1.9-1.1a1.57,1.57,0,0,0-2.18.39,1.24,1.24,0,0,0-.16.3h0c-5.19,8.12-7,8.71-4,11.68,2.67,2.65,4.45,5,6.64,5.68l.26.08h-.15l12.62,15.12s9.13,7.94,15.41,10.49,5.8,3.31,5.8,3.31,19,9.64,22,9.46,2.38,19.76,1.14,23-3.23,26.46-3.23,26.46-1.89,4.91.09,8.31c0,0,.45,6.51,0,8.07-1.74,2.67-4.21,7.21-4.61,11.87a5.66,5.66,0,0,1-.08.72,1.58,1.58,0,0,1-.44.37l.42-.13a24.06,24.06,0,0,1-1.26,5.68,23.28,23.28,0,0,0-1.56,8.21v15l-1.25,9.31s-1.52,7.05,0,8.69a4,4,0,0,1,.83,2.9,5.44,5.44,0,0,0,1,3.38,2.53,2.53,0,0,1,.63,2.17c-.5,1.63.75,19,.75,19s-.37,4.79-.87,5,.84,5.5.84,5.5-5.13,4.29-3.83,6.56l1.32,2-.35.34-.22.22a2,2,0,0,0-1.3-.25,49,49,0,0,1-5.17,4.6c-2.32,1.68-8.62,4.1-8.62,4.1l-5,.4h-.09s-2.38-.22-1,3.47,13.25,2.52,13.25,2.52l6.95-1.1s12.42.06,16-.72c1.49-.34,1.85-1.12,1.75-1.93h0l0,0a5,5,0,0,0-1-2.09l-.09-.11.23-2.52c5.27-3-1.49-9-1.49-9a61.36,61.36,0,0,1,3.5-6.67c1.19-1.62,1.19-25.7,1.19-25.7s.63-8.7-1-10.73a3.64,3.64,0,0,1,1.77-3.28c1.18-.8,4.72-11.84,7.51-21l1.75,10.8s-.38,5.16.77,6.68a2.51,2.51,0,0,1,.46,2,9,9,0,0,0,.26,4.38,2.82,2.82,0,0,0,.92,1.55c1,.51,1.08,2.3,1.46,2.68s2.72-.53,2.85.85a31.75,31.75,0,0,1,0,3.65l.76,22.43s-1.26,1.89-1.52,6.8a8.89,8.89,0,0,1-.91,4,2,2,0,0,0,.19,2.41l.22.25-.94.73a2,2,0,0,0-.58,2.52,2,2,0,0,0-.59,2.18,2.21,2.21,0,0,0,.16.35,3.58,3.58,0,0,0-1.89.94,15.52,15.52,0,0,1-3.35,3.37,64.38,64.38,0,0,0-5.34,4.57,7.65,7.65,0,0,1-3.11,2.52,4.6,4.6,0,0,1-.94.28c-2.53.51-1.72,3.13.31,3.54s8.75,2.48,14,1.26a4.89,4.89,0,0,0,3.83-.53,53.26,53.26,0,0,1,7.47-2.53s2.85,0,3.23-1.13a4.59,4.59,0,0,0,.17-1.11l.08-.07-.08-.07a15.31,15.31,0,0,0-.19-2.53c-.07-.43-.15-.82-.23-1.13-.25-.94-.69-2.16-.89-2.68l.09-.13c1.08-1.84-.72-6.31-.72-6.31a12.11,12.11,0,0,1,2.15-2.53c1-.75,3.68-20.41,3.68-20.41s-.13-5.05,1.26-7.31-1.89-16-1.89-16-1.4-3.15-.88-4.28-.52-5.29-.52-5.29v-5a5.43,5.43,0,0,0-.29-1.74c-.39-1.17-1-3.41-.34-5.05.89-2.27,2.92-16.26,2.92-16.26s-1.59-6.16.73-11.07a11.59,11.59,0,0,1,.63-1.15c1.72-2.7,1.21-7.5.36-11.36-.13-.6-.27-1.17-.41-1.72-.06-.24-.12-.46-.18-.68l.27-.11a8.82,8.82,0,0,1,.08-1,7,7,0,0,0,4.58-3.15s5.8-6.52,10.94-9.26,5.51-6.71,5.51-6.71c-.76-1.33,1.36-6.71,1.36-6.71Zm-16.71,8.69-5.49,6.37v0c-1.43-2,1.33-6.42,1.33-6.42L778.64,263a6.12,6.12,0,0,1-.6,3c-1.26,1.71,2.28,4.54,2.28,4.54-1.9,0-2.09,2.72-2.09,2.72Z"/><path class="cls-15" d="M681.54,189.76l-3,5.81a11.09,11.09,0,0,1-2.79-.58,10.57,10.57,0,0,1-6.55-5.68c-2.68-5.92,1.75-9.74,3.82-10.87s4-2.41,5.52,1.27a64.51,64.51,0,0,1,2.44,7.71C681.33,188.82,681.54,189.76,681.54,189.76Z"/><path class="cls-15" d="M776.8,220.06,772,227.2s-22.64,10.79-18.31-1.9c1.9-5.58,2.13-9.67,1.79-12.5v-.08a9.84,9.84,0,0,0-1.78-5.05s22.06-11.28,18.78-3.56a10.64,10.64,0,0,0-.78,5.08,17.22,17.22,0,0,0,2.38,7.05A23.13,23.13,0,0,0,776.8,220.06Z"/><path class="cls-16" d="M770,361.31s3.25,13.65,1.89,15.9-1.26,7.26-1.26,7.26-2.64,19.54-3.64,20.29a12.22,12.22,0,0,0-2.13,2.52s1.79,4.42.72,6.25a1.43,1.43,0,0,1-.72.63c-1.67.71-7.87-2.43-11.4-4.35a2,2,0,0,1-.94-1.12,2,2,0,0,1,.58-2.16,2.05,2.05,0,0,1,.57-2.52l.93-.72-.21-.25a2,2,0,0,1-.19-2.4,9,9,0,0,0,.9-4c.25-4.88,1.5-6.76,1.5-6.76l-.75-22.28a31.4,31.4,0,0,0,0-3.63c-.13-1.38-2.44-.47-2.81-.85s-.45-2.16-1.44-2.66a2.72,2.72,0,0,1-.91-1.54,9,9,0,0,1-.26-4.35,2.6,2.6,0,0,0-.46-2c-1.13-1.5-.75-6.63-.75-6.63l-1.73-10.73c-2.75,9.11-6.26,20.08-7.41,20.87a3.61,3.61,0,0,0-1.76,3.26c1.63,2,1,10.64,1,10.64s0,23.91-1.18,25.54a63.29,63.29,0,0,0-3.46,6.63s6.71,6,1.44,9l-.06,0c-5.39,3-16.53-5.38-16.53-5.38l1.17-1.16.34-.34-1.27-2c-1.29-2.25,3.79-6.51,3.79-6.51s-1.35-5.25-.85-5.51.85-5,.85-5-1.23-17.27-.73-18.9a2.54,2.54,0,0,0-.59-2.16,5.33,5.33,0,0,1-1-3.35,4,4,0,0,0-.82-2.88c-1.51-1.62,0-8.64,0-8.64l1.26-9.26V325.31a23.39,23.39,0,0,1,1.51-8.28,24.9,24.9,0,0,0,1.37-6.67c.41-4.74,3-9.36,4.67-12,.91-1.39,1.59-2.22,1.59-2.22l40.06-1.57s.63,1.78,1.26,4.26c.14.55.28,1.11.41,1.71.84,3.85,1.34,8.62-.36,11.31a9.58,9.58,0,0,0-.63,1.13c-2.29,4.88-.72,11-.72,11s-2,13.88-2.88,16.15c-.63,1.6-.05,3.82.34,5a5.6,5.6,0,0,1,.28,1.73v4.92s1,4.13.51,5.26S770,361.31,770,361.31Z"/><path class="cls-10" d="M771.79,312.21a10.46,10.46,0,0,0-.63,1.13l-2.26-.12c.22-1.17-1.31-12.05-1.31-12.05l4.54-.26C773,304.78,773.49,309.56,771.79,312.21Z"/><path class="cls-16" d="M772.16,311.87a7.77,7.77,0,0,0-.63,1.13l-2.26-.13c.22-1.16-1.31-12.06-1.31-12.06l4.54-.25C773.35,304.41,773.86,309.18,772.16,311.87Z"/><path class="cls-17" d="M772.16,311.87a7.77,7.77,0,0,0-.63,1.13l-2.26-.13c.22-1.16-1.31-12.06-1.31-12.06l4.54-.25C773.35,304.41,773.86,309.18,772.16,311.87Z"/><path class="cls-10" d="M765.53,413.51a1.43,1.43,0,0,1-.72.63c-1.67.71-7.87-2.43-11.4-4.35a2,2,0,0,1-.94-1.12c2-.36,3.33,1.9,3.33,1.9a3,3,0,0,1,4.08.92l0,.08c1.72,2.52,5.41,1.46,5.41,1.46S765.42,413.2,765.53,413.51Z"/><path class="cls-18" d="M766.57,421.19c-.38,1.12-3.19,1.12-3.19,1.12a60.85,60.85,0,0,0-7.3,2.57,5,5,0,0,1-3.79.53c-5.17,1.19-11.8-.87-13.8-1.26s-2.79-3-.32-3.5a5,5,0,0,0,.93-.29,7.56,7.56,0,0,0,3.08-2.52,63.44,63.44,0,0,1,5.27-4.55,15.42,15.42,0,0,0,3.31-3.34c2.94-2.6,5,1,5,1a3,3,0,0,1,4.08.93l.05.07c1.72,2.53,5.41,1.47,5.41,1.47s.63,1.69,1,2.91c.08.31.16.7.23,1.13A9.91,9.91,0,0,1,766.57,421.19Z"/><circle class="cls-19" cx="757.96" cy="412.93" r="0.35"/><circle class="cls-19" cx="755.02" cy="415.68" r="0.35"/><circle class="cls-19" cx="752.03" cy="418.15" r="0.35"/><circle class="cls-19" cx="753.57" cy="417.05" r="0.35"/><circle class="cls-19" cx="756.55" cy="414.21" r="0.35"/><path class="cls-20" d="M766.57,421.19c-.38,1.12-3.19,1.12-3.19,1.12a60.85,60.85,0,0,0-7.3,2.57,5,5,0,0,1-3.79.53c-5.17,1.19-11.8-.87-13.8-1.26s-2.79-3-.32-3.5a5,5,0,0,0,.93-.29,23.69,23.69,0,0,0,6.77,1.26c5.1.22,9.14,0,9.14,0l5.16-1.66a8.74,8.74,0,0,1,3.2-1.16,8.23,8.23,0,0,0,3.15-1.37A9.71,9.71,0,0,1,766.57,421.19Z"/><path class="cls-21" d="M753.72,424.43a4.12,4.12,0,0,1-.86-.09l.08-.37a5.31,5.31,0,0,0,3.09-.43,12.92,12.92,0,0,0,1.37-.63,16.91,16.91,0,0,1,1.63-.71l.51-.18a8.46,8.46,0,0,0,.84-.31l.46-.21a5.43,5.43,0,0,1,1.16-.44c.21,0,.42-.06.63-.08a5.54,5.54,0,0,0,.57-.07,5.19,5.19,0,0,0,1.08-.4,5,5,0,0,1,1.17-.43l.28-.05a1.35,1.35,0,0,0,.81-.3l.27.26a1.7,1.7,0,0,1-1,.41l-.26,0a5.31,5.31,0,0,0-1.09.41,5.29,5.29,0,0,1-1.17.43,4.34,4.34,0,0,1-.63.07,5.77,5.77,0,0,0-.58.08,4.54,4.54,0,0,0-1.08.41l-.47.22c-.29.12-.58.22-.87.32l-.5.17c-.54.2-1.08.46-1.6.7s-.92.43-1.39.63A6.77,6.77,0,0,1,753.72,424.43Z"/><path class="cls-10" d="M754.92,362.22s2.6-3.78,7.05-3.72a24.28,24.28,0,0,0,6.35-.5,15.87,15.87,0,0,1-4.82,1.89A81.79,81.79,0,0,0,754.92,362.22Z"/><path class="cls-10" d="M756.43,363.1s2.34-1.63,3.69-1.69,2.52-.19,2.52-.19a7.15,7.15,0,0,1-2.06,1C759.43,362.54,756.43,363.1,756.43,363.1Z"/><path class="cls-10" d="M756.92,364.22s3.55.29,3.58,1.23"/><path class="cls-10" d="M724,311.44c.19,0,3.34-3.29,3.56-4.6a3.23,3.23,0,0,1,1.38-2s2,.82.22,3.31A10.13,10.13,0,0,1,724,311.44Z"/><path class="cls-10" d="M772.48,204.07c-.72,1.7-1.35,1.83-1.21,3.48a12.78,12.78,0,0,1-2.87,2.26c-2.24,1.33-4.68,3.93-7.47,3.93a15,15,0,0,1-5.45-1,9.9,9.9,0,0,0-1.77-5.05S775.75,196.35,772.48,204.07Z"/><path class="cls-15" d="M775.86,198.06a14.93,14.93,0,1,1-14.93-14.93,14.92,14.92,0,0,1,14.93,14.93Z"/><path class="cls-10" d="M776.8,220.06,772,227.2s-22.64,10.79-18.31-1.9c1.9-5.58,2.13-9.67,1.79-12.5h0a12.17,12.17,0,0,1,.44,2.88c.07,1.94.12,4.42,5,5.22a13.51,13.51,0,0,0,13.15-4.67A23.26,23.26,0,0,0,776.8,220.06Z"/><path class="cls-10" d="M681.54,189.76l-3,5.81a11.09,11.09,0,0,1-2.79-.58l-.26-.31c1.22.47,5.35-7.32,5.35-7.32l.14.1C681.33,188.82,681.54,189.76,681.54,189.76Z"/><path class="cls-10" d="M772.11,298.85c-9.66,4.2-43.1.63-43.1.63a4.43,4.43,0,0,0,.17-1.09c.91-1.39,1.58-2.22,1.58-2.22l40.06-1.57S771.47,296.37,772.11,298.85Z"/><path class="cls-22" d="M755.55,213.15,751.1,215a3.57,3.57,0,0,1-3.2-2.07c-1-2.16-4.69,0-4.69,0s-11.17-.85-15.3,1.22c0,0-6.67-2.82-7.58-3s-2.34-.94-3-.75-1.5-1.23-2-1.13-.66-.94-2.16-1.31-2.07.09-3.76-1.6S694,198,694,198l-6.19-5-6.57-5.26s-4.14,7.79-5.36,7.33l12.49,15s9,7.89,15.21,10.42,5.72,3.29,5.72,3.29,18.79,9.57,21.7,9.39,2.35,19.62,1.12,22.82S729,282.29,729,282.29s-1.89,4.88.09,8.26c0,0,.48,6.94,0,8.17,0,0,33.65,3.6,43.2-.63,0,0,1.4-15.59,0-17.56s1.32-6.38,1.32-6.38l6-13.46,14.63-14.75s2.25-12.31-7.79-20.2l-6.67-5.92s-3.73-3.22-4.82-3.42-.68,0-.68,0A13.51,13.51,0,0,1,761,221.23c-4.83-.81-4.88-3.27-5-5.22A11.53,11.53,0,0,0,755.55,213.15Z"/><path class="cls-10" d="M773.89,263.69s-20.66.85-24.79,7.33c0,0,5.36-2.52,10.14-1.79S773.89,263.69,773.89,263.69Z"/><path class="cls-10" d="M751.07,286.33s9.77.63,11.84-1.4,2.07-3.29,2.07-3.29Z"/><path class="cls-10" d="M775.86,243.79s-8.26,9.77,1.79,14Z"/><path class="cls-10" d="M726.94,224.92s3,6.13,4.51,6.54Z"/><path class="cls-10" d="M716.81,222.29s7.51,6.76,8.91,7.41C725.72,229.7,717.93,222.29,716.81,222.29Z"/><path class="cls-10" d="M746.76,215.81s-7.24,10.79-2.53,17.37C744.19,233.18,741.59,225.39,746.76,215.81Z"/><path class="cls-15" d="M765,297.59l-2.21,2.08-.31.29-2.56,2.42c-.19.14-.36.28-.55.4-10.41,7.47-12.5-3.87-12.5-3.87s-4.6,3-5.26.56,10.73-5.92,12.39-5.73a1.77,1.77,0,0,0,.46,0,6.9,6.9,0,0,0,2.33-.82l.51-.27c.58-.33,1.14-.68,1.68-1.06Z"/><path class="cls-10" d="M776.24,198.06a14.91,14.91,0,0,1-7.3,12.83,9.07,9.07,0,0,1-.54-1.08c-.54-1.27-.87-2.58-1.4-3.83a11.88,11.88,0,0,0-2.53-3.66,1.61,1.61,0,0,0-.63-.46,1.79,1.79,0,0,0-1.37.38,6.14,6.14,0,0,1-2.08.91,2.18,2.18,0,0,1-2.09-.63,3.12,3.12,0,0,1-.33-2.6,32.41,32.41,0,0,0,1-5.83c0-2-.74-4.11-2.46-5.09-1.51-.86-3.39-.63-5.08-1.1a5.29,5.29,0,0,1-.76-.27,14.94,14.94,0,0,1,25.62,10.43Z"/><path class="cls-23" d="M749.61,185.26c-.27.15-.57.4-.49.71a.7.7,0,0,0,.27.34,6.49,6.49,0,0,0,2.36,1.22c1.69.45,3.58.24,5.09,1.1a5.73,5.73,0,0,1,2.46,5.08,34.11,34.11,0,0,1-1,5.83,3.12,3.12,0,0,0,.33,2.61,2.23,2.23,0,0,0,2.09.63,6.14,6.14,0,0,0,2.08-.91,1.82,1.82,0,0,1,1.37-.38,1.68,1.68,0,0,1,.66.46,11.71,11.71,0,0,1,2.53,3.66c.54,1.26.87,2.58,1.4,3.83a6.17,6.17,0,0,0,2.53,3.12,3.14,3.14,0,0,0,3.78-.4c.87-1,.85-2.41,1.27-3.64.74-2.13,2.82-3.47,4.12-5.3,1.47-2.07,1.9-4.67,2.27-7.17a6.06,6.06,0,0,0,0-2.4,9.36,9.36,0,0,0-.67-1.52c-1.45-3-1.42-6.78-3.73-9.19-1.74-1.8-4.38-2.34-6.87-2.65s-5.09-.49-7.23-1.8a7.9,7.9,0,0,0-1.95-1.08,1.61,1.61,0,0,0-1.93.72,1.16,1.16,0,0,1-.26.52.82.82,0,0,1-.73,0l-3.31-.89.38,1.66a8.28,8.28,0,0,1-3.51-.63c-.06.94,1,1.55,1.33,2.43a2.25,2.25,0,0,1-.63,2.29C752.46,184.76,751,184.52,749.61,185.26Z"/><path class="cls-10" d="M736.21,409.61l-.13,1.5-.06,0c-5.39,3-16.53-5.38-16.53-5.38l1.17-1.16a2,2,0,0,1,.5,1.57l2.28.12,2.72,2.94s7.37.86,9.36.38Z"/><path class="cls-18" d="M735.27,417.78c-3.51.78-15.78.72-15.78.72l-6.86,1.09s-11.79,1.13-13.11-2.52,1-3.44,1-3.44h.09l4.91-.4s6.23-2.41,8.52-4.07a50.13,50.13,0,0,0,5.1-4.57s2.05-.4,2,2l2.28.13,2.72,2.94s7.36.85,9.36.37h.69l-.32,3.63.09.12C736.44,414.31,738.4,417.08,735.27,417.78Z"/><circle class="cls-19" cx="722.56" cy="408.66" r="0.35"/><circle class="cls-19" cx="713.73" cy="412.49" r="0.35"/><circle class="cls-19" cx="709.19" cy="413.87" r="0.35"/><circle class="cls-19" cx="716.05" cy="411.76" r="0.35"/><circle class="cls-19" cx="711.45" cy="413.18" r="0.35"/><circle class="cls-19" cx="718.39" cy="410.67" r="0.35"/><circle class="cls-19" cx="720.71" cy="409.67" r="0.35"/><path class="cls-20" d="M735.27,417.78c-3.51.78-15.78.72-15.78.72l-6.86,1.09s-11.79,1.13-13.11-2.52,1-3.44,1-3.44h.09c.75,1,2.26,2.08,5.23,2.13l8.48.35,8.79-.63s8.21-.26,9.58-.53a20.16,20.16,0,0,0,3.28-1.21C736.44,414.31,738.4,417.08,735.27,417.78Z"/><path class="cls-21" d="M713.26,418.76a5,5,0,0,1-1.38-.17l.12-.34a6.81,6.81,0,0,0,3.5-.15l1.26-.36a14.48,14.48,0,0,1,6.09-.69h.27a57.38,57.38,0,0,0,11.27-.5,4.18,4.18,0,0,0,2.41-1l.27.27a4.56,4.56,0,0,1-2.62,1.07,58.3,58.3,0,0,1-11.36.51h-.26a18.58,18.58,0,0,0-3.73.1,18.84,18.84,0,0,0-2.24.57c-.42.12-.84.25-1.27.36A9.14,9.14,0,0,1,713.26,418.76Z"/><path class="cls-10" d="M765,297.59l-2.21,2.08-5.49-7c.58-.33,1.14-.68,1.68-1.06Z"/><path class="cls-22" d="M789.85,239.94l4.32,6v6.31a26.24,26.24,0,0,1,0,13.34l.22,5.82s-2.09,5.35-1.34,6.66c0,0-.38,3.95-5.45,6.68s-10.8,9.15-10.8,9.15-2.16,4.13-8,3.19l-5.54,2.35-6.38-8.17,8.63-4.69s3-4,4.79-3.85l7.33-8.53s.19-2.72,2.06-2.72c0,0-3.47-2.82-2.25-4.51s.19-9.2.19-9.2Z"/><path class="cls-10" d="M781.78,267.35s9.86-.18,11.08,2.35S784.79,266,781.78,267.35Z"/><path class="cls-10" d="M762.5,299.47a2.7,2.7,0,0,1,0,.49,3.31,3.31,0,0,1-3.11,2.82h-.17a3.32,3.32,0,0,1-3.32-3.31,3.61,3.61,0,0,1,.19-1.08c-1.57-1.26-1.65-3.52-1.61-4.65a7.14,7.14,0,0,0,2.33-.83,15.23,15.23,0,0,0,1.64,3.34,3.28,3.28,0,0,1,4.09,3.21Z"/><path class="cls-19" d="M757.07,292.18s-2.22.5-2.22.9-.5,4.07,1.94,5.57,2.19-2.09,2.19-2.09S756.88,293.33,757.07,292.18Z"/><circle class="cls-24" cx="759.56" cy="299.47" r="3.32"/><circle class="cls-20" cx="759.56" cy="299.47" r="2.85"/><path class="cls-10" d="M746.63,300.75a16.44,16.44,0,0,0,16,2.13v2.82s-6,4.13-11.46,1.63S746.63,300.75,746.63,300.75Z"/><path class="cls-10" d="M746.63,300a16.42,16.42,0,0,0,16,2.11v2.82s-6,4.13-11.46,1.63S746.63,300,746.63,300Z"/><path class="cls-16" d="M746.63,300a16.42,16.42,0,0,0,16,2.11v2.82s-6,4.13-11.46,1.63S746.63,300,746.63,300Z"/><path class="cls-17" d="M746.82,300a16.42,16.42,0,0,0,16,2.13V305s-6,4.11-11.45,1.63S746.82,300,746.82,300Z"/><path class="cls-10" d="M724.63,404.57s9.39,1.72,10.76,2.09-.37,1-.37,1S726.41,406.17,724.63,404.57Z"/><path class="cls-10" d="M724.38,399.6c.15,0,6.38-1.76,7.73-4.76"/><path class="cls-10" d="M733.46,363.66s2.53,3.32,4.16,3.23S735,363.54,733.46,363.66Z"/><path class="cls-10" d="M734.86,369.17s1.06,2.35,2.63,1.6"/><path class="cls-17" d="M740.78,317.62l6.66,17.56s.94-11.3-1.05-14.68A5.87,5.87,0,0,0,740.78,317.62Z"/><g class="cls-5"><path class="cls-6" d="M757.17,178.48l-.06-.25-1.07-.29.12.53A8.51,8.51,0,0,0,757.17,178.48Z"/><path class="cls-6" d="M754.23,182.7l.11-.1a2.22,2.22,0,0,0,.63-2.28,2.89,2.89,0,0,0-.53-.85,8.27,8.27,0,0,1-1.54-.46c-.07.94,1,1.55,1.32,2.43A1.88,1.88,0,0,1,754.23,182.7Z"/><path class="cls-6" d="M772,211.57a6.17,6.17,0,0,1-2.53-3.12c-.54-1.26-.86-2.59-1.4-3.83a11.71,11.71,0,0,0-2.53-3.66,1.64,1.64,0,0,0-.66-.46,1.83,1.83,0,0,0-1.37.38,6.36,6.36,0,0,1-2.08.92,2.28,2.28,0,0,1-2.09-.63,3.15,3.15,0,0,1-.33-2.61,32.43,32.43,0,0,0,1-5.83c0-2-.75-4.11-2.47-5-1.51-.87-3.39-.63-5-1.11a6.31,6.31,0,0,1-2.36-1.21l-.13-.12a3.11,3.11,0,0,0-.41.2c-.27.14-.56.4-.49.7a.8.8,0,0,0,.28.35,6.62,6.62,0,0,0,2.36,1.21c1.69.46,3.57.24,5.08,1.11a5.7,5.7,0,0,1,2.47,5.05,33.54,33.54,0,0,1-1,5.82,3.15,3.15,0,0,0,.33,2.61,2.23,2.23,0,0,0,2.09.63,6.14,6.14,0,0,0,2.08-.91,1.79,1.79,0,0,1,1.37-.38,1.61,1.61,0,0,1,.63.46,12,12,0,0,1,2.53,3.65c.54,1.26.86,2.58,1.4,3.83a6.15,6.15,0,0,0,2.52,3.16,3.2,3.2,0,0,0,3.79-.4,2.64,2.64,0,0,0,.56-.94A3.2,3.2,0,0,1,772,211.57Z"/><path class="cls-6" d="M777.36,206.8c.94-1.18,2.17-2.19,3-3.44a9.06,9.06,0,0,0,.49-.77C779.76,204,778.2,205.2,777.36,206.8Z"/></g><g class="cls-5"><path class="cls-6" d="M721.65,189.07H572.31a7.83,7.83,0,0,0-7.81,7.8v94.36a7.84,7.84,0,0,0,7.81,7.8H689.46s3,16.11-6.94,17.84c0,0,22.33,1.6,18.43-17.84h20.7a7.82,7.82,0,0,0,7.8-7.8V196.87A7.82,7.82,0,0,0,721.65,189.07Z"/><g class="cls-7"><rect class="cls-6" x="586.49" y="214.11" width="120.98" height="7.37" rx="3.58"/><rect class="cls-6" x="586.49" y="247.06" width="99.82" height="7.37" rx="3.58"/><rect class="cls-6" x="586.49" y="230.59" width="71.86" height="7.37" rx="3.58"/></g></g><path class="cls-3" d="M723.6,187.76H574.26a7.84,7.84,0,0,0-7.81,7.81v94.36a7.84,7.84,0,0,0,7.81,7.8H691.41s3,16.11-6.94,17.84c0,0,22.33,1.6,18.43-17.84h20.7a7.82,7.82,0,0,0,7.8-7.8V195.57A7.83,7.83,0,0,0,723.6,187.76Z"/><g class="cls-7"><rect class="cls-8" x="588.44" y="212.81" width="120.98" height="7.37" rx="3.58"/><rect class="cls-8" x="588.44" y="245.76" width="99.82" height="7.37" rx="3.58"/><rect class="cls-8" x="588.44" y="229.29" width="71.86" height="7.37" rx="3.58"/></g><path class="cls-8" d="M253.87,496.19s2.25,2.94-1,7.39-6,8.2-4.9,11c0,0,5-8.25,9-8.36S258.32,501.15,253.87,496.19Z"/><path class="cls-10" d="M253.87,496.19a3.66,3.66,0,0,1,.46.93c3.94,4.63,6,8.95,2.25,9.06-3.53.1-7.76,6.41-8.77,8a1,1,0,0,0,.12.36s5-8.25,9-8.36S258.32,501.15,253.87,496.19Z"/><path class="cls-25" d="M258.05,499.94c0,1-.11,1.9-.26,1.9s-.26-.84-.26-1.9.15-.55.29-.55S258.05,498.91,258.05,499.94Z"/><path class="cls-25" d="M259.49,501.18c-.91.5-1.7.8-1.77.67s.63-.63,1.52-1.12.55-.14.63,0S260.4,500.69,259.49,501.18Z"/><path class="cls-8" d="M242,496.19s-2.25,2.94,1,7.39,6,8.2,4.91,11c0,0-5-8.25-9-8.36S237.54,501.15,242,496.19Z"/><path class="cls-10" d="M242,496.19a4,4,0,0,0-.45.93c-3.95,4.63-6,8.95-2.26,9.06,3.53.1,7.76,6.41,8.78,8,0,.12-.08.24-.12.36s-5-8.25-9-8.36S237.54,501.15,242,496.19Z"/><path class="cls-25" d="M237.8,499.94c0,1,.12,1.9.26,1.9s.26-.84.26-1.9-.14-.55-.29-.55S237.8,498.91,237.8,499.94Z"/><path class="cls-25" d="M236.36,501.18c.91.5,1.71.8,1.78.67s-.63-.63-1.52-1.12-.56-.14-.63,0S235.45,500.69,236.36,501.18Z"/><ellipse class="cls-4" cx="247.93" cy="533.45" rx="23.53" ry="3.61"/><path class="cls-26" d="M260.07,510.58l-.12.91-.16,1.3-.07.55-.15,1.29-.07.54-.15,1.3-1.81,14.77c-.16,1.32-2.31,2.35-4.91,2.35h-9.38c-2.6,0-4.75-1-4.91-2.35l-1.81-14.76-.15-1.3-.07-.54-.15-1.3-.07-.54-.16-1.3-.11-.92c-.09-.74,1.07-1.37,2.52-1.37h19.13C259,509.2,260.13,509.83,260.07,510.58Z"/><polygon class="cls-27" points="259.92 511.49 259.76 512.79 236.09 512.79 235.93 511.49 259.92 511.49"/><polygon class="cls-27" points="259.7 513.34 259.54 514.63 236.31 514.63 236.15 513.34 259.7 513.34"/><polygon class="cls-27" points="259.47 515.17 259.31 516.47 236.53 516.47 236.38 515.17 259.47 515.17"/><ellipse class="cls-4" cx="610.28" cy="645.38" rx="53.05" ry="8.7"/><g class="cls-5"><path class="cls-6" d="M671.73,378.08H509.89a8.49,8.49,0,0,0-8.45,8.46V488.8a8.47,8.47,0,0,0,8.45,8.45h127s3.28,17.46-7.52,19.34c0,0,24.19,1.73,20-19.34h22.44a8.47,8.47,0,0,0,8.45-8.45V386.54A8.49,8.49,0,0,0,671.73,378.08Z"/><g class="cls-7"><rect class="cls-6" x="525.26" y="440.94" width="131.1" height="7.99" rx="3.58"/><rect class="cls-6" x="525.26" y="423.08" width="56.85" height="7.99" rx="3.58"/></g></g><path class="cls-3" d="M670.34,376.68H508.48a8.48,8.48,0,0,0-8.46,8.45V487.39a8.5,8.5,0,0,0,8.46,8.46H635.43s3.29,17.46-7.52,19.34c0,0,24.2,1.73,20-19.34h22.45a8.49,8.49,0,0,0,8.46-8.46V385.13A8.47,8.47,0,0,0,670.34,376.68Z"/><g class="cls-7"><rect class="cls-8" x="523.85" y="439.53" width="131.1" height="7.99" rx="3.58"/><rect class="cls-8" x="523.85" y="421.67" width="56.85" height="7.99" rx="3.58"/></g><path class="cls-28" d="M640.81,639.46c-.76-3.24-1.26-6.08-1.26-6.08a12.61,12.61,0,0,0-1.41-6.18v-.89h0v-6.52a21.86,21.86,0,0,1,1.65-3.41c1.17-2,0-9.56,0-9.56s-4.36-10.59-3.3-17.31-8.94-29.84-8.94-29.84a29.44,29.44,0,0,1,.94-6.6,4.93,4.93,0,0,0,.12-1.38.48.48,0,0,0,0-.17v.05c-.15-4.41-3.65-12.73-3.65-12.73l.47-15.83s2.24-9.33-1.41-21.86c-1.26-4.37-2.09-7.87-2.61-10.57,0-.31-.11-.63-.16-.88,7.51-1.14,13.25-2.1,13.25-2.1s-4.34-18.22-7.28-21.38S621.93,453,621.93,453s-1.53-12.87.94-16.63,2.82-10.24,2.82-10.24,5.68-4.1,6.36-5.92,1.89-5.92,1.89-8.09-.7-4.1-.47-5.24-1.65-5.46-.71-7.51a5.36,5.36,0,0,0,.38-2v-.06h0a27.36,27.36,0,0,0-.5-5.34,15.22,15.22,0,0,0-5.58-3l-.13-.49-.32-1.27-.55-.33v-.47l-.06-1.85.89-4.15c1.74-7.23-7.91-8.31-7.91-8.31a5.12,5.12,0,0,0-2.74-2.4c-1.94-.68-.32,10.88.59,11.62.68.55,2.79,4.18,3.79,6h0l.16.29a3.81,3.81,0,0,0-.44.46l.37,2.53,0,.38a10.68,10.68,0,0,0-1.54,2.63,5.62,5.62,0,0,1,1.42,4.1,12.27,12.27,0,0,0,.58,5c-.1-.12-1.35-1.47-2.58-1.14s-4.71,1.37-4.71,1.37-2.59.46-2.35,1-1.77,3.08-1.77,3.08l-6.94-6.59c-.06-.2-.14-.39-.2-.6a15.85,15.85,0,0,1-.63-2.89,16.3,16.3,0,0,0,2.22-.7,4.88,4.88,0,0,0,1.89-1.23,7.67,7.67,0,0,0,1.12-3,42.26,42.26,0,0,1,2.58-5.76,18.76,18.76,0,0,0,1.39-10.33,6.77,6.77,0,0,0-1.07-3c-1.13-1.57-3.19-2.2-4.69-3.45s-2.47-3.16-4.21-4.08a8.34,8.34,0,0,0-5.28-.46,28.42,28.42,0,0,0-9.85,3.59c-1,.6-2.13,1.29-3.3,1.08a4.39,4.39,0,0,1-2.38-1.75.11.11,0,0,1,0-.09l-.07-.09a12,12,0,0,0-1,5.16,7.68,7.68,0,0,0,0,.83v.53h0a1.5,1.5,0,0,1,0,.37,2.64,2.64,0,0,1-.63.94,4.64,4.64,0,0,0-.57.77l.09-.28a4.2,4.2,0,0,0-.72,2.2,2.16,2.16,0,0,0,.52,1.56,7.78,7.78,0,0,0,1.14.92,13.26,13.26,0,0,0,6.31,13.78l.24.6a16.56,16.56,0,0,1,1.26,7.58,2.53,2.53,0,0,1-.09.55c0,.18-.17.19-.24.29h0s-11.48.12-14.19-2.33-6.82,6-6.82,6-4.12.8-4.94,0-5.65-.11-5.65-.11a10.36,10.36,0,0,0-7.14-2.61,21.26,21.26,0,0,0-5.27-2.93h0l-.13-.05h0a5.8,5.8,0,0,0-2.58-.32s-5.65-4.67-7.3-7.17-9.47-11.8-9.52-11.85v-.44l-.09-1.36a4.14,4.14,0,0,1-.7.06c-.05-.13-.1-.29-.16-.46a25.63,25.63,0,0,0-1.67-3.84s0-1.7.5-2.13-.21-6.69-.21-6.69-5.08-11.9-9.64-3c0,0-8.62,5.75-1.38,12.44,0,0,2.88,1.4,3.28,2.53.28.72,1.27,2.73,1.9,4.06l.29.6-.08.07.11,1.11,0,.43c-1.36.78-2.28,1.54-2.06,2.12a13.11,13.11,0,0,1,.83,3.08s10,12.49,11.25,17.86c0,0,26.82,15.94,35.64,17.07l-1.52,8a63.8,63.8,0,0,0-.36,6.48c.12,1.72-1.06,9.47-1.06,9.47s-1.52,11.36-2.82,13-1,8.41-1,8.41a57.83,57.83,0,0,1-1.76,9.68,25.25,25.25,0,0,0-.36,9.68s-4.47,10.25,6.24,3.3c0,0,5.26-.32,11.31-.53v.63c0,.77,0,1.62,0,2.52-.08,5.87-.11,14,.15,20.08.48,10.81,3.79,32.22,3.79,32.22v10.73a15.25,15.25,0,0,0-.31,3.08,20,20,0,0,0,2.9,10.77l.83,7.17s1.93,4.72,2,7.57a3.25,3.25,0,0,1-.08.69,5.06,5.06,0,0,0-.09,1.1c-.11,3.25,1.85,11,1.85,11s.12,7.86,1.27,8.32-1.35,4.53-2.05,5.71a.43.43,0,0,0,0-.22l-.15.24a5.34,5.34,0,0,0-.36,2,2.84,2.84,0,0,0,1.3,2.76c2.24,1.37,3.44,2.53,1.54,3a20.57,20.57,0,0,0-2.07.44l-.11-.27a1.29,1.29,0,0,0-.77,1.38,5.86,5.86,0,0,0,.7,2.66,30.61,30.61,0,0,0,3.16,5.81l.91-.1a5,5,0,0,1-.52,1,3.71,3.71,0,0,1-1.34,1.18,3.86,3.86,0,0,1-1.61.55,4.6,4.6,0,0,0-3.33,1.62c-1.17,1.53-1.89,3.59.41,5.41l8.42,2.9s14.46,1.89,13.7-1.37-1.26-6.09-1.26-6.09a12.89,12.89,0,0,0-1.18-5.76,7.23,7.23,0,0,0-.51-.84l.51-.06s1.06-7.18,2.47-8.54c.33-.31.4-.55.32-.74.15-.4-.22-.64-.69-.76l-.1.29a7.52,7.52,0,0,0-1.41-.16s-.47-3.75,1.06-5.12a1.45,1.45,0,0,0,.3-1.12,6.57,6.57,0,0,0-.16-1.53l-.06.09a55.82,55.82,0,0,0-3.37-8.84s-.12-3.41.82-4.78-.12-18.56-.12-18.56.36-8.31-.7-12.18,1.29-8.43,1.29-8.43v-.25l0-.06s-.06-.51-.14-1.3v.07c-.24-2.19-.69-6.18-1-8-.48-2.62.11-15.15.11-15.15l2.12-5.35,3.79,9.23,4,12.3a10.48,10.48,0,0,1,2,5.22v.39a7.52,7.52,0,0,0,0,.82,7.32,7.32,0,0,0,1.22,4.38s1.06,5.81,2.71,7.29,1.64,4.32,1.64,4.32,2,8.43,3,9.91c.78,1.26.83,4.68.82,5.73h0v.31s.28,3,.27,5.54v.9a.09.09,0,0,1,0-.07,9.42,9.42,0,0,1-.25,2,.2.2,0,0,1,0,.12l0-.43a22.2,22.2,0,0,0-.63,5.26c-.06,3,.4,6.61,2.24,8.71,3.16,3.65,5.18,3.2,5.18,3.2s-1.53,4.55-3.42,5.46a.8.8,0,0,0-.19.13,2.56,2.56,0,0,0,0-.27,2.17,2.17,0,0,0-.55,1.7,12.08,12.08,0,0,0,2.33,6.75,3.66,3.66,0,0,0,1.59.93l-.3.18c-.2.11-.42.22-.63.31a3,3,0,0,1-1,.24,4.49,4.49,0,0,0-3.33,1.63c-1.18,1.51-1.9,3.58.41,5.39l8.41,2.91S641.57,642.71,640.81,639.46Z"/><path class="cls-29" d="M585.54,644.85,577.4,642c-2.25-1.82-1.53-3.88-.4-5.4a4.35,4.35,0,0,1,3.23-1.63,3.7,3.7,0,0,0,1.56-.55,3.56,3.56,0,0,0,1.26-1.18A6,6,0,0,0,584,630s8.94-2.62,11.36,0a6.81,6.81,0,0,1,1.08,1.58,13.13,13.13,0,0,1,1.14,5.76s.46,2.85,1.19,6.09S585.54,644.85,585.54,644.85Z"/><path class="cls-29" d="M625.4,640.83l-8.15-2.9c-2.24-1.82-1.53-3.88-.39-5.4a4.3,4.3,0,0,1,3.22-1.62,2.73,2.73,0,0,0,.93-.25,3.68,3.68,0,0,0,.63-.31c2.27-1.26,2.22-4.32,2.22-4.32s8.93-2.62,11.36,0a6.07,6.07,0,0,1,.85,1.16,12.89,12.89,0,0,1,1.37,6.19s.45,2.84,1.19,6.09S625.4,640.83,625.4,640.83Z"/><path class="cls-10" d="M595.39,630a6.87,6.87,0,0,1,1.08,1.59h0l-13.4,1.55A5.88,5.88,0,0,0,584,630S593,627.43,595.39,630Z"/><path class="cls-10" d="M636.09,627.18v2.52c-2.07,3.44-12.15,2.69-15.08,1a3.68,3.68,0,0,0,.63-.31c2.27-1.26,2.22-4.32,2.22-4.32s8.93-2.62,11.36,0A6.1,6.1,0,0,1,636.09,627.18Z"/><path class="cls-19" d="M637.69,616.38a23.55,23.55,0,0,0-1.6,3.41v9c-2.27,3.79-14.11,2.52-15.71.45s-3.3-7.39-1.47-8.3,3.3-5.47,3.3-5.47-1.94.46-5-3.19-2.17-11.72-1.59-13.66,0-8.43,0-8.43.11-4.55-.81-6-2.84-9.91-2.84-9.91,0-2.84-1.59-4.33-2.62-7.28-2.62-7.28a7.48,7.48,0,0,1-1.16-4.89c.35-2.85-1.93-5.92-1.93-5.92l-3.87-12.3-3.65-9.22-2,5.35s-.57,12.52-.11,15.14,1.13,9.57,1.13,9.57-2.28,4.55-1.26,8.42.68,12.19.68,12.19,1,17.19.12,18.55-.8,4.79-.8,4.79,4.67,10,3.16,11.36-1,5.12-1,5.12,3.15,0,1.82,1.37-2.33,8.56-2.33,8.56l-13.76,1.59a28.15,28.15,0,0,1-3.09-5.81c-1.82-4.22.34-3.79,2.18-4.21s.67-1.6-1.49-3-.92-4.42-.92-4.42,3.3-5.58,2.17-6-1.26-8.31-1.26-8.31-2.28-9.34-1.71-11.84-1.83-8.54-1.83-8.54L576,573a19.73,19.73,0,0,1-2.53-13.55V548.41s-3.16-21.41-3.64-32.23c-.29-6.94-.21-16.38-.11-22.28,0-3.31.11-5.5.11-5.5l49.2-5.13a40.79,40.79,0,0,0,.89,7.3,107.72,107.72,0,0,0,2.53,10.57C626,513.67,623.8,523,623.8,523l-.46,15.83s4.33,10.59,3.42,14.23a30.07,30.07,0,0,0-.91,6.61s9.68,23.11,8.65,29.83,3.16,17.3,3.16,17.3S638.83,614.33,637.69,616.38Z"/><path class="cls-17" d="M609.57,557.06l15-2S616.06,563.72,609.57,557.06Z"/><path class="cls-10" d="M622.37,540.43s.51,5.3-2.73,7.29C619.65,547.72,625.45,546.81,622.37,540.43Z"/><path class="cls-10" d="M621.46,523.59s-12.52,10.3-17.05,9.47S621.46,523.59,621.46,523.59Z"/><path class="cls-10" d="M591,561.9s-9.51,2.16-9.79,6S591,561.9,591,561.9Z"/><path class="cls-17" d="M593.1,609.38s-13.43,2.52-9.62,4.21a68.08,68.08,0,0,0,10.1,3.07S597.88,616.89,593.1,609.38Z"/><g class="cls-30"><path class="cls-6" d="M580.76,616.3a2.66,2.66,0,0,1-1.22-1.95l-.14.24s-1.26,3.08.91,4.42l.7.47c.4-.08.83-.13,1.26-.23C584.09,618.8,582.93,617.67,580.76,616.3Z"/><path class="cls-6" d="M598.07,615.39c.37-.34.36-1.22.13-2.34a6.32,6.32,0,0,0-.76,3.3A2.81,2.81,0,0,1,598.07,615.39Z"/><path class="cls-6" d="M596,558.75a15,15,0,0,0-.91,4.18,16.51,16.51,0,0,1,1-2.88S596.09,559.54,596,558.75Z"/><path class="cls-6" d="M626.79,552.77a5.4,5.4,0,0,0,.13-1.26c-.17.84-.29,1.63-.38,2.32A6.71,6.71,0,0,1,626.79,552.77Z"/><path class="cls-6" d="M595.68,599.22a7.18,7.18,0,0,0,.34-2.52,8.52,8.52,0,0,0-.63,3.19A3.31,3.31,0,0,1,595.68,599.22Z"/><path class="cls-6" d="M598.5,620.69a44.35,44.35,0,0,0-1.56,7l-13.77,1.6a29.21,29.21,0,0,1-3.09-5.81c-.16-.37-.28-.7-.38-1-.83.38-1.15,1.26-.07,3.74a28.6,28.6,0,0,0,3.08,5.8l13.78-1.59s1-7.17,2.39-8.54C599.54,621.21,599.11,620.87,598.5,620.69Z"/><path class="cls-6" d="M580.31,600.25s.11,7.85,1.26,8.31h0c.58-1.3,1-2.53.45-2.74-1.14-.45-1.26-8.31-1.26-8.31s-2.27-9.34-1.71-11.84-1.82-8.54-1.82-8.54l-.8-7.17a19.74,19.74,0,0,1-2.52-13.56v-11s-3.16-21.41-3.64-32.19c-.29-6.95-.21-16.41-.12-22.28,0-1.07,0-2,.05-2.81l-.39,0s-.06,2.19-.11,5.51c-.1,5.89-.18,15.35.11,22.27.46,10.82,3.64,32.23,3.64,32.23v11A19.71,19.71,0,0,0,576,572.71l.8,7.13s2.39,6,1.83,8.54S580.31,600.25,580.31,600.25Z"/><path class="cls-6" d="M620.84,626.21a13.31,13.31,0,0,1-2.17-5.41c-1.41,1.26.21,6.19,1.72,8.14s13.43,3.3,15.71-.45v-2.18C633,629.37,622.37,628.15,620.84,626.21Z"/><path class="cls-6" d="M638.15,613.34a21.66,21.66,0,0,0-1.59,3.42v1.58c.25-.58.63-1.36,1.14-2.28a6.94,6.94,0,0,0,.5-2.82A.47.47,0,0,0,638.15,613.34Z"/><path class="cls-6" d="M621.55,615.14a22.74,22.74,0,0,0,1.12-2.71s-1.94.45-5-3.16c-2.24-2.65-2.37-7.65-2-10.92-.57,1.93-1.48,10,1.59,13.66C619.22,614.36,620.73,615,621.55,615.14Z"/><path class="cls-6" d="M615.61,589.89a60.74,60.74,0,0,1,.22,6.75,9.07,9.07,0,0,1,.24-1.06c.57-1.94,0-8.42,0-8.42s.11-4.56-.8-6-2.85-9.91-2.85-9.91,0-2.85-1.59-4.32-2.62-7.29-2.62-7.29a7.52,7.52,0,0,1-1.14-4.89c.34-2.85-1.93-5.93-1.93-5.93l-3.88-12.3-3.64-9.22-2,5.35s0,.68-.07,1.73l1.67-4.35,3.64,9.23,3.89,12.3s2.28,3.07,1.94,5.92a7.41,7.41,0,0,0,1.14,4.89s1,5.81,2.61,7.29,1.6,4.32,1.6,4.32,1.94,8.43,2.85,9.91S615.61,589.89,615.61,589.89Z"/></g><path class="cls-31" d="M625.17,380.38l-.86,4.15.05,1.85,0,1.37-4.75.49-.53-1h0c-1-1.78-3-5.41-3.69-6-.88-.74-2.44-12.3-.56-11.62a5,5,0,0,1,2.64,2.4S626.85,373.18,625.17,380.38Z"/><path class="cls-10" d="M624.4,387.78l-4.75.49-.53-1h0a4.19,4.19,0,0,1,5.24-.86Z"/><path class="cls-20" d="M625.6,390l-6.27,1.45-.13-.94-.36-2.52a4.31,4.31,0,0,1,6.07-.83l.31,1.26Z"/><path class="cls-31" d="M524.11,380.86l-6.68,3.59-.63-1.27c-.63-1.33-1.59-3.33-1.84-4.05-.4-1.11-3.19-2.53-3.19-2.53-7-6.69,1.34-12.44,1.34-12.44,4.41-8.88,9.33,3,9.33,3s.68,6.26.2,6.69-.48,2.13-.48,2.13a25.23,25.23,0,0,1,1.61,3.83C524,380.47,524.11,380.86,524.11,380.86Z"/><path class="cls-10" d="M524.11,380.86l-6.68,3.59-.63-1.27c.94-.78,4.29-3.49,5.39-3.37a8.33,8.33,0,0,0,1.58,0A10,10,0,0,1,524.11,380.86Z"/><path class="cls-20" d="M524.8,382.91l-7.52,3.7-.15-1.61-.1-1.12s4.35-3.73,5.64-3.59a7.15,7.15,0,0,0,2,0l.08,1.35Z"/><path class="cls-31" d="M607,408s-32.77,3.69-26.64,1.71c4.26-1.39,6-4.1,6.31-7.11A17.08,17.08,0,0,0,585.4,395a33.61,33.61,0,0,0-2.93-5.92s25-13.78,20-1.26a20.31,20.31,0,0,0-1.42,5.93,16.49,16.49,0,0,0,.63,6A17.94,17.94,0,0,0,607,408Z"/><path class="cls-10" d="M602.51,387.87a20.16,20.16,0,0,0-1.42,5.93c-2.36,2-5,1.85-8.27,1.85-2.53,0-5.38.63-7.42-.63a33.27,33.27,0,0,0-2.93-5.92S607.52,375.33,602.51,387.87Z"/><circle class="cls-31" cx="592.37" cy="382.97" r="13.55"/><path class="cls-10" d="M607,408s-32.77,3.69-26.64,1.71c4.26-1.39,6-4.1,6.31-7.11,1.63-1.77,4.91-3,7-3.72a9.79,9.79,0,0,1,5.94-.09,8.14,8.14,0,0,1,2.16,1A17.92,17.92,0,0,0,607,408Z"/><path class="cls-10" d="M625.6,390l-6.27,1.45-.13-.94a5.55,5.55,0,0,1,6-2.05Z"/><path class="cls-10" d="M524.8,382.91l-7.52,3.7-.15-1.61a55.12,55.12,0,0,1,7.58-3.36Z"/><path class="cls-10" d="M619.91,490.58c-12.69,2-30.75,4.62-33.62,3.75-2.37-.73-10-.64-16.57-.43,0-3.31.11-5.5.11-5.5L619,483.27A39.9,39.9,0,0,0,619.91,490.58Z"/><path class="cls-32" d="M632.57,487.6s-41.79,7.18-46.28,5.81-27.5.11-27.5.11c-10.36,7-6-3.3-6-3.3a25.45,25.45,0,0,1,.34-9.67,59,59,0,0,0,1.74-9.68s-.22-6.84,1-8.43,2.73-13,2.73-13,1.14-7.74,1-9.47a64,64,0,0,1,.34-6.49l1.48-8c-8.54-1.13-34.5-17.08-34.5-17.08C525.67,403.1,516,390.58,516,390.58a13.05,13.05,0,0,0-.8-3.08c-.68-1.82,9.57-5.46,9.57-5.46s7.62,9.34,9.22,11.84,7.06,7.17,7.06,7.17a5.69,5.69,0,0,1,2.52.33l.13,0h0a20.06,20.06,0,0,1,5.1,2.93,9.92,9.92,0,0,1,7,2.62s4.67-.68,5.46.11,4.79,0,4.79,0,4-8.43,6.6-6,13.73,2.34,13.73,2.34c1.48-2,5.08-3.38,7.34-4.11a9.79,9.79,0,0,1,5.94-.09,7.57,7.57,0,0,1,2.34,1.13l6.74,6.6s1.94-2.53,1.71-3.08,2.28-1,2.28-1,3.3-1,4.55-1.37,2.4,1,2.53,1.14a13.4,13.4,0,0,1-.57-5,5.86,5.86,0,0,0-1.37-4.1c4-9.79,13-1.59,13-1.59s1,5.35.11,7.4.91,6.38.68,7.51.46,3.08.46,5.24a30.63,30.63,0,0,1-1.83,8.08c-.68,1.82-6.14,5.92-6.14,5.92s-.35,6.5-2.74,10.25-1,16.63-1,16.63,2.28,10,5.15,13.25S632.57,487.6,632.57,487.6Z"/><path class="cls-10" d="M571.66,412.69s-1.27-3.76-2.4-4.1a28.66,28.66,0,0,1-3.3-1.48l.73-1.4s4.28,1.17,5,2.42S571.66,412.69,571.66,412.69Z"/><path class="cls-10" d="M548.77,404.37c-.23,1.13-10.37,2.16-10.37,2.16l5.13-5.14h0l.13.05h0A20.47,20.47,0,0,1,548.77,404.37Z"/><circle class="cls-19" cx="519.44" cy="388.75" r="0.91"/><circle class="cls-19" cx="520.61" cy="390.57" r="0.91"/><circle class="cls-19" cx="521.75" cy="392.25" r="0.91"/><circle class="cls-19" cx="522.95" cy="394.07" r="0.91"/><circle class="cls-19" cx="630.27" cy="393.97" r="0.74"/><circle class="cls-19" cx="630.39" cy="395.65" r="0.74"/><circle class="cls-19" cx="630.49" cy="397.33" r="0.74"/><path class="cls-10" d="M571.71,443.54c-.1-.13,25.56,32.28,45.49,13.55C617.2,457.09,585.71,461.36,571.71,443.54Z"/><path class="cls-10" d="M557,460.39s15.35.42,17,4.84v4.6a3,3,0,0,1-2.86,0c-1.54-.84-10.83-5.56-14.1-3.29Z"/><path class="cls-32" d="M557.25,460.39s14.69.4,16.22,4.62v4.37a2.82,2.82,0,0,1-2.73,0c-1.48-.79-10.36-5.3-13.49-3.16Z"/><path class="cls-10" d="M565.35,427a50,50,0,0,0,5.95,10.22,40.11,40.11,0,0,0,9.33,9S565.6,429.15,565.35,427Z"/><path class="cls-10" d="M560.33,409.2s2.56,11.05,9.16,14.82Z"/><path class="cls-10" d="M556.39,410.31c-.06-.2-2.27,8.75,8.52,13.71C564.93,424,560.33,422.46,556.39,410.31Z"/><path class="cls-10" d="M623.46,402.9c-.17,0,5.33,3.49,6.81,5.12C630.27,408,626.7,402.67,623.46,402.9Z"/><path class="cls-29" d="M588.71,395.25a2.87,2.87,0,0,0,1.06,1.83,2.94,2.94,0,0,0,1.26.29c4.14.25,8.44.43,12.25-1.16a4.63,4.63,0,0,0,1.9-1.23,7.5,7.5,0,0,0,1.08-3,39.54,39.54,0,0,1,2.53-5.75,19.37,19.37,0,0,0,1.34-10.34,6.93,6.93,0,0,0-1-3c-1.1-1.56-3.09-2.2-4.55-3.44s-2.38-3.16-4.07-4.09a7.83,7.83,0,0,0-5.11-.45,27,27,0,0,0-9.61,3.58c-1,.6-2,1.29-3.15,1.09a4.46,4.46,0,0,1-2.35-1.8,12.58,12.58,0,0,0-1,5.9,2.66,2.66,0,0,1,0,.89,2.83,2.83,0,0,1-.63.94c-1,1.18-1.66,3.05-.63,4.25.43.52,1.11.81,1.54,1.34.76.95.5,2.31.48,3.54a1.84,1.84,0,0,0,.31,1.2,1.75,1.75,0,0,0,1.67.39,4.64,4.64,0,0,1,1.78-.17,2.87,2.87,0,0,1,1.54,1.2C587.17,389.66,587.91,392.33,588.71,395.25Z"/><g class="cls-5"><path class="cls-6" d="M605.61,393.93a4.52,4.52,0,0,1-1.89,1.27c-3.79,1.59-8.12,1.4-12.25,1.14a2.73,2.73,0,0,1-1.26-.28,2.81,2.81,0,0,1-1.06-1.83c-.81-2.92-1.54-5.59-3.46-8a2.94,2.94,0,0,0-1.54-1.19,4.28,4.28,0,0,0-1.78.17,1.77,1.77,0,0,1-1.66-.4,1.83,1.83,0,0,1-.3-1.21c0-1.21.28-2.58-.49-3.53-.42-.54-1.09-.81-1.54-1.34a2.66,2.66,0,0,1-.26-2.72c-.72,1.15-1,2.63-.19,3.63.44.52,1.11.81,1.54,1.34.76.95.5,2.32.49,3.54a1.77,1.77,0,0,0,.3,1.2,1.73,1.73,0,0,0,1.67.4,4.47,4.47,0,0,1,1.78-.17,3,3,0,0,1,1.55,1.19c1.89,2.42,2.65,5.09,3.45,8a2.14,2.14,0,0,0,2.16,2.12h.18c4.13.25,8.43.44,12.25-1.16a4.56,4.56,0,0,0,1.89-1.23,3.61,3.61,0,0,0,.59-1.09Z"/><path class="cls-6" d="M579.25,374.19a2.09,2.09,0,0,0,.42-.68,2.66,2.66,0,0,0,0-.89,12.41,12.41,0,0,1,.63-4.91l-.08-.08a12.56,12.56,0,0,0-1,5.9A3.66,3.66,0,0,1,579.25,374.19Z"/></g><path class="cls-10" d="M586.29,403.46s16.93,2.25,18.45-.3"/><path class="cls-10" d="M619.22,396.46s9.39,0,11.47,3.54"/><path class="cls-8" d="M821.67,388s1.17,1.53-.55,3.85-3.15,4.29-2.56,5.73c0,0,2.59-4.31,4.7-4.37S824,390.52,821.67,388Z"/><path class="cls-10" d="M821.67,388a2,2,0,0,1,.24.48c2.05,2.42,3.15,4.67,1.17,4.73s-4.05,3.35-4.58,4.18a.6.6,0,0,0,.06.19c0,.07,2.59-4.31,4.7-4.37S824,390.52,821.67,388Z"/><path class="cls-25" d="M823.85,389.88a2,2,0,0,1-.13,1c-.08,0-.14-.45-.14-1s.07-.28.15-.28S823.85,389.34,823.85,389.88Z"/><path class="cls-25" d="M824.6,390.53c-.47.26-.89.42-.92.35s.32-.33.79-.59.29-.07.33,0S825.08,390.27,824.6,390.53Z"/><path class="cls-8" d="M815.46,388s-1.19,1.53.54,3.85,3.15,4.29,2.56,5.73c0,0-2.59-4.31-4.71-4.37S813.13,390.52,815.46,388Z"/><path class="cls-10" d="M815.46,388a1.69,1.69,0,0,0-.25.48c-2.06,2.42-3.16,4.67-1.18,4.73s4.06,3.35,4.59,4.18a.42.42,0,0,1-.06.19c0,.07-2.59-4.31-4.71-4.37S813.13,390.52,815.46,388Z"/><path class="cls-25" d="M813.26,389.88a.5.5,0,1,0,.28,0c0-.54-.08-.28-.16-.28S813.26,389.34,813.26,389.88Z"/><path class="cls-25" d="M812.51,390.53c.48.26.89.42.93.35s-.32-.33-.79-.59-.29-.07-.33,0S812,390.27,812.51,390.53Z"/><path class="cls-33" d="M813.62,397.31s3.29-.1,4.28-.81,5.05-1.54,5.31-.41,4.94,5.63,1.26,5.68-8.62-.58-9.61-1.18S813.62,397.31,813.62,397.31Z"/><path class="cls-34" d="M824.52,401.36c-3.71,0-8.63-.58-9.61-1.18-.76-.46-1.06-2.11-1.16-2.87h-.13s.21,2.66,1.2,3.26,5.91,1.21,9.62,1.18c1.08,0,1.44-.39,1.42-1C825.72,401.14,825.32,401.35,824.52,401.36Z"/></g></g></svg>