<?xml version="1.0" encoding="utf-8"?>
<!-- Generator: Adobe Illustrator 24.2.0, SVG Export Plug-In . SVG Version: 6.00 Build 0)  -->
<svg version="1.1" id="Layer_1" xmlns="http://www.w3.org/2000/svg" xmlns:xlink="http://www.w3.org/1999/xlink" x="0px" y="0px"
	 viewBox="0 0 1004.2 920.1" style="enable-background:new 0 0 1004.2 920.1;" xml:space="preserve">
<style type="text/css">
	.st0{fill:#EFCB34;}
	.st1{fill:#7882C0;}
	.st2{fill:#FFFFFF;}
	.st3{fill:#E6E6E6;}
	.st4{fill:#3F3D56;}
	.st5{fill:#F0CB35;}
	.st6{fill:#2F2E41;}
	.st7{fill:#FFB9B9;}
</style>
<g id="Layer_2_1_">
	<g id="Layer_1-2">
		<rect x="108.5" class="st0" width="895.8" height="920.1"/>
		<rect x="69.3" y="207.1" class="st1" width="813.8" height="713"/>
		<rect y="118.9" class="st2" width="769.7" height="707.1"/>
		<path class="st3" d="M58.9,234.5c-2.6,0-4.8,2.1-4.8,4.8l-1.2,510.4c0,2.6,2.1,4.8,4.8,4.8l411.2,0.9c2.6,0,4.8-2.1,4.8-4.8
			l1.2-510.4c0-2.6-2.1-4.8-4.8-4.8L58.9,234.5z"/>
		<path class="st2" d="M74.1,249.8c-2.6,0-4.8,2.1-4.8,4.8l-1.1,479.9c0,2.6,2.1,4.8,4.8,4.8l380.7,0.9c2.6,0,4.8-2.1,4.8-4.8
			l1.1-479.9c0-2.6-2.1-4.8-4.8-4.8L74.1,249.8z"/>
		<path class="st3" d="M404.2,458.2l-280.5-0.6c-4,0-7.1-3.2-7.1-7.2s3.2-7.1,7.2-7.1l280.5,0.6c4,0,7.1,3.2,7.1,7.2
			C411.4,455,408.2,458.2,404.2,458.2z"/>
		<path class="st3" d="M406.9,324.9l-186.1-0.4c-2.6,0-4.7-3.2-4.7-7.2s2.1-7.2,4.8-7.1l186.1,0.4c2.6,0,4.7,3.2,4.7,7.2
			S409.5,324.9,406.9,324.9z"/>
		<path class="st3" d="M406.8,365.9l-186.1-0.4c-2.6,0-4.7-3.2-4.7-7.2s2.1-7.2,4.8-7.1l186.1,0.4c2.6,0,4.7,3.2,4.7,7.2
			S409.5,365.9,406.8,365.9z"/>
		<path class="st3" d="M404.1,504.5l-280.5-0.6c-4,0-7.1-3.2-7.1-7.2s3.2-7.1,7.2-7.1l280.5,0.6c4,0,7.1,3.2,7.1,7.2
			C411.3,501.3,408.1,504.5,404.1,504.5L404.1,504.5z"/>
		<path class="st3" d="M404,550.8l-280.5-0.6c-4,0-7.2-3.2-7.2-7.2s3.2-7.2,7.2-7.2c0,0,0,0,0,0l280.5,0.6c4,0,7.2,3.2,7.2,7.2
			C411.2,547.6,408,550.8,404,550.8C404,550.8,404,550.8,404,550.8L404,550.8z"/>
		<path class="st3" d="M403.9,597l-280.5-0.6c-4,0-7.2-3.2-7.2-7.2c0-4,3.2-7.2,7.2-7.2c0,0,0,0,0,0l280.5,0.6c4,0,7.1,3.2,7.1,7.2
			C411,593.9,407.8,597,403.9,597z"/>
		<path class="st3" d="M403.8,643.3l-280.5-0.6c-4,0-7.1-3.2-7.1-7.2c0-3.9,3.2-7.1,7.2-7.1l280.5,0.6c4,0,7.1,3.2,7.1,7.2
			C410.9,640.1,407.7,643.3,403.8,643.3L403.8,643.3z"/>
		<path class="st3" d="M403.7,689.6l-280.5-0.6c-4,0-7.2-3.2-7.2-7.2c0-4,3.2-7.2,7.2-7.2c0,0,0,0,0,0l280.5,0.6
			c4,0,7.2,3.2,7.2,7.2C410.9,686.4,407.7,689.6,403.7,689.6C403.7,689.6,403.7,689.6,403.7,689.6L403.7,689.6z"/>
		<circle class="st4" cx="154.5" cy="338.1" r="37.7"/>
		<path class="st3" d="M212.3,457.8"/>
		<path class="st5" d="M370.6,327l0-89.2c0.4-27.9-21.8-50.8-49.7-51.2c-27.6-0.4-50.4,21.4-51.2,49h11.1
			c0.8-21.1,18.2-37.8,39.3-37.9c0.2,0,0.4,0,0.6,0c21.8,0.3,39.1,18.3,38.8,40v89.3c0,0.2,0,0.5,0,0.7
			c-0.2,14.4-11.9,26.1-26.4,26.1c-0.1,0-0.2,0-0.3,0c-14.6-0.2-26.3-12.2-26.1-26.8l0.1-88.6c0.1-7.3,6.2-13.2,13.5-13.1
			c7.1,0.1,12.9,5.9,13.1,13V306c0,3.1,2.5,5.5,5.5,5.5s5.5-2.5,5.5-5.5l0-67.7c-0.2-13.5-11.3-24.2-24.8-24
			c-13.2,0.2-23.8,10.9-24,24.1l-0.1,88.6c-0.2,20.7,16.3,37.7,37,37.9c0.2,0,0.3,0,0.5,0c20.5,0,37.2-16.5,37.5-37.1
			C370.6,327.6,370.6,327.3,370.6,327z"/>
		<rect x="19.9" y="754.6" class="st4" width="557.1" height="2"/>
		<path class="st6" d="M563.6,310.1h77.6v-38.6c0-10.4-4.1-20.4-11.4-27.9c-7.2-7.4-17.1-11.6-27.4-11.5
			c-21.2,0-38.3,16.9-38.8,38.4c0,0.4,0,0.7,0,1V310.1z"/>
		<path class="st7" d="M548,520.2L548,520.2c6.4,0.8,12.2-3.7,13-10.1c0.1-1.1,0.1-2.2-0.1-3.3l-2.9-18h-14.5l-5.1,16.5
			c-1.9,6.1,1.6,12.6,7.7,14.5C546.6,520,547.3,520.1,548,520.2z"/>
		<path class="st6" d="M726.1,735.2l-17.3,2.1l-89.1-186.7l-50.3,186.7l-18.2-5.5l17-299.4l80-4.2
			C678.6,464.1,702.4,618.9,726.1,735.2z"/>
		<path class="st6" d="M559.7,756.7h-36.2c-3.5,0-6.3-2.7-6.5-6.2l0,0c-0.1-2.5,1.2-4.8,3.4-6l20.8-11.3l12.8-3.4
			c5.7,6.5,11.1,6.5,16.3,1.3l1.7,11.4c1,6.8-3.7,13.1-10.5,14.2C560.9,756.7,560.3,756.7,559.7,756.7z"/>
		<path class="st6" d="M715.4,756.7h-36.2c-3.5,0-6.3-2.7-6.5-6.2l0,0c-0.1-2.5,1.2-4.8,3.4-6l20.8-11.3l12.8-3.4
			c5.7,6.5,11.1,6.5,16.3,1.3l1.7,11.4c1,6.8-3.7,13.1-10.5,14.2C716.7,756.7,716.1,756.7,715.4,756.7z"/>
		<path class="st5" d="M538.5,493l22.4-1.2L574.9,330l-10.6,1.6c-8.1,1.2-14.3,7.7-15.1,15.8L538.5,493z"/>
		<circle class="st7" cx="596.7" cy="271.2" r="29.7"/>
		<path class="st7" d="M632.5,322.1c-22.5,65.6-42.2,70.2-60.6,43.6c1.6-19.8,8.2-35.8,20-47.9c6.9-4.7,2.8-13.6-2.4-23l28.5-9.7
			C618.7,297.1,624,309.4,632.5,322.1z"/>
		<path class="st5" d="M649.7,430.9c-32.5,22.5-61.8,26.6-81.2,5.5c-6.8-28.1-8.2-57.6-4.9-86.7c1.1-9.2,6.2-17.5,14-22.5l14.3-9.3
			l7,22.1l27-29.4l20.4,2.5c8.2,1,14.1,8.4,13.2,16.6L649.7,430.9z"/>
		<path class="st6" d="M629.9,248.7l-7.4,23.5l-63.8-1.1c0.6-21.8,18.7-38.9,40.5-38.4C611.4,233,622.7,238.9,629.9,248.7
			L629.9,248.7z"/>
		<path class="st3" d="M642.6,495c-0.6,0-1.1,0.5-1.1,1.1l-0.3,116c0,0.6,0.5,1.1,1.1,1.1l93.4,0.2c0.6,0,1.1-0.5,1.1-1.1l0.3-116
			c0-0.6-0.5-1.1-1.1-1.1L642.6,495z"/>
		<path class="st2" d="M646.1,498.4c-0.6,0-1.1,0.5-1.1,1.1l-0.3,109c0,0.6,0.5,1.1,1.1,1.1l86.5,0.2c0.6,0,1.1-0.5,1.1-1.1l0.3-109
			c0-0.6-0.5-1.1-1.1-1.1L646.1,498.4z"/>
		<path class="st3" d="M721.1,545.8l-63.7-0.1c-0.9,0-1.6-0.7-1.6-1.6c0-0.9,0.7-1.6,1.6-1.6c0,0,0,0,0,0l63.7,0.1
			c0.9,0,1.6,0.7,1.6,1.6C722.7,545.1,722,545.8,721.1,545.8C721.1,545.8,721.1,545.8,721.1,545.8L721.1,545.8z"/>
		<path class="st3" d="M721.7,515.5l-42.3-0.1c-0.6,0-1.1-0.7-1.1-1.6s0.5-1.6,1.1-1.6l42.3,0.1c0.6,0,1.1,0.7,1.1,1.6
			C722.8,514.8,722.3,515.5,721.7,515.5z"/>
		<path class="st3" d="M721.7,524.8l-42.3-0.1c-0.6,0-1.1-0.7-1.1-1.6s0.5-1.6,1.1-1.6l42.3,0.1c0.6,0,1.1,0.7,1.1,1.6
			C722.7,524.1,722.2,524.8,721.7,524.8z"/>
		<path class="st3" d="M721,556.3l-63.7-0.1c-0.9,0-1.6-0.7-1.6-1.6c0-0.9,0.7-1.6,1.6-1.6L721,553c0.9,0,1.6,0.7,1.6,1.6
			C722.7,555.6,721.9,556.3,721,556.3z"/>
		<path class="st3" d="M721,566.8l-63.7-0.1c-0.9,0-1.6-0.7-1.6-1.6c0-0.9,0.7-1.6,1.6-1.6l63.7,0.1c0.9,0,1.6,0.7,1.6,1.6
			C722.6,566.1,721.9,566.8,721,566.8L721,566.8z"/>
		<path class="st3" d="M721,577.3l-63.7-0.1c-0.9,0-1.6-0.7-1.6-1.6c0-0.9,0.7-1.6,1.6-1.6c0,0,0,0,0,0l63.7,0.1
			c0.9,0,1.6,0.7,1.6,1.6C722.6,576.6,721.9,577.3,721,577.3C721,577.3,721,577.3,721,577.3z"/>
		<path class="st3" d="M721,587.8l-63.7-0.1c-0.9,0-1.6-0.7-1.6-1.6c0-0.9,0.7-1.6,1.6-1.6c0,0,0,0,0,0l63.7,0.1
			c0.9,0,1.6,0.7,1.6,1.6C722.6,587.1,721.9,587.8,721,587.8L721,587.8z"/>
		<path class="st3" d="M720.9,598.4l-63.7-0.1c-0.9,0-1.6-0.7-1.6-1.6c0-0.9,0.7-1.6,1.6-1.6l63.7,0.1c0.9,0,1.6,0.7,1.6,1.6
			C722.6,597.6,721.8,598.4,720.9,598.4z"/>
		<circle class="st4" cx="664.3" cy="518.5" r="8.6"/>
		<path class="st3" d="M677.5,545.7"/>
		<path class="st7" d="M673.9,503.2L673.9,503.2c-6.4,0.8-12.2-3.7-13-10.1c-0.1-1.1-0.1-2.2,0.1-3.3l2.9-18h14.5l5.1,16.5
			c1.9,6.1-1.6,12.6-7.7,14.5C675.2,503,674.6,503.1,673.9,503.2z"/>
		<path class="st5" d="M683.4,476l-22.4-1.2L647,313l10.6,1.6c8.1,1.2,14.3,7.7,15.1,15.8L683.4,476z"/>
	</g>
</g>
</svg>
