<?xml version="1.0" standalone="no"?>
<!DOCTYPE svg PUBLIC "-//W3C//DTD SVG 20010904//EN"
 "http://www.w3.org/TR/2001/REC-SVG-20010904/DTD/svg10.dtd">
<svg version="1.0" xmlns="http://www.w3.org/2000/svg"
 width="260.000000pt" height="260.000000pt" viewBox="0 0 260.000000 260.000000"
 preserveAspectRatio="xMidYMid meet">
<metadata>
Created by potrace 1.11, written by Peter Selinger 2001-2013
</metadata>
<g transform="translate(0.000000,260.000000) scale(0.100000,-0.100000)"
fill="#000000" stroke="none">
<path d="M1087 2524 c-101 -15 -268 -69 -359 -115 -221 -111 -436 -326 -547
-547 -79 -156 -131 -377 -131 -552 0 -175 52 -396 131 -552 111 -221 326 -436
547 -547 245 -123 580 -164 826 -100 l39 11 -654 654 -654 655 270 267 c349
345 402 378 610 376 120 -1 185 -22 278 -92 163 -124 245 -299 218 -465 -25
-150 -83 -238 -310 -470 l-175 -178 329 -329 329 -329 30 16 c139 72 330 244
427 385 149 218 214 428 214 698 0 210 -29 343 -115 527 -84 181 -252 376
-420 490 -258 174 -576 245 -883 197z"/>
<path d="M1033 1856 c-78 -25 -127 -64 -290 -228 l-163 -163 233 -233 233
-233 170 173 c208 213 229 246 229 368 0 101 -14 136 -87 215 -87 95 -218 136
-325 101z"/>
</g>
</svg>
